<?xml version="1.0" encoding="utf-8"?><svg xmlns="http://www.w3.org/2000/svg" xmlns:xlink="http://www.w3.org/1999/xlink"><symbol viewBox="0 0 20 20" id="basket" xmlns="http://www.w3.org/2000/svg"><path d="M9.661 17.328a1.66 1.66 0 11-3.322 0 1.66 1.66 0 013.322 0zm5.064-1.66a1.661 1.661 0 100 3.321 1.661 1.661 0 000-3.322zm5.156-7.798l-2.044 6.074s-.169.902-1.03.902H6.486c-1.03 0-1.073-1.13-1.073-1.13S4.318 5.58 4.264 5.089c-.055-.492-.684-.856-.684-.856L.876 2.97c-1.48-.774-.808-2.248 0-1.91C4.306 2.679 5.898 3.476 6 4.113c.104.639.284 2.176.284 2.176v.01l.036-.01h12.64c1.527 0 .92 1.584.92 1.582zm-2.956 3.382l-.021.002H6.899l.206 1.635h9.333l.487-1.637zm.974-3.297H6.485l.22 1.748h10.678l.516-1.748z"/><defs><clipPath id="aclip0"><path d="M0 0h20v20H0z"/></clipPath></defs></symbol><symbol viewBox="0 0 10 10" id="email" xmlns="http://www.w3.org/2000/svg"><path d="M9.121 1.191H.88a.869.869 0 00-.377.088l4.479 4.479 1.003-.965L9.498 1.28a.869.869 0 00-.377-.089zm.791.503L6.606 5l3.306 3.306A.869.869 0 0010 7.93V2.07a.869.869 0 00-.088-.376zm-9.824 0A.869.869 0 000 2.07v5.86c0 .135.033.262.088.376L3.394 5 .088 1.694z"/><path d="M6.191 5.414l-1.003.965a.292.292 0 01-.415 0l-.964-.965L.502 8.72a.869.869 0 00.377.089H9.12a.869.869 0 00.377-.088L6.19 5.414z"/><defs><clipPath id="bclip0"><path d="M0 0h10v10H0z"/></clipPath></defs></symbol><symbol viewBox="0 0 8 10" id="marker" xmlns="http://www.w3.org/2000/svg"><path d="M3.622 0a3.626 3.626 0 013.621 3.622c0 2.478-3.24 6.116-3.379 6.27a.326.326 0 01-.485 0C3.24 9.738-.001 6.1-.001 3.622A3.626 3.626 0 013.623 0zm0 5.444a1.824 1.824 0 001.822-1.822 1.824 1.824 0 00-1.822-1.823 1.824 1.824 0 00-1.823 1.823c0 1.004.818 1.822 1.823 1.822z"/></symbol><symbol viewBox="0 0 10 10" id="phone" xmlns="http://www.w3.org/2000/svg"><path d="M7.104 0H2.896a.728.728 0 00-.727.728v8.544c0 .402.325.728.727.728h4.208a.728.728 0 00.728-.728V.728A.728.728 0 007.104 0zM3.962.442h2.077c.053 0 .095.079.095.176 0 .097-.042.175-.095.175H3.962c-.053 0-.095-.078-.095-.175 0-.097.042-.176.095-.176zM5 9.281a.465.465 0 11.002-.93.465.465 0 01-.002.93zm2.286-1.592H2.714v-6.46h4.572v6.46z"/></symbol></svg>