<?xml version="1.0" encoding="utf-8"?><svg xmlns="http://www.w3.org/2000/svg" xmlns:xlink="http://www.w3.org/1999/xlink"><symbol viewBox="0 0 20 20" id="basket" xmlns="http://www.w3.org/2000/svg"><path d="M9.661 17.328a1.66 1.66 0 11-3.322 0 1.66 1.66 0 013.322 0zm5.064-1.66a1.661 1.661 0 100 3.321 1.661 1.661 0 000-3.322zm5.156-7.798l-2.044 6.074s-.169.902-1.03.902H6.486c-1.03 0-1.073-1.13-1.073-1.13S4.318 5.58 4.264 5.089c-.055-.492-.684-.856-.684-.856L.876 2.97c-1.48-.774-.808-2.248 0-1.91C4.306 2.679 5.898 3.476 6 4.113c.104.639.284 2.176.284 2.176v.01l.036-.01h12.64c1.527 0 .92 1.584.92 1.582zm-2.956 3.382l-.021.002H6.899l.206 1.635h9.333l.487-1.637zm.974-3.297H6.485l.22 1.748h10.678l.516-1.748z"/><defs><clipPath id="aclip0"><path d="M0 0h20v20H0z"/></clipPath></defs></symbol><symbol viewBox="0 0 32 32" id="ci1" xmlns="http://www.w3.org/2000/svg"><path d="M29.76 14.46l-.829-3.315a.501.501 0 00.397-.49v-.534c0-1.16-.944-2.104-2.105-2.104H23.45V6.914c0-.57-.465-1.035-1.036-1.035H3.173c-.57 0-1.035.464-1.035 1.035V16a.501.501 0 001.002 0V6.914c0-.018.015-.033.033-.033h19.24c.019 0 .034.015.034.033V16a.501.501 0 101.002 0v-.568h5.913a1.64 1.64 0 011.557 1.136h-1.558a.501.501 0 00-.501.5v1.07c0 .865.704 1.57 1.57 1.57h.568v2.204h-1.31a3.178 3.178 0 00-3-2.137 3.178 3.178 0 00-2.998 2.137h-.241v-3.774a.501.501 0 00-1.002 0v3.774H12.05a3.178 3.178 0 00-2.999-2.138 3.178 3.178 0 00-2.999 2.138h-2.88a.033.033 0 01-.033-.033v-1.103H5.31a.501.501 0 000-1.002H.501a.501.501 0 000 1.002h1.637v1.103c0 .57.464 1.035 1.035 1.035H5.88l-.001.034a3.177 3.177 0 003.173 3.173 3.177 3.177 0 003.173-3.173v-.034h11.291v.034a3.177 3.177 0 003.173 3.173 3.177 3.177 0 003.173-3.173v-.034h1.637a.501.501 0 00.5-.5v-5.345a2.642 2.642 0 00-2.24-2.609zm-6.311-5.44h3.774c.608 0 1.103.494 1.103 1.102v.034h-4.877V9.019zm0 5.411v-3.274H27.9l.818 3.274h-5.27zM9.052 25.119a2.174 2.174 0 01-2.171-2.171c0-1.198.974-2.171 2.171-2.171 1.197 0 2.171.973 2.171 2.17a2.174 2.174 0 01-2.17 2.172zm17.637 0a2.174 2.174 0 01-2.171-2.171c0-1.198.974-2.171 2.17-2.171 1.198 0 2.172.973 2.172 2.17a2.174 2.174 0 01-2.171 2.172zm4.309-6.413h-.568a.569.569 0 01-.568-.568v-.568h1.136v1.136z"/><path d="M9.052 21.912a1.037 1.037 0 000 2.071 1.037 1.037 0 000-2.07zm17.637 0a1.037 1.037 0 000 2.071 1.037 1.037 0 000-2.07zm-5.879-2.137h-7.482a.501.501 0 100 1.002h7.482a.501.501 0 000-1.002zM7.983 17.637H1.57a.501.501 0 000 1.002h6.413a.501.501 0 000-1.002zm9.441-6.801a.501.501 0 00-.709 0l-4.456 4.455-2.318-2.318a.501.501 0 10-.708.709l2.672 2.672a.499.499 0 00.709 0l4.81-4.81a.501.501 0 000-.708z"/></symbol><symbol viewBox="0 0 23 23" id="ci2" xmlns="http://www.w3.org/2000/svg"><path d="M22.341 11.234a.656.656 0 00-.659.659v5.994a2.957 2.957 0 01-2.953 2.953H4.271a2.957 2.957 0 01-2.953-2.953v-6.092a.656.656 0 00-.659-.659.656.656 0 00-.659.66v6.091a4.276 4.276 0 004.271 4.271h14.458A4.276 4.276 0 0023 17.887v-5.994a.66.66 0 00-.659-.66z"/><path d="M11.036 16.925a.663.663 0 00.464.196.643.643 0 00.464-.196l4.188-4.188a.657.657 0 000-.932.657.657 0 00-.933 0l-3.06 3.065V1.5A.656.656 0 0011.5.843a.656.656 0 00-.659.659v13.37l-3.065-3.066a.657.657 0 00-.933 0 .657.657 0 000 .932l4.193 4.188z"/></symbol><symbol viewBox="0 0 30 30" id="ci3" xmlns="http://www.w3.org/2000/svg"><path d="M30 10.217c0-.455-.135-.917-.43-1.298l-2.378-3.042a2.044 2.044 0 00-1.61-.764c-.36 0-.726.093-1.05.295L22.213 6.85c-.244.155-.662.262-1.066.26-.313 0-.616-.062-.816-.16l-2.27-1.1a2.734 2.734 0 00-1.184-.25c-.59.003-1.187.148-1.667.48l-.264.186a968.06 968.06 0 00-.902-.449c-.44-.215-.956-.302-1.478-.304-.472.002-.943.074-1.357.25l-1.546.659c-.251.109-.652.18-1.05.178-.397.002-.796-.07-1.048-.178l-1.547-.66a2.252 2.252 0 00-.883-.172c-.344 0-.687.068-1.005.197-.317.13-.612.32-.847.583L.467 9.525a1.826 1.826 0 00.178 2.615l2.628 2.242-1.246 1.3a1.853 1.853 0 00.063 2.63l.253.241c.239.226.525.37.825.447-.15.276-.233.58-.232.883 0 .49.193.983.578 1.347h-.001l.254.241a1.874 1.874 0 002.019.366c.082.332.25.647.517.9l.253.24a1.873 1.873 0 002.327.2c.091.294.247.573.486.8l.253.24c.36.343.829.513 1.29.513.491 0 .987-.192 1.354-.575l1.101-1.15 1.497 1.385c.359.332.818.497 1.273.497a1.868 1.868 0 001.369-.592l.238-.256a1.85 1.85 0 00.42-.758l.58.536a1.876 1.876 0 002.643-.098l.237-.256c.274-.293.429-.656.477-1.027.152.04.308.066.464.066.5 0 1.003-.2 1.37-.592l.239-.256c.333-.357.498-.815.498-1.266 0-.14-.02-.28-.051-.418.414-.054.815-.24 1.12-.567l.24-.256a1.856 1.856 0 00-.097-2.63l-.447-.413 4.033-4.46a2.12 2.12 0 00.53-1.427zM3.634 18.051a.849.849 0 01-.586-.232l-.254-.24a.838.838 0 01-.262-.613c0-.212.077-.42.233-.583l2.553-2.664a.847.847 0 01.616-.261c.213 0 .422.077.586.232l.253.24s.26.387.261.614c0 .17-.051.335-.15.478-.01.008-2.756 2.871-2.756 2.871a.86.86 0 01-.494.158zm2.039 2.657a.849.849 0 01-.615.26.848.848 0 01-.586-.231l-.254-.241a.838.838 0 01-.262-.613c0-.213.077-.42.233-.583 0 0 3.403-3.543 3.432-3.577a.846.846 0 01.588-.238c.214 0 .422.077.586.232l.254.241a.838.838 0 01.262.613.84.84 0 01-.233.583l-3.405 3.554zm2.79 1.507a.846.846 0 01-.616.26.847.847 0 01-.586-.232l-.254-.241a.837.837 0 01-.074-1.139l2.37-2.474a.846.846 0 011.154.012l.254.241a.84.84 0 01.262.612c0 .213-.078.42-.233.584l-2.278 2.377zm4.503-.262l-1.438 1.502a.847.847 0 01-.616.26.846.846 0 01-.586-.232l-.253-.241a.84.84 0 01-.262-.613c0-.213.077-.42.233-.583l1.438-1.5a.849.849 0 01.616-.261c.213 0 .422.077.586.232l.254.241a.84.84 0 01.261.612.84.84 0 01-.233.583zm12.494-4.071a.837.837 0 01-.226.575l-.238.255a.848.848 0 01-.623.269.845.845 0 01-.578-.225l-4.016-3.714-.694.744 4.298 3.982a.845.845 0 01.044 1.196l-.238.256a.85.85 0 01-.623.268.847.847 0 01-.577-.224l-4.017-3.714-.694.743 3.565 3.297c.172.164.26.384.26.609a.835.835 0 01-.225.574l-.238.256a.849.849 0 01-.624.269.848.848 0 01-.578-.225l-3.557-3.284h-.001l-.693.744.014.013 1.782 1.645a.837.837 0 01.015 1.158l-.238.256a.847.847 0 01-.622.268.845.845 0 01-.577-.225l-1.552-1.436c.136-.265.21-.553.21-.841a1.847 1.847 0 00-.577-1.347l-.254-.241a1.869 1.869 0 00-1.29-.512c-.035 0-.071.008-.106.01l.002-.026c0-.49-.578-1.348-.578-1.348l-.254-.24a1.862 1.862 0 00-.94-.48c.07-.2.11-.407.11-.615 0-.49-.194-.983-.578-1.347l-.253-.242a1.873 1.873 0 00-1.29-.512c-.054 0-.107.01-.16.015a1.852 1.852 0 00-.573-1.289l-.253-.24a1.872 1.872 0 00-1.29-.513 1.87 1.87 0 00-1.353.575l-.602.629-2.67-2.277a.817.817 0 01-.08-1.17l2.817-3.155a1.27 1.27 0 01.471-.318c.194-.079.414-.122.62-.122.178 0 .346.033.48.09l1.547.66c.436.184.942.26 1.451.261.51-.001 1.015-.077 1.45-.26l1.547-.66c.238-.104.598-.168.955-.167.396-.002.792.08 1.022.197l.412.206-1.576 1.108a1.826 1.826 0 00-.416 2.585l.208.279a2.035 2.035 0 001.628.797c.348 0 .703-.088 1.019-.277l.943-.566c.192-.118.483-.192.783-.191.353-.002.708.102.922.26l2.608 1.87a25.678 25.678 0 012.05 1.672l3.02 2.792c.179.166.269.39.27.62zm3.253-6.916l-4.022 4.447-1.826-1.688a26.851 26.851 0 00-2.148-1.752l-2.608-1.87c-.442-.314-.984-.45-1.519-.451-.455.001-.914.1-1.31.336l-.942.567a.957.957 0 01-.492.131 1.017 1.017 0 01-.81-.387l-.207-.28h-.001a.81.81 0 01.185-1.15l2.788-1.959c.24-.175.67-.297 1.077-.294.283-.001.553.056.738.147l2.27 1.1c.387.185.824.261 1.263.262.564-.002 1.135-.125 1.605-.414l2.319-1.442a.964.964 0 01.51-.14c.313 0 .627.14.805.372l2.377 3.042c.137.174.216.42.216.674 0 .285-.1.566-.268.749z"/><defs><clipPath id="dclip0"><path d="M0 0h30v30H0z"/></clipPath></defs></symbol><symbol viewBox="0 0 14 14" id="close" xmlns="http://www.w3.org/2000/svg"><path d="M8.238 7l5.505-5.504A.875.875 0 1012.505.258L7 5.763 1.495.258A.875.875 0 10.257 1.496L5.762 7 .257 12.506a.875.875 0 101.238 1.238L7 8.239l5.505 5.505a.873.873 0 001.238 0 .875.875 0 000-1.238L8.238 7z"/><defs><clipPath id="eclip0"><path d="M0 0h14v14H0z"/></clipPath></defs></symbol><symbol viewBox="0 0 83 28" id="dd" xmlns="http://www.w3.org/2000/svg"><path d="M33.852 12.137V5.773h2.657c1.967 0 3.417 1.182 3.417 3.165 0 1.982-1.415 3.164-3.382 3.164h-2.692v.035zm4.417-3.165c0-.973-.586-1.738-1.725-1.738h-1.035v3.477h1.035c1.07 0 1.725-.8 1.725-1.739zm2.277.001c0-1.948 1.45-3.27 3.382-3.27 1.933 0 3.348 1.357 3.348 3.27 0 1.912-1.45 3.269-3.348 3.269-1.967 0-3.382-1.357-3.382-3.27zm5.073 0c0-1.044-.655-1.844-1.69-1.844-1.036 0-1.726.8-1.726 1.844 0 1.043.656 1.843 1.725 1.843 1.001 0 1.691-.835 1.691-1.843zm6.143 3.164l-1.07-2.121h-.828v2.121h-1.622V5.773h3.14c1.38 0 2.174.939 2.174 2.121 0 1.113-.656 1.704-1.242 1.913l1.277 2.33h-1.829zm.172-4.243c0-.417-.345-.66-.794-.66h-1.276V8.59h1.276c.415 0 .794-.244.794-.696zm2.278 1.079c0-1.948 1.45-3.27 3.382-3.27 1.933 0 3.348 1.357 3.348 3.27 0 1.912-1.45 3.269-3.348 3.269-1.932 0-3.382-1.357-3.382-3.27zm5.108 0c0-1.044-.656-1.844-1.69-1.844-1.037 0-1.727.8-1.727 1.844 0 1.043.656 1.843 1.726 1.843 1 0 1.691-.835 1.691-1.843zm6.83 3.164V9.598h-2.622v2.54h-1.622V5.772h1.622v2.4h2.622V5.808h1.622v6.33H66.15zm2.59-3.164c0-1.948 1.45-3.27 3.381-3.27 1.934 0 3.348 1.357 3.348 3.27 0 1.912-1.449 3.269-3.348 3.269-1.932 0-3.38-1.357-3.38-3.27zm5.072 0c0-1.044-.655-1.844-1.725-1.844-1.035 0-1.726.8-1.726 1.844 0 1.043.656 1.843 1.726 1.843 1.07 0 1.725-.835 1.725-1.843zm4.073 3.164l-2.38-6.364h1.827l1.553 4.59 1.552-4.59h1.83l-2.38 6.33h-2.002v.034zm-44.033 9.495v-6.33h2.657c1.967 0 3.417 1.183 3.417 3.165s-1.415 3.165-3.382 3.165h-2.692zm4.417-3.165c0-.974-.586-1.739-1.725-1.739h-1.035v3.478h1.035c1.07 0 1.725-.8 1.725-1.739zm2.624 3.165v-6.33h4.59v1.426H42.48v.974h2.933v1.426H42.48v1.078h3.002v1.426h-4.59zm5.314-.87l.862-1.217a2.815 2.815 0 002.002.835c.552 0 .897-.21.897-.522 0-.87-3.554-.174-3.554-2.608 0-1.078.897-2.018 2.519-2.018 1 0 1.898.314 2.553.87l-.897 1.182c-.518-.452-1.208-.66-1.829-.66-.483 0-.69.174-.69.452 0 .8 3.554.208 3.554 2.573 0 1.287-.931 2.122-2.622 2.122-1.277 0-2.174-.418-2.795-1.009zm6.35.87v-6.33h1.622v6.33h-1.622zm2.588-3.165c0-2.017 1.517-3.269 3.415-3.269 1.415 0 2.243.765 2.692 1.53l-1.346.695c-.24-.417-.724-.8-1.346-.8-1.035 0-1.76.8-1.76 1.844 0 1.043.726 1.843 1.76 1.843.45 0 .932-.174 1.174-.382v-.487H58.32v-1.426h3.037v2.539c-.69.765-1.587 1.252-2.796 1.252-1.863-.035-3.416-1.322-3.416-3.34zm11.628 3.165l-2.657-3.652v3.687h-1.622v-6.365h1.656l2.554 3.478v-3.478h1.622v6.33h-1.553zM10.767 0H0v27.37h10.835c9.11 0 14.977-5.39 14.977-13.703C25.777 5.357 19.912 0 10.766 0zm-.277 21.875H5.694V5.877h4.865c5.625 0 9.559 2.226 9.559 7.825 0 4.487-3.589 8.173-9.628 8.173z"/><path d="M11.596 10.433h-1.242v6.504h1.242c2.45 0 3.9-1.496 3.9-3.339-.035-2.26-1.623-3.165-3.9-3.165z"/></symbol><symbol viewBox="0 0 10 10" id="email" xmlns="http://www.w3.org/2000/svg"><path d="M9.121 1.191H.88a.869.869 0 00-.377.088l4.479 4.479 1.003-.965L9.498 1.28a.869.869 0 00-.377-.089zm.791.503L6.606 5l3.306 3.306A.869.869 0 0010 7.93V2.07a.869.869 0 00-.088-.376zm-9.824 0A.869.869 0 000 2.07v5.86c0 .135.033.262.088.376L3.394 5 .088 1.694z"/><path d="M6.191 5.414l-1.003.965a.292.292 0 01-.415 0l-.964-.965L.502 8.72a.869.869 0 00.377.089H9.12a.869.869 0 00.377-.088L6.19 5.414z"/><defs><clipPath id="gclip0"><path d="M0 0h10v10H0z"/></clipPath></defs></symbol><symbol viewBox="0 0 8 10" id="marker" xmlns="http://www.w3.org/2000/svg"><path d="M3.622 0a3.626 3.626 0 013.621 3.622c0 2.478-3.24 6.116-3.379 6.27a.326.326 0 01-.485 0C3.24 9.738-.001 6.1-.001 3.622A3.626 3.626 0 013.623 0zm0 5.444a1.824 1.824 0 001.822-1.822 1.824 1.824 0 00-1.822-1.823 1.824 1.824 0 00-1.823 1.823c0 1.004.818 1.822 1.823 1.822z"/></symbol><symbol viewBox="0 0 10 10" id="p1" xmlns="http://www.w3.org/2000/svg"><path d="M1.412 5.196l6.905 4.762a.238.238 0 00.373-.196V.238a.238.238 0 00-.373-.196L1.412 4.804a.238.238 0 000 .392z"/><defs><clipPath id="iclip0"><path transform="rotate(-180 5 5)" d="M0 0h10v10H0z"/></clipPath></defs></symbol><symbol viewBox="0 0 10 10" id="p2" xmlns="http://www.w3.org/2000/svg"><path d="M8.588 4.804L1.683.042a.24.24 0 00-.373.196v9.524a.238.238 0 00.373.196l6.905-4.762a.238.238 0 000-.392z"/><defs><clipPath id="jclip0"><path d="M0 0h10v10H0z"/></clipPath></defs></symbol><symbol viewBox="0 0 10 10" id="phone" xmlns="http://www.w3.org/2000/svg"><path d="M7.104 0H2.896a.728.728 0 00-.727.728v8.544c0 .402.325.728.727.728h4.208a.728.728 0 00.728-.728V.728A.728.728 0 007.104 0zM3.962.442h2.077c.053 0 .095.079.095.176 0 .097-.042.175-.095.175H3.962c-.053 0-.095-.078-.095-.175 0-.097.042-.176.095-.176zM5 9.281a.465.465 0 11.002-.93.465.465 0 01-.002.93zm2.286-1.592H2.714v-6.46h4.572v6.46z"/></symbol><symbol viewBox="0 0 9 10" id="ruble" xmlns="http://www.w3.org/2000/svg"><path d="M1.26 10V8.502H.14V7.144h1.12V6.052H.14V4.316h1.12V.004h3.192c1.288 0 2.226.261 2.814.784.597.523.896 1.241.896 2.156 0 .541-.121 1.05-.364 1.526s-.649.859-1.218 1.148c-.56.29-1.325.434-2.296.434h-.91v1.092H5.53v1.358H3.374V10H1.26zm2.114-5.684h.7c.597 0 1.069-.103 1.414-.308.355-.205.532-.537.532-.994 0-.85-.56-1.274-1.68-1.274h-.966v2.576z"/></symbol></svg>