<?xml version="1.0" standalone="no"?>
<!DOCTYPE svg PUBLIC "-//W3C//DTD SVG 20010904//EN"
 "http://www.w3.org/TR/2001/REC-SVG-20010904/DTD/svg10.dtd">
<svg version="1.0" xmlns="http://www.w3.org/2000/svg"
 width="100.000000pt" height="100.000000pt" viewBox="0 0 100.000000 100.000000"
 preserveAspectRatio="xMidYMid meet">
<metadata>
Created by potrace 1.11, written by Peter Selinger 2001-2013
</metadata>
<g transform="translate(0.000000,100.000000) scale(0.100000,-0.100000)"
fill="#000000" stroke="none">
<path d="M683 800 c-26 -10 -31 -40 -8 -40 8 0 15 6 15 13 0 8 6 14 13 14 6 0
21 4 32 7 11 4 8 0 -7 -9 -16 -8 -28 -20 -28 -26 0 -11 38 -8 59 5 9 6 12 5 7
-2 -3 -6 -2 -13 4 -17 19 -12 10 -33 -18 -38 -19 -4 -28 -12 -29 -28 -1 -12
-8 -26 -15 -30 -9 -6 -6 -9 10 -9 18 0 22 4 17 18 -4 16 0 19 25 20 30 1 31 0
24 -36 -13 -73 -73 -100 -109 -49 -13 18 -16 19 -38 5 -16 -11 -37 -14 -69
-11 -81 9 -130 -4 -178 -47 -24 -22 -52 -40 -62 -40 -9 0 -19 -4 -23 -9 -3 -5
-22 -15 -43 -21 -20 -7 -48 -23 -62 -36 -14 -12 -38 -28 -55 -34 -26 -10 -31
-8 -48 12 -11 13 -8 4 7 -23 29 -52 31 -60 13 -53 -22 8 -61 89 -53 110 6 16
9 16 16 4 8 -13 10 -12 10 3 0 9 -6 17 -14 17 -18 0 -30 -33 -21 -59 4 -14 -1
-20 -25 -24 -24 -5 -30 -12 -30 -32 0 -14 7 -39 15 -55 11 -22 21 -28 44 -28
17 1 30 4 29 7 -1 14 15 51 23 51 18 0 21 -24 3 -37 -18 -13 -17 -14 11 -11
26 3 30 -1 33 -24 2 -15 11 -30 21 -33 21 -6 51 3 51 16 0 5 5 9 10 9 6 0 9
-3 8 -8 -2 -4 0 -8 5 -9 17 -6 26 -2 30 14 4 17 5 17 6 1 1 -14 11 -18 44 -19
95 -3 102 3 87 76 -5 21 0 65 8 65 4 0 7 -27 8 -60 0 -74 19 -100 59 -82 24
11 36 54 17 66 -13 8 -35 -11 -28 -23 4 -6 3 -11 -3 -11 -5 0 -9 13 -9 30 1
25 5 30 25 30 19 0 23 5 23 30 0 18 -6 33 -15 36 -18 7 -20 26 -2 23 38 -5 45
0 34 26 -7 14 -16 25 -20 25 -5 0 -6 4 -3 8 2 4 1 14 -4 22 -6 9 -12 0 -20
-31 -6 -24 -19 -50 -28 -56 -24 -19 -62 -16 -63 5 0 15 -2 14 -10 -3 -7 -15
-8 -12 -4 14 3 23 -1 43 -11 60 -11 16 -13 26 -6 29 5 1 22 14 37 28 37 34 69
45 122 43 50 -3 55 -11 54 -99 l0 -60 42 1 c23 0 36 3 30 6 -19 7 -16 50 5 63
14 8 12 9 -10 4 -26 -6 -28 -4 -28 29 0 19 3 43 7 52 5 15 8 14 20 -6 14 -24
14 -24 10 -1 -6 27 -3 27 33 1 15 -12 40 -21 54 -21 31 0 31 0 7 -38 l-19 -31
-38 33 c-22 18 -31 24 -22 13 9 -11 17 -24 17 -29 0 -14 59 -37 63 -25 5 15
37 0 49 -23 8 -16 8 -23 -2 -29 -27 -16 0 -20 31 -4 25 13 31 21 26 38 -22 76
-22 75 24 67 42 -8 96 -41 93 -57 0 -4 5 -14 13 -21 18 -16 18 -8 -1 27 -15
30 -69 61 -104 61 -12 0 -38 7 -57 15 l-36 15 4 -35 c4 -31 2 -35 -20 -35 -24
0 -24 1 -8 25 9 13 16 31 16 40 0 8 5 15 11 15 6 0 8 7 5 16 -3 8 1 25 9 38 9
13 17 47 19 77 4 48 2 55 -26 81 -31 29 -71 35 -115 18z m-326 -330 c3 -11 10
-17 16 -13 7 4 8 0 4 -11 -4 -10 -7 -23 -7 -29 0 -7 -10 3 -21 21 -12 17 -28
32 -36 32 -8 0 -11 5 -8 10 11 18 47 11 52 -10z m-19 -41 c11 -19 11 -30 1
-54 -10 -26 -13 -27 -17 -10 -10 45 -62 40 -62 -6 0 -16 -4 -29 -8 -29 -4 0
-6 -17 -4 -37 3 -21 1 -35 -2 -32 -4 4 -7 30 -8 58 0 54 -19 87 -44 77 -41
-16 15 38 61 58 35 17 65 8 83 -25z m-178 -59 c-7 -26 -6 -30 10 -30 10 0 20
8 22 18 2 11 6 13 11 6 8 -13 -33 -64 -51 -64 -7 0 -12 3 -13 8 0 4 -2 21 -4
37 -3 20 1 34 12 43 23 16 23 16 13 -18z m-97 0 c-30 -12 -29 -18 0 -13 35 7
34 -33 -1 -46 l-27 -11 28 5 c32 6 35 0 6 -15 -15 -9 -24 -8 -35 1 -21 17 -17
26 14 38 27 11 27 11 -5 5 -28 -5 -33 -3 -33 14 0 26 8 32 44 31 29 0 29 -1 9
-9z m424 -25 c0 -8 -4 -15 -9 -15 -10 0 -11 14 -1 23 9 10 10 9 10 -8z m-147
-57 c0 -62 -6 -60 -13 5 -4 27 -2 47 4 47 5 0 9 -23 9 -52z m-140 -13 c0 -14
-2 -25 -4 -25 -2 0 -6 11 -8 25 -3 14 -1 25 3 25 5 0 9 -11 9 -25z"/>
<path d="M647 743 c-3 -5 -2 -35 1 -68 6 -57 7 -58 12 -21 3 23 11 41 20 43
13 4 13 3 0 -6 -12 -9 -11 -11 8 -11 13 0 22 6 22 15 0 10 -10 15 -26 15 -21
0 -25 4 -21 20 5 19 -7 28 -16 13z"/>
<path d="M712 613 c-13 -5 -7 -23 9 -23 6 0 8 4 4 9 -3 5 3 12 12 14 12 3 13
5 3 5 -8 0 -21 -2 -28 -5z"/>
<path d="M888 446 c-10 -7 -18 -19 -18 -27 0 -9 6 -7 18 7 9 12 24 24 32 27
13 5 13 5 0 6 -8 0 -23 -6 -32 -13z"/>
<path d="M896 398 c-9 -20 -15 -26 -15 -15 -1 20 -5 21 -32 7 -14 -8 -19 -22
-20 -53 -1 -23 -5 -53 -9 -67 -9 -29 -9 -31 -16 40 -8 74 -18 91 -46 81 -13
-5 -23 -17 -24 -32 -6 -83 -9 -97 -15 -94 -3 3 -5 32 -4 65 2 62 2 62 -45 62
-11 0 -24 0 -30 -1 -6 -1 -10 -30 -10 -65 0 -36 -4 -68 -10 -71 -5 -3 -7 0 -4
9 3 8 1 24 -5 35 -7 13 -8 22 -1 26 6 3 9 20 8 36 -3 42 -35 40 -41 -3 l-4
-33 -1 33 c-2 25 -6 32 -22 32 -18 0 -20 -7 -20 -80 0 -72 2 -80 19 -80 15 0
21 8 24 33 l4 32 1 -31 c2 -27 6 -32 32 -36 46 -7 59 9 63 77 l3 60 2 -70 2
-71 39 4 c26 3 41 10 44 20 4 15 5 15 6 0 1 -11 9 -18 21 -18 11 0 20 -7 20
-15 0 -8 7 -15 15 -15 8 0 15 7 15 15 0 18 47 17 54 -2 15 -39 23 0 22 102 0
63 -2 115 -3 115 -2 0 -9 -15 -17 -32z m-17 -88 c-2 -27 -6 -50 -11 -50 -4 0
-6 10 -4 23 3 12 5 34 5 50 1 15 3 27 6 27 4 0 5 -22 4 -50z"/>
<path d="M941 404 c0 -11 3 -14 6 -6 3 7 2 16 -1 19 -3 4 -6 -2 -5 -13z"/>
<path d="M985 399 c-4 -6 -5 -12 -2 -15 2 -3 7 2 10 11 7 17 1 20 -8 4z"/>
<path d="M950 360 c-6 -11 -16 -17 -22 -14 -7 4 -8 3 -4 -4 4 -7 14 -12 23
-12 9 0 13 3 10 6 -3 4 -2 15 4 25 5 11 7 19 5 19 -3 0 -10 -9 -16 -20z"/>
</g>
</svg>
