<svg width="154" height="95" viewBox="0 0 154 95" fill="none" xmlns="http://www.w3.org/2000/svg">
<path fill-rule="evenodd" clip-rule="evenodd" d="M82.1006 64.2712H87.652L87.6911 74.9831C88.7076 74.944 89.2549 74.2794 89.294 72.9111L89.4113 67.9461C89.4503 66.1087 89.724 64.8967 90.3104 64.2321H95.4318C94.9236 64.8576 94.689 66.1087 94.689 68.0634L94.7281 72.4029C94.7281 75.0222 93.5162 76.5469 91.0141 76.8987C93.5162 77.2506 94.7672 78.7753 94.7281 81.4728L94.689 85.4995C94.689 87.4151 94.9236 88.7834 95.4318 89.6044H90.3104C89.724 88.9789 89.4113 87.7279 89.4113 85.8905V80.9255C89.4113 80.3 89.2549 79.7917 88.9421 79.4008C88.6294 79.0098 88.1993 78.8144 87.7302 78.8144L87.6911 89.5653H82.1397V64.2712H82.1006ZM110.053 89.6826H104.502V69.3535H102.899V83.7403C102.899 85.6168 102.703 86.9851 102.273 87.8061C101.843 88.6271 101.257 89.1353 100.397 89.3699C99.5758 89.5653 98.2466 89.6826 96.4092 89.6826H95.5491V85.304C96.2137 85.304 96.6828 85.1868 96.9565 84.9913C97.2301 84.7958 97.3474 84.1312 97.3474 82.9584V64.2712H110.053V89.6826ZM121.781 64.2712L124.948 89.6826H119.319L119.006 85.1086H117.012L116.699 89.6826H110.991L113.806 64.2712H121.781ZM118.849 80.6127C118.576 77.7197 118.302 74.1621 118.028 69.9008C117.481 74.7876 117.129 78.3452 116.973 80.6127H118.849ZM141.72 94.0612C140.43 94.0612 139.179 94.0612 137.888 94.0612C137.888 92.6147 137.888 91.1682 137.888 89.6826C134.917 89.6826 131.946 89.6826 128.975 89.6826C128.975 91.1291 128.975 92.5756 128.975 94.0612C127.685 94.0612 126.434 94.0612 125.144 94.0612C125.144 90.8555 125.144 87.6106 125.144 84.4049C125.535 84.4049 125.886 84.4049 126.277 84.4049C126.864 82.3329 127.372 79.5962 127.763 76.195C128.154 72.7938 128.349 69.0798 128.349 65.0922C128.349 64.8185 128.349 64.584 128.349 64.3103C130.46 64.3103 132.532 64.3103 134.644 64.3103C134.761 64.7013 134.683 65.0531 134.917 65.7177C135.152 66.1478 135.035 66.5778 135.504 67.2424C135.973 67.5552 136.52 68.337 137.146 68.4934C137.654 68.5325 138.592 67.1642 138.983 67.1642C138.827 68.2198 139.413 67.7506 139.257 68.5716C139.218 69.0798 138.436 70.6045 139.022 71.23C139.491 71.6601 140.312 72.6765 140.586 72.6765C140.586 77.0551 140.586 80.0263 140.586 84.4049C140.977 84.4049 141.329 84.4049 141.72 84.4049C141.72 87.5715 141.72 90.8164 141.72 94.0612ZM135.035 84.3658V69.3144H133.393V69.5099C133.393 74.3576 132.963 79.3226 132.063 84.3658H135.035Z" fill="#E80D0D"/>
<path fill-rule="evenodd" clip-rule="evenodd" d="M13.3333 81.4339C13.8416 81.2384 14.1543 81.1211 14.428 81.0429C14.858 80.8865 15.249 80.6911 15.6399 80.4956C16.0699 80.261 16.2263 80.2219 16.5782 79.8701L16.6955 79.7528C17.3601 79.2837 19.7839 79.44 20.6831 79.2055C20.5658 79.2446 20.4876 79.3228 20.4094 79.4009L20.8004 79.1273C21.3086 78.9709 21.7386 79.2837 21.5432 79.7919C21.1913 80.8083 17.9465 80.8865 17.0473 81.3166C17.0864 81.3166 17.0473 81.3166 17.0864 81.2775C16.7346 81.5511 16.3827 81.6684 15.9527 81.7857C15.249 81.9812 14.9362 81.9812 14.3889 82.1376C14.2325 82.1767 14.1152 82.2157 13.9588 82.2939C13.8807 82.333 13.8416 82.333 13.7634 82.3721C13.6852 82.4112 13.5679 82.4503 13.4897 82.4503C12.4342 82.7631 11.3786 82.9585 10.6749 83.0367H10.3231C9.73664 83.0758 8.6029 83.4668 8.21196 83.2322C7.86011 83.0367 7.9383 82.9585 7.43007 82.7631C6.76546 82.5285 5.0844 82.0985 4.65436 81.7466C4.26342 81.3948 3.91157 80.3001 3.40334 79.7137C3.16877 79.44 2.89511 79.2446 2.62145 78.9709C2.34779 78.6972 2.11322 78.5018 1.95684 78.3063C1.64409 78.0326 1.5268 77.759 1.5268 77.368C1.48771 77.1335 1.48771 76.8598 1.48771 76.5079C1.5659 75.3742 1.37043 75.1396 0.979482 74.7487C0.471254 74.2796 -0.0369745 73.9668 0.00211997 72.9504L0.0412146 72.7158C0.0803091 72.5594 0.119404 72.4421 0.158498 72.2857C0.275782 71.8166 0.471254 71.3475 0.549443 70.8392C0.588538 70.2528 0.549443 70.2919 0.314876 69.7837C0.0803094 69.0409 0.0803091 69.0018 0.432159 68.2199C0.627632 67.7899 0.979482 67.0471 1.40952 66.4998C1.5268 66.3434 1.68318 66.187 1.80047 66.0306C2.85602 65.366 5.59263 65.0142 6.84365 64.8969C7.50826 64.8578 8.17286 64.8969 8.83747 64.8578C8.87656 64.7405 8.83747 64.7796 8.91566 64.4668C9.15022 63.1376 9.03294 62.1603 8.52471 60.9874L8.44653 60.8701C7.86011 59.9319 7.54735 59.6973 7.31279 58.5636C7.1955 57.3907 7.62554 56.1006 8.25105 54.9669C9.22841 53.1294 10.5185 52.0348 12.8642 52.1912C13.8807 52.2694 14.037 52.5039 14.1152 53.4031C14.1152 54.9278 13.8416 58.1335 14.2716 59.4628C14.6625 60.3228 14.9753 60.3619 15.4835 61.0656C15.6399 61.3784 15.5617 61.222 15.679 61.5739C15.9136 62.2385 16.0309 62.473 16.4218 63.0594C17.1646 64.1541 18.6111 65.3269 19.0802 66.4216C19.393 67.3598 19.7448 68.259 20.0576 69.1973C20.5658 70.4092 20.9958 71.6602 21.3477 72.5985C21.3477 72.6376 21.6605 73.3022 21.5823 73.4586L21.465 73.615C21.074 73.7322 20.9958 73.7713 20.8786 73.4586C20.4485 72.403 20.0576 71.2693 19.6666 70.1746C19.0802 68.7672 18.4547 67.3989 18.0638 66.8516C17.0864 65.5224 15.3272 64.1932 14.6625 62.7467C14.4671 62.3557 14.4671 61.8866 14.2325 61.613C12.8642 60.0492 12.9815 59.7755 13.0206 57.7035C13.0206 56.9216 13.1379 53.9895 12.9815 53.4031C12.6687 53.2858 11.4959 53.4422 11.1831 53.5986C9.69755 54.3805 8.48562 56.9998 8.44653 58.2899C8.52471 59.1891 8.99385 60.1665 9.61936 60.8311C9.93212 61.1438 10.7531 61.5739 10.5967 61.9648C10.4794 62.2385 10.284 62.2775 10.0103 62.2385C10.0885 62.5512 10.1276 62.864 10.1667 63.2549V63.5286C10.2058 64.115 10.1276 64.4278 10.0494 64.8969H10.0885C11.3395 65.0142 11.6523 64.8969 12.5514 65.6006H12.5124C13.5288 66.3043 13.7243 67.2035 13.9198 68.3372C13.9588 68.3763 13.9198 68.3372 13.9979 68.3763C14.5453 68.8845 14.6235 69.4318 14.7798 70.1355C14.8189 70.5656 14.858 70.722 14.7407 71.0347C15.1708 71.3084 15.1708 71.7384 15.4053 72.1294C16.4609 72.4812 17.2819 72.8331 18.2201 73.3804C18.6502 73.654 19.1975 74.0059 19.393 74.475C19.5494 74.866 19.2757 75.2569 18.8066 75.1787C18.6111 75.1787 18.572 75.1005 18.4938 74.9833C18.4938 74.9833 18.4938 74.9833 18.4938 75.0224C17.9074 74.3968 16.6173 73.8495 15.679 73.4977C15.679 73.8104 15.6008 74.0841 15.3662 74.5141C15.4444 74.6705 15.5226 74.9051 15.5226 75.0224C15.8745 76.938 15.4444 77.9935 13.607 79.5182C12.9815 79.9874 12.8251 80.1046 12.1996 80.4565C12.1605 80.4565 12.1605 80.4956 12.1214 80.4956H12.0823C12.0432 80.4956 12.0041 80.5347 11.965 80.5347C11.8087 80.6129 11.6132 80.7302 11.4568 80.8083C11.3395 80.9256 11.1831 81.0429 11.0268 81.082C10.9095 81.1602 10.7922 81.1993 10.6749 81.2384C10.6358 81.3166 10.5576 81.3557 10.4794 81.4339C10.284 81.5902 10.1276 81.6293 10.0103 81.6293C9.93212 81.6293 9.85393 81.6684 9.81483 81.6293C9.77574 81.6293 9.73664 81.6684 9.69755 81.6684L9.58026 81.7075C9.18932 81.8248 8.56381 81.8639 8.6029 81.3948C8.642 81.082 8.95475 81.0038 9.22841 80.8865C10.1667 80.4565 11.1049 79.9483 12.0041 79.3619C13.5679 78.3063 14.5062 77.4071 14.3889 75.7652C14.3498 75.6088 14.3498 75.4524 14.3107 75.296C13.9198 75.6088 13.4897 75.8824 13.0597 76.1952C11.8477 77.0553 8.99385 78.1499 7.50826 78.6581C7.15641 78.9709 6.13995 79.8701 5.74901 79.2837L5.70991 79.1273H5.67082C5.35806 79.1273 5.16259 79.01 5.1235 78.8145C5.00621 78.4627 5.43625 78.2672 5.7881 78.1499C6.33542 77.9935 6.80456 77.8372 7.35188 77.6026C8.05558 77.2898 8.75928 77.0162 9.46298 76.7034C10.2058 76.3907 11.535 75.8433 12.1605 75.4524C12.5905 75.2178 14.1152 74.2796 14.3107 73.8495C14.428 73.3022 14.3498 72.9894 14.2325 72.5203C14.1152 72.1294 14.1934 72.2857 13.9979 71.973C13.9588 71.9339 13.9588 71.9339 13.9198 71.8948C13.2942 72.2466 12.786 72.3248 12.0432 72.5985C11.3395 72.8722 10.6358 73.1458 9.93211 73.4195C9.15023 73.6931 8.40743 73.9277 7.62554 74.1623C6.84365 74.3968 6.13995 74.5923 5.39716 74.7878C5.16259 75.0614 4.88893 75.2569 4.53708 75.4524C4.18523 75.6479 3.75519 75.5697 3.677 75.2569C3.59881 75.1396 3.63791 75.0224 3.677 74.9442C3.59881 74.9051 3.55972 74.866 3.52062 74.7878C3.32515 74.3968 3.83338 74.0841 4.22432 73.9668C4.88893 73.8104 5.43625 73.6931 6.13995 73.4586C6.4918 73.3413 6.84365 73.224 7.1955 73.1067C7.70373 72.9504 7.86011 73.0676 8.17286 72.9504C8.40743 72.7158 8.642 72.6376 8.95475 72.5203C9.89302 72.2076 11.1049 71.7384 12.0823 71.4648C12.5905 71.3475 13.1379 71.152 13.607 70.9174C13.6852 70.6829 13.6852 70.4874 13.6461 70.2528C13.607 69.9401 13.4897 69.2364 13.1379 69.1191C12.0823 68.7672 10.8313 68.9627 9.65845 69.1973C8.642 69.4318 7.66464 69.5882 6.64818 69.7837C6.13995 69.901 5.63172 70.0183 5.0844 70.1355C4.73255 70.2137 3.44243 70.5656 3.20787 70.5265C2.89511 70.4483 2.85602 70.2919 2.85602 70.1355C2.85602 70.1746 2.85602 70.2137 2.89511 70.2528L2.85602 70.0574C2.85602 70.0183 2.89511 69.9401 2.89511 69.901C2.85602 69.9401 2.85602 69.9792 2.85602 70.0183V69.9792C2.89511 69.8228 3.01239 69.7055 3.16877 69.5882L3.12968 69.3537L3.32515 69.08C3.75519 68.7281 4.3807 68.8845 4.81074 69.08C6.41361 68.689 7.8992 68.259 9.50208 67.9853C10.714 67.7899 11.6132 67.6726 12.5905 67.829C12.4733 67.5162 12.3169 67.2426 12.1214 66.9689L11.8868 66.7734C11.4177 66.3434 11.6914 66.3434 10.8313 66.2652C9.65845 66.187 8.6029 66.1479 7.39097 66.2652C6.06176 66.3825 4.02885 66.4998 2.77783 66.9689C2.50417 67.2035 2.15232 67.8681 1.99594 68.1417C1.5268 69.08 1.48771 68.9627 1.83956 69.7837C2.19141 70.6438 1.99594 71.2693 1.68318 72.2076C1.44862 73.1458 1.44862 73.3022 2.11322 74.0059C2.34779 74.2796 2.58235 74.475 2.73873 74.7878C3.32515 75.8042 2.85602 76.3907 3.01239 77.2117C3.12968 77.8372 4.22432 78.6191 4.73255 79.1664C5.04531 79.5573 5.20168 79.7919 5.43625 80.2219C5.94448 81.2384 5.67082 81.0429 6.80456 81.4339C7.1955 81.5511 7.54735 81.6684 7.9383 81.7857C8.6029 82.0203 8.75928 82.0594 9.18932 82.3721C9.69755 82.2939 10.1667 82.1376 10.7531 82.0985C11.6132 82.0594 12.5905 81.8639 13.4897 81.5902C13.2551 81.4339 13.2942 81.4339 13.3333 81.4339ZM4.96712 78.8145C5.00621 78.8927 5.04531 78.9318 5.1235 78.9709L4.96712 78.8145ZM3.44243 75.2569C3.48153 75.3351 3.52062 75.3742 3.59881 75.4133L3.44243 75.2569ZM2.62145 70.0964C2.62145 70.0574 2.62145 70.0574 2.62145 70.0183V69.9792C2.62145 70.0183 2.62145 70.0574 2.62145 70.0964ZM2.9342 70.4092C2.9733 70.4092 3.01239 70.4092 3.05149 70.4092C3.05149 70.4483 2.9733 70.4483 2.9342 70.4092ZM9.07204 82.333C9.07204 82.333 9.11113 82.3721 9.15023 82.3721C9.11113 82.3721 9.11113 82.333 9.07204 82.333Z" fill="#31305C"/>
<path fill-rule="evenodd" clip-rule="evenodd" d="M126.278 19.8209C125.965 19.43 126.16 19.6645 125.691 19.3909L125.848 18.5699C125.965 17.9444 126.16 17.9053 126.317 17.4361C126.512 16.9279 126.278 17.1625 126.63 16.4588L127.138 14.9732C127.333 14.2695 127.06 14.3477 126.864 13.7222C126.747 13.253 126.864 12.7448 126.864 12.432C126.825 11.8065 126.59 11.7674 126.669 10.9855C126.786 10.0082 127.255 10.0864 126.395 8.36622L125.965 7.23248C125.926 7.15429 125.691 6.88062 125.574 6.76334C125.574 6.72425 125.535 6.72425 125.496 6.68515C125.496 6.64606 125.457 6.64606 125.418 6.60696C125.418 6.56787 125.378 6.56787 125.339 6.52878C124.479 5.55141 124.831 5.47322 123.502 4.65224C122.095 3.79216 122.681 3.83126 121.586 3.28393C119.319 2.18929 120.844 2.54114 119.358 1.4074C117.833 0.234563 115.918 0.351849 114.667 0.27366C113.65 0.195471 114.119 0.0390945 112.751 0H111.5C109.975 0.0781889 106.222 1.05555 104.815 1.56378C104.424 1.72016 103.994 1.91563 103.642 2.1111L102.469 2.93209C102.117 3.20575 102.469 2.89299 102.235 3.12756L101.414 4.02673C101.374 4.14401 101.257 4.61314 101.257 4.73043C101.179 5.31684 101.218 5.90326 101.374 6.29421L101.883 7.15428C100.827 8.56169 98.6379 8.87444 97.9342 10.7901C99.2634 9.96909 100.045 8.87444 101.531 8.17074C102.469 7.7407 102.508 7.34976 103.603 7.81889C103.994 7.97527 104.424 8.13165 104.815 7.97527C104.854 7.97527 104.893 7.93617 104.932 7.93617C105.479 7.58432 105.01 7.50613 104.698 7.15428C105.128 7.23247 105.831 7.34976 106.183 7.58433C107.747 8.56169 107.239 7.93618 108.802 8.36622C110.327 8.75716 111.187 8.17074 111.813 8.20984C113.259 8.28803 115.175 8.56169 116.426 7.85799L117.09 8.91354C117.677 10.0473 118.772 10.8683 119.593 11.6111C120.609 12.4711 120.14 13.0966 120.257 13.9567C120.296 14.3086 120.57 14.6995 120.609 15.2859C120.648 15.716 120.648 16.3415 120.609 16.7715C120.179 16.6151 119.436 16.0678 118.967 15.8333C118.302 15.4814 115.761 16.1069 114.276 16.3024C114.08 16.3415 113.416 16.4979 113.142 16.5761C112.595 16.7715 112.751 16.8106 112.399 17.1234C111.07 16.7715 111.735 15.8724 110.953 15.5596C110.405 16.9279 111.93 17.5143 111.813 18.4135C111.735 18.9608 111.813 18.4917 111.656 18.8435L111.148 20.7983C111.07 21.111 110.992 21.111 110.874 21.3847C110.366 22.6748 111.891 22.9875 110.64 24.2777C109.663 25.255 108.568 24.5122 107.708 24.0822C107.903 24.9032 108.763 25.6851 109.272 26.3497H110.835C111.031 25.9978 111.187 25.5678 111.813 25.8024C112.438 26.076 111.735 26.2324 113.142 26.1933C113.572 25.0596 113.533 24.9032 113.337 23.6912C112.673 23.3785 112.986 24.004 112.79 23.4176C112.477 21.6192 112.556 21.3847 112.673 19.7036C113.807 19.9773 113.064 20.0946 114.315 19.7036C114.745 20.4073 114.979 20.4464 116.074 20.5637C117.911 20.7201 116.934 20.0164 118.068 19.9773C117.99 20.8374 117.716 20.29 117.833 21.2283C119.123 21.0328 118.224 21.1501 118.811 20.29C119.006 20.0164 119.553 19.7818 120.023 19.8991C120.883 20.0946 121.704 20.9155 121.782 21.6974C121.821 22.362 121.508 24.395 121.313 24.7859L120.804 25.255C120.687 25.3332 120.413 25.5678 120.335 25.646L119.71 26.2715C119.671 26.3106 119.671 26.3497 119.632 26.3497C119.632 26.3497 119.553 26.467 119.553 26.4279C119.553 26.3888 119.514 26.5061 119.475 26.5061C119.671 26.8579 120.296 27.2098 120.335 27.3661C120.374 28.4608 120.257 29.6336 120.101 30.5328C119.827 31.9402 119.983 31.9011 119.202 32.8784C118.732 33.4649 117.13 34.6768 116.543 35.185C116.152 35.5369 115.722 36.0451 115.292 36.3579C113.807 37.257 114.08 38.5081 111.226 37.6871C110.992 37.6089 110.757 37.5307 110.562 37.4916C109.858 37.2961 109.232 37.1398 108.451 37.1398C107.825 37.1398 107.395 37.1788 106.887 37.0225C106.222 36.827 106.379 36.6315 105.792 36.827C105.714 36.2015 105.206 35.9278 104.893 35.4587C104.463 34.7941 104.189 33.8949 103.642 33.2694C101.844 31.2365 102.43 31.7447 101.805 29.5945C101.414 28.3435 101.531 27.0143 101.726 25.6851C101.883 24.5122 101.648 24.9032 101.531 23.9258C101.257 21.3847 101.57 20.2118 101.844 17.8662C102.039 16.3024 101.453 12.5884 101.883 11.6501C102.235 10.8292 103.486 9.57814 103.642 8.91354L100.045 10.2037C99.6934 10.36 99.6543 10.5555 99.3025 10.7901L98.9115 10.9465C98.5597 11.1028 98.3251 11.4938 98.0124 11.3765L97.9733 11.3374L97.8169 11.3765C97.6605 11.5329 97.6996 11.572 97.6605 11.7674V12.0411C97.8951 12.1975 97.8951 12.1584 98.0515 12.3539L98.3642 12.7839C98.677 12.432 99.3025 11.4156 99.6152 11.2983C99.6152 11.2983 99.9671 11.2592 100.163 11.3374C99.3025 12.5102 99.4198 12.8621 98.5988 13.2921C98.9506 14.2695 98.2469 13.8785 99.1461 15.2859C99.4979 15.8724 99.8498 16.4588 100.123 17.0452C100.163 17.8271 100.319 17.397 100.553 18.3353L99.7325 18.9608C99.3416 19.3518 99.4198 19.6645 99.537 20.2509L99.6934 21.1892C99.7325 21.6974 99.6934 22.2448 99.6934 22.753V27.0534C99.7716 28.1871 99.928 28.0307 100.123 28.1089L100.358 28.3826C100.984 29.2036 100.866 28.7735 100.866 30.7674C100.866 31.5883 100.749 31.7056 100.436 32.1747H99.1461C98.4815 32.2529 98.9506 32.1357 98.716 32.3702L98.1296 32.3311C97.9733 32.8003 97.3477 33.3085 96.9568 33.5822L95.4321 34.4813C95.1194 34.6768 94.1811 35.1459 93.712 35.185L92.2264 34.9896C90.428 34.7159 88.1215 34.6768 87.0659 34.4422C84.0556 33.6994 85.033 34.1686 82.4528 34.0513C80.8108 33.9731 77.0186 33.6603 75.4939 34.0904C73.1874 34.7159 70.6853 35.0677 68.3397 35.4978L65.603 36.5924C64.8993 36.7879 64.8211 36.9443 64.3911 37.257C64.0784 37.4916 64.1956 37.3743 63.9611 37.5307L63.2965 38.1562C63.1792 38.2735 63.101 38.3517 62.9446 38.5081L60.3644 41.3619C59.8562 41.9875 59.8952 41.6356 59.5043 42.3393C59.1525 42.9648 59.3479 42.8475 58.7615 43.473C58.7224 43.5121 58.7224 43.5121 58.6833 43.5512L57.0413 44.6459C57.0023 44.6459 56.9632 44.685 56.9632 44.685L54.422 46.5615C53.992 46.6788 53.7574 47.1479 53.2492 47.2261C52.7019 47.3434 52.1545 47.187 51.4899 47.3043C50.1607 47.578 48.4797 47.4998 47.3459 48.3208L46.7204 48.9854C46.2904 49.6109 45.6258 50.1191 45.2348 50.7837L44.6875 51.8002C42.8892 51.8002 41.2081 51.7611 39.6052 52.5821C38.9015 52.9339 38.0414 53.0903 37.3377 53.3249C35.6567 53.9113 34.953 54.5759 33.5847 55.436L31.9427 56.7652C31.8254 56.8434 31.669 56.9997 31.5518 57.0779L30.7308 57.6643C29.5579 58.7981 28.5806 60.0882 27.2123 60.9874C27.1732 60.9874 27.1341 61.0265 27.1341 61.0265L21.1917 63.8022C20.9571 63.8804 20.7617 63.9586 20.5662 63.9586C16.774 66.8516 16.9695 64.5059 17.3605 66.3042C18.2987 67.7116 17.9469 68.8845 20.5271 72.3639C21.1526 75.5305 20.1362 74.8268 20.2925 79.5964C20.3707 80.7692 20.4489 80.261 22.3645 79.7918C23.9283 79.44 25.5312 79.0881 27.1732 78.7363L40.0743 75.2178C41.6772 74.7095 53.5619 70.4482 54.6957 70.4091C55.4776 70.3701 55.1648 70.5655 55.673 70.8392C56.1813 71.1128 56.4549 71.0738 56.8459 70.7219C57.8232 69.94 57.706 70.5264 59.0743 70.5264C59.1915 69.119 60.5989 69.3145 61.459 68.6499C61.8891 68.3371 61.459 68.5717 62.0063 68.3371L63.101 67.5943C63.6092 67.2816 63.8829 67.4771 64.5866 67.3598C65.5248 67.2034 66.3458 66.6561 67.3623 66.5779C68.887 66.4606 70.1771 66.0306 71.389 65.3269C72.6791 64.5841 74.5166 61.261 77.8396 62.2384C79.0906 62.5902 79.1688 62.7466 80.9672 61.652C81.6709 61.2219 82.8046 61.0656 83.7038 60.831L88.2387 60.0491C88.8252 59.9709 89.4507 60.0491 90.0762 60.01L92.3437 59.6973C93.6729 59.5409 93.0083 59.4627 94.533 59.6973C95.5885 59.8536 96.8786 59.6582 97.856 59.5018C98.5206 59.3845 98.9115 59.6191 99.3807 59.6973C100.28 59.8536 101.922 59.6973 102.899 59.7364C104.658 59.8145 105.597 59.9318 107.16 60.4791C107.708 60.6746 108.06 60.6746 108.646 60.7528C108.49 59.6191 107.786 60.1664 106.574 59.7755C104.737 59.2281 98.6379 58.8372 98.4815 58.6808L97.856 53.1294C97.7778 52.6603 97.5432 51.8393 97.5432 51.4092C97.8951 51.2138 98.2469 51.1356 98.5988 50.9401C99.0679 50.6664 99.1461 50.5882 99.6934 50.3146L103.407 48.3208C104.385 47.9298 105.44 49.1027 105.558 50.08C107.512 50.1191 107.551 50.5492 108.451 50.7446C109.428 50.9792 108.959 50.7055 109.741 51.1356C110.757 51.722 111.695 51.8784 113.298 53.0121C113.611 53.2076 114.745 54.2631 115.136 54.3022C115.957 54.4195 114.393 54.3804 115.37 54.3022C115.409 54.3022 115.448 54.2631 115.488 54.2631L115.722 51.8784C115.644 50.9792 115.409 50.5101 115.292 49.7282C115.8 49.8845 115.8 49.8845 116.113 50.1973C117.012 51.0574 116.739 50.3537 118.967 51.5265C119.319 51.722 119.397 51.8002 119.788 51.9566L121.625 52.8166C122.564 53.2076 122.955 52.6994 123.306 54.9668L124.362 59.0327C124.597 59.7755 124.948 60.0882 125.222 60.6746C121.977 61.0656 122.642 60.5573 120.804 60.5573C120.844 61.0656 120.844 61.1047 121.156 61.4174C121.821 62.1211 122.407 61.7302 123.658 62.5903C124.284 62.473 126.786 61.8866 127.216 61.5738C127.646 61.3001 127.529 61.261 127.685 61.0265C128.076 60.4401 129.171 60.2446 130.343 59.5409L130.5 59.4236C131.086 59.0718 130.539 59.1499 131.36 59.1108C132.025 59.0717 132.533 59.189 133.158 59.0327C133.901 58.8763 133.823 58.6026 134.644 58.5244C134.644 59.7754 134.761 61.1047 134.566 62.3166C134.214 64.7404 134.37 65.9915 135.582 67.8289C135.739 68.0635 135.621 68.0635 136.051 68.3371C137.38 69.2363 138.241 68.5717 138.866 68.4935L138.553 70.4873C138.436 70.9956 138.632 71.4647 139.062 71.9338C140 72.9894 140.117 72.5202 140.86 72.6375C141.72 72.7548 141.955 73.5758 142.893 73.6149C143.597 73.6931 143.636 73.4585 144.183 73.3021C144.457 73.4976 144.769 74.084 145.942 73.4976C146.411 73.263 146.255 73.2239 146.802 73.0676C147.428 72.9112 147.232 73.1067 147.741 72.7157C150.008 70.9565 148.249 72.4421 149.852 69.8227C150.594 68.6499 150.79 67.7116 151.337 66.3433C151.767 65.2487 152.236 65.3269 153.292 63.1376C153.878 61.8866 154.113 58.329 153.292 56.5306L150.673 50.3146C150.321 49.6109 150.125 49.5327 149.5 48.9072L146.099 46.0142C146.059 46.0142 146.059 45.9751 146.02 45.9751C145.981 45.9751 145.981 45.936 145.942 45.936L144.652 45.6232C144.066 45.3105 144.652 45.3887 143.792 45.1932C143.245 45.0759 143.323 45.115 142.815 44.8805L140.625 44.0986C140.43 44.0204 140.234 43.9422 140.117 43.9031L134.761 42.8084C134.018 42.6521 133.158 42.7303 132.376 42.7694C130.5 42.7694 131.086 42.613 130.226 42.3393C129.483 42.1047 128.975 42.1829 128.154 41.8311L126.317 41.0883C125.222 40.541 123.932 40.3064 123.385 39.0163C123.267 38.7426 122.955 37.1397 122.955 36.9052C122.876 36.2406 123.15 35.8105 123.306 35.3414C123.697 34.0904 122.407 34.9114 122.055 33.8167C121.86 33.1912 121.43 30.611 122.173 30.0636C123.033 29.4772 123.737 30.8846 124.44 28.2262C124.988 26.2715 124.049 27.327 125.027 25.646C125.027 25.646 125.144 25.3723 125.183 25.3723C125.926 23.8867 125.965 24.7077 126.356 22.8312C126.551 21.932 126.708 22.3229 126.747 21.7365C126.747 21.7365 126.786 20.681 126.786 20.6419L126.278 19.8209ZM137.967 56.3742C137.967 56.3351 137.967 56.3351 137.967 56.296V56.3742ZM137.967 56.296C138.162 55.5142 138.475 55.5923 139.374 55.2014C140.078 54.8886 140.704 54.7714 141.524 54.6541C142.424 54.5368 142.893 54.3804 143.948 54.3413C146.802 54.2631 146.998 53.2467 150.555 55.045C151.454 55.4751 152.901 56.8434 153.253 57.7425C153.527 58.4853 153.487 59.3063 153.487 60.2055C153.487 60.8701 153.409 61.5347 153.096 62.082L152.002 63.3721L151.767 63.8413C151.494 64.4277 151.22 65.0532 150.868 65.6787C149.852 67.5943 150.673 67.9071 149.5 69.7054C149.226 70.0964 148.718 71.1128 148.444 71.3474C148.131 71.6211 147.193 72.2857 146.802 72.403C146.646 72.012 146.685 71.6602 145.786 71.582C145.747 72.2857 145.903 72.1293 146.294 72.5984C145.942 72.833 145.864 72.9894 145.512 73.1458C145.356 73.0285 145.238 72.9112 144.848 72.7157C145.121 72.403 145.121 72.4421 145.395 72.0511C146.45 70.4873 146.568 72.012 147.232 69.9009C147.506 69.0017 147.545 68.8454 147.936 68.0635C148.522 66.9297 148.131 67.047 148.131 65.796C148.131 65.7569 148.522 64.3495 148.601 64.154C148.874 63.4503 149.226 63.1767 149.265 62.4339C147.193 63.2549 147.975 65.5223 147.193 67.4771C147.037 67.9071 146.411 69.94 146.294 70.1355C146.216 70.2528 144.613 71.8166 144.496 71.8947C143.87 71.191 143.792 71.5429 143.127 71.191C143.245 70.761 144.183 69.2363 144.769 67.3207L145.434 64.2322C145.434 63.6849 145.356 62.903 145.434 62.3948C145.59 61.261 146.607 60.7919 146.685 59.7755C146.02 59.8927 145.903 60.0882 145.512 60.5573C144.691 61.4956 144.848 60.8701 144.652 61.6911C144.417 62.8248 144.73 64.154 144.339 65.366C143.987 66.3824 143.636 67.0861 143.362 68.259C143.049 69.7445 142.619 69.94 142.189 71.0738C141.798 70.331 141.485 69.94 140.156 69.9009C139.804 70.4091 139.609 70.2528 139.492 70.9565C140.43 70.8783 139.883 70.6046 140.664 70.3701C141.603 70.6437 141.681 70.8001 141.915 71.6602L140.664 72.2466C138.866 71.4647 139.218 69.8227 139.961 68.5326C141.016 66.6561 140.469 65.8742 140.782 63.6458C140.86 62.9421 142.072 59.8145 141.134 57.9771C139.14 58.4071 140.508 58.0944 139.648 60.2446C139.257 61.222 138.866 61.6129 138.71 63.0203L138.319 66.4606C137.967 65.9524 137.967 65.6005 137.771 65.0532C137.107 64.975 136.56 64.7795 135.934 65.0532C135.739 65.5614 135.739 65.9133 135.934 66.4215C136.638 66.0306 136.09 66.226 136.403 65.5223L137.42 65.6005L137.576 66.8125L136.638 66.9297C136.286 67.1643 136.677 66.7734 136.364 67.2425L137.537 67.4771C137.537 67.4771 137.693 68.2589 136.208 67.5552C135.269 67.1252 135.23 63.8413 135.308 62.9812C135.426 61.8475 135.699 60.9483 135.895 59.8927C136.129 58.6417 136.169 58.2117 136.911 57.4689L137.615 56.8043L137.967 56.296ZM141.134 57.938C141.055 57.7816 140.977 57.6643 140.899 57.5471C140.977 57.6643 141.094 57.8207 141.134 57.938ZM136.911 57.4298C136.95 57.3907 136.99 57.3516 137.029 57.3125C136.99 57.3516 136.95 57.3907 136.911 57.4298ZM147.819 59.9318C147.975 59.8536 147.897 59.7364 148.405 59.7364C149.031 59.7754 148.718 59.8536 148.835 59.9318C148.601 60.5573 148.053 60.5573 147.819 59.9318ZM107.356 24.7468C107.903 24.434 108.255 25.0205 108.451 25.4114C108.177 25.646 107.981 25.6069 107.747 25.9587C107.395 25.6069 106.691 25.1377 107.356 24.7468ZM143.518 57.0388C143.714 56.8825 145.004 56.8043 145.395 56.9606C145.786 57.117 145.942 57.8207 145.981 58.2508L145.473 58.8763C145.199 58.5635 145.356 58.9154 145.317 58.4462C145.278 58.2117 145.512 58.6417 145.317 58.0944C145.043 57.3125 144.378 57.6252 144.027 57.5471C143.284 57.3516 143.636 57.3907 143.518 57.0388ZM112.751 31.862L112.477 33.3085C111.226 33.1912 112.673 32.9566 110.562 32.9957C109.819 32.9957 109.115 32.9957 108.372 32.9957C107.942 32.1748 108.06 32.6048 107.942 32.6439L107.512 31.1974L111.617 31.5883C111.93 31.5883 112.907 30.9237 112.751 31.862ZM58.3315 60.5573C57.8623 60.1664 57.9014 60.0491 57.5887 59.5018C56.6504 57.7034 57.1195 59.4627 56.064 55.9833C55.7903 55.1232 55.5558 54.3022 55.2821 53.5203C54.9693 52.6603 54.3047 52.2302 54.1093 51.2919C54.6566 51.4483 54.5393 51.4874 55.243 51.9566C57.1977 53.2467 55.9076 52.3084 57.0413 55.2014C57.5887 56.5697 58.3315 59.1108 58.3315 60.5573ZM107.004 30.2591C106.027 29.5554 106.066 30.22 105.519 30.22C104.776 30.2591 105.167 29.0863 105.401 28.9299C105.831 28.6172 106.261 29.0472 107.004 28.8517C107.512 28.7344 108.099 28.4217 108.568 28.4217C109.076 28.4217 109.506 28.8126 110.132 28.8126C111.226 28.8126 110.405 28.0698 113.337 29.0472C113.611 29.1254 113.963 29.2036 114.158 29.2036L114.745 29.2427C115.331 29.3209 115.292 30.4546 115.253 31.0019C113.924 31.0019 113.885 29.79 111.383 29.7118C110.483 29.6727 108.333 29.4772 107.708 29.5945C107.121 29.7118 107.2 29.79 107.004 30.2591ZM109.741 17.5925L108.92 18.1789V19.5472C108.529 19.5863 108.216 19.6645 107.981 19.6645C107.317 19.6254 108.021 19.6254 107.278 19.3909C106.809 20.0555 106.691 20.2118 105.479 20.0946C104.072 19.8991 104.541 19.86 103.994 18.9999C103.29 19.2345 104.033 18.9608 103.603 19.3127C103.212 19.6254 103.759 19.5472 102.977 19.5863C102.547 18.8826 102.704 18.9999 103.134 18.2962C103.994 18.2571 105.753 18.0616 106.222 17.788C105.87 17.0452 104.072 16.6933 103.603 17.0061C103.212 17.2407 103.486 17.3188 102.86 17.6316C102.547 17.2407 102.547 17.2407 102.547 16.7715L102.586 16.146C102.704 15.325 103.603 15.5205 104.189 15.5987C104.971 15.716 105.167 15.4423 105.87 15.6378L107.512 15.9896C107.981 16.1069 108.294 16.4588 108.959 16.537C108.959 15.7551 108.92 14.895 109.741 14.6213C109.623 15.2468 109.389 15.4814 109.428 16.1069C109.506 16.8497 109.741 16.6933 109.741 17.5925ZM143.01 71.6602L143.831 72.2075C143.831 74.2795 142.815 73.1067 142.424 72.7939L143.01 71.6602ZM53.171 61.0265C53.8356 60.7137 53.3274 61.0656 53.601 60.4401C54.3438 61.3001 54.3829 63.1767 54.422 64.3495C54.422 66.5779 54.6957 66.5779 53.8356 67.2816C53.601 67.4771 53.8356 67.3598 53.601 67.438L53.2883 67.4771C52.9364 67.7507 53.3274 67.868 52.5064 68.4935C52.2718 68.689 52.35 68.6108 52.1154 68.8454C50.5517 70.3701 47.8932 70.8783 46.6422 71.4647C44.5311 72.4812 41.2081 73.4976 38.8624 74.3968L34.953 75.726C32.2555 76.2342 33.311 75.6087 30.3398 76.5079C29.6752 76.7034 28.8151 76.7815 28.1114 77.0161C26.0003 77.6807 23.7329 78.0326 21.5045 78.0326C21.8172 74.5141 22.6382 74.7877 21.739 72.2075C20.8399 69.4709 20.6444 70.8001 19.3152 68.4544C18.9242 66.1479 22.2864 67.2816 21.2699 65.4051L24.5929 64.0367C25.2184 63.7631 25.6094 63.4894 26.274 63.294C28.1114 62.6684 30.4571 61.3392 33.0764 60.401L34.3275 59.9318C34.7966 59.6191 34.5229 59.8145 34.7184 59.5018C33.9756 59.5409 33.1155 59.8536 32.5291 60.1273C30.5353 60.9483 29.0106 61.6129 30.9262 59.6973C32.7637 57.8598 32.7637 58.1726 33.9365 57.1561C35.6567 55.6314 36.8295 54.7323 39.4488 54.1068C40.8171 53.794 42.3418 52.973 44.062 53.2076C44.8048 53.3249 45.6649 53.5203 46.5249 53.5985C47.5414 53.7158 49.9652 54.1068 50.5126 55.1232C50.8644 55.8269 51.099 56.3742 51.4117 57.0779C52.2327 58.8372 52.1545 56.7261 52.6628 60.1273C52.7801 61.2219 53.1319 60.9874 53.171 61.0265ZM57.3932 52.3084C57.4714 52.973 57.4323 52.8166 57.6669 53.3249C57.9014 53.9113 57.7841 53.6767 57.9014 54.3804C57.9796 54.9277 58.3706 55.7487 58.566 56.296C59.1134 58.0944 59.1915 57.9771 59.778 60.2446L60.2471 61.9256C60.8335 63.8413 61.5372 66.1478 60.5598 67.9071C60.4426 68.1026 60.4035 68.1808 60.3253 68.3762C57.9405 68.1417 58.6833 68.5326 58.4097 68.689C58.2924 68.7281 58.5269 68.9626 58.2533 68.689C58.0187 68.4544 58.1751 68.7672 58.136 68.298C58.0187 67.3207 58.8788 62.7075 57.8232 61.0265C57.3932 60.3228 56.8068 59.0327 55.9467 58.8372C56.0249 59.6582 56.494 60.4401 56.6113 61.0656L56.6895 69.3145C56.1813 69.1581 56.1422 67.9071 56.064 67.3989C55.673 64.154 56.7286 62.5512 54.813 59.6582C54.0702 58.5244 53.0146 57.4689 52.5064 56.1397C52.1154 55.1232 50.9426 53.2467 49.6916 52.8948C45.5867 51.8002 44.3356 53.0512 47.6587 50.0018C48.636 49.1027 48.2842 49.4545 49.6525 48.9854C50.9426 48.5553 50.708 48.6335 51.9591 48.9463L54.0311 49.8455C55.7512 50.8228 56.1422 52.152 57.3932 52.3084ZM128.271 43.7076C133.354 43.7076 134.018 44.0986 138.749 45.1932C139.804 45.4278 140.899 45.8187 141.955 46.1315C142.893 46.4051 146.646 48.1253 147.428 48.7899L150.086 52.1129C150.516 52.8557 150.321 52.973 150.243 53.7549C148.601 53.4031 149.969 54.1849 148.405 53.364C146.255 52.2693 143.87 53.5203 140.391 53.9895C137.654 54.3804 138.045 54.8496 136.56 56.3351C135.074 57.8207 136.677 57.4689 132.572 58.4462L131.829 55.6705C131.673 55.1623 131.555 55.2405 131.438 54.8104C131.282 54.3022 131.125 53.4031 130.969 52.8166C130.304 49.8846 130.343 50.1973 129.092 47.3825C128.819 46.757 128.702 46.2097 128.467 45.5842C128.115 44.7632 128.037 44.6459 128.271 43.7076ZM61.1854 42.9648C61.2636 42.3393 62.28 41.1274 62.7491 40.6973C66.7759 37.1398 71.4672 36.2015 76.5495 35.1068C79.8725 34.4031 82.5309 35.6151 84.8766 36.006C86.0885 36.2015 86.5577 36.2015 87.7696 36.9052C88.4733 37.2961 88.356 37.9216 88.9424 39.5245C89.1379 40.0327 89.0597 39.7591 89.1379 40.3064C89.177 40.4628 89.177 40.541 89.177 40.6973L89.607 42.8475C89.7634 43.3558 89.7243 42.7693 89.7634 43.6685C89.8025 47.3825 90.2717 47.4607 89.8025 51.9957L89.607 57.7034C89.607 58.5244 89.4507 58.9154 89.4507 59.5018L88.0433 59.6191C87.4959 59.7755 86.8313 59.7364 86.1276 59.8536C84.8766 60.01 83.7038 60.401 82.2964 60.401C82.0618 59.8927 82.1009 59.58 81.9836 58.8763C81.9054 58.1726 81.6709 58.0944 81.5145 57.3125C80.889 54.0286 80.889 54.1459 80.068 51.0574L79.4816 48.7899C79.4425 48.6726 79.4425 48.5553 79.3643 48.4381C79.1688 48.0862 79.3252 48.2817 79.0124 48.0471C79.0124 49.2199 79.1297 49.7673 79.247 50.7837C79.3643 51.6829 79.247 52.6603 79.3252 53.5594C79.4034 55.3578 79.8334 56.9607 79.9116 58.8372C79.5989 59.1499 78.817 59.8536 78.4651 59.9318C78.5042 58.1335 77.996 54.4977 77.996 53.4421C77.996 52.3084 78.0742 50.9792 77.996 49.8455C77.8787 48.3599 77.605 50.0018 77.5659 47.6953L77.4096 46.9134C77.4096 46.8743 77.3705 46.8352 77.3705 46.7961C76.5495 47.3434 76.745 48.6726 76.4713 49.6891C75.9631 51.8002 75.6894 52.4257 75.5721 54.3804C75.4939 55.5532 75.2203 56.8434 74.5166 57.5471C73.9302 58.1335 74.1647 60.401 73.1483 61.1438C72.8355 61.3783 73.0701 61.0656 72.64 61.5347C72.2882 61.9256 71.8972 62.5512 71.2717 62.9812C70.6462 63.4112 70.4508 63.1767 69.8643 63.4112C69.5516 63.5676 68.3006 64.7795 66.1113 65.2096C65.173 65.4051 63.9611 65.7569 62.9055 65.4832C62.1627 65.3269 61.9673 64.4277 61.6154 63.0985C61.1463 61.1828 61.3026 59.7755 60.208 57.0779L58.136 51.722C57.6669 50.5492 58.0578 51.0965 56.3376 49.8064C56.1031 49.6109 54.5393 48.2426 54.3829 48.0471C54.6957 47.0697 55.8685 46.9916 56.7677 46.4833C59.8171 44.7632 58.4878 45.2714 62.0845 43.8249C63.0619 43.434 63.922 43.0039 65.0166 42.6912C64.8602 42.5739 64.8993 42.3784 64.0784 42.5739C63.1792 42.9257 62.2018 43.434 61.1854 42.9648ZM122.955 49.7673C122.134 49.8064 121.469 49.6891 120.726 49.6109C120.14 49.5327 119.162 49.4154 118.498 49.259L114.901 48.4771C114.51 48.5553 115.058 48.6726 114.745 48.5162C114.354 48.1253 115.409 48.1644 116.856 45.936L118.928 43.043L120.609 37.2961C120.844 36.6706 121.391 36.4751 122.212 36.4751C122.681 37.1788 122.564 38.078 122.368 38.9381C122.29 38.1171 122.564 38.7035 122.055 38.3517C121.586 39.5636 121.704 43.0821 121.821 44.5677C121.977 46.6006 122.407 48.0471 122.955 49.7673ZM94.3375 37.5307C95.2757 36.6315 95.3148 37.3352 97.2696 34.7941C97.6605 34.2859 97.6996 34.0122 98.4033 33.9731C98.7161 34.5204 98.7943 36.436 100.006 38.6253C100.475 39.5245 101.257 41.7529 101.374 41.9875C101.844 42.7303 105.792 46.5615 106.027 46.9134C106.339 47.3825 106.222 47.4216 106.652 47.8907C107.239 48.5162 108.06 49.4154 106.261 49.259C105.949 48.6726 105.792 47.4998 104.111 47.4216L103.486 47.4998C102.117 47.8125 102.313 47.578 100.866 48.1644C99.8889 48.5944 99.1461 49.0245 98.1296 49.4154C97.5823 49.65 97.1523 49.8455 96.7613 50.0409L95.3148 50.6273C95.3539 49.4545 95.5885 48.5944 95.6276 47.3825C95.6667 43.6685 95.9013 42.4175 94.7284 38.9772C94.533 38.469 94.3766 38.1171 94.3375 37.5307ZM101.726 31.862C102.469 32.7221 103.251 34.5986 103.564 34.9896L105.128 37.257C105.558 37.9998 105.87 37.7653 106.77 38.078L108.646 38.7426C109.623 39.0554 110.64 39.4463 111.695 39.5245C112.751 39.6418 112.79 39.9936 113.455 40.4237C112.751 40.6973 112.868 41.8702 113.22 42.0657C113.22 42.0657 114.94 41.5965 115.292 41.2056C115.996 40.4237 115.839 40.1109 116.23 39.72C116.23 39.72 116.543 39.4854 116.66 39.3681C116.66 39.7982 116.621 40.2673 116.621 40.5019C117.13 40.3846 116.7 40.3455 117.52 39.9936L118.42 39.7982C118.928 40.8537 118.381 41.9093 117.755 42.7694L113.846 48.008C113.455 48.9072 114.354 50.9401 114.471 51.8784C113.064 51.2528 108.099 47.3434 106.887 46.2097C106.105 45.4278 105.362 44.8805 104.58 44.0986C102.625 42.1829 102.195 41.2838 101.14 38.7035C100.28 36.6706 100.554 37.5307 100.827 35.2241C100.827 34.6377 101.492 32.4093 101.726 31.862ZM100.319 19.9382C100.944 20.3682 100.671 21.6974 100.71 23.4176C100.71 24.4731 101.218 26.3106 100.71 27.2488C99.8498 26.6624 100.671 23.8476 100.475 21.5801C100.397 20.8764 100.006 20.29 100.319 19.9382ZM119.241 18.5308C118.537 18.8435 115.644 18.6481 115.018 18.3744C115.253 17.6316 116.739 17.4752 117.364 17.2016C118.068 16.9279 118.029 17.0061 118.498 17.4361C118.928 17.8662 119.241 17.8662 119.241 18.5308ZM115.918 4.88681C115.8 4.84771 115.879 4.80862 115.527 4.76952C114.393 4.65224 112.438 7.89708 113.494 5.47323C113.885 4.57405 113.846 4.33948 115.136 4.33948C116.269 4.30039 116.739 4.30039 117.403 4.76952C117.872 5.08228 118.85 8.05346 119.162 8.71806C119.671 9.81271 120.961 10.9074 121.704 11.6892C121.352 11.6111 120.961 11.4156 120.687 11.181C118.576 9.65633 117.521 8.17074 116.66 5.82507C116.426 5.31685 116.387 5.08228 115.918 4.88681ZM106.3 4.18311C107.082 3.71397 109.272 3.5185 109.663 3.40122C110.21 3.24484 110.483 3.04937 111.187 2.89299C111.109 2.42386 111.031 2.58023 111.226 2.38476C116.621 1.83744 115.879 2.69752 117.638 2.93209C117.13 3.04937 116.739 3.04937 116.191 3.16665C115.644 3.24484 115.331 3.32303 114.823 3.40122C113.807 3.47941 113.064 3.67488 112.204 3.94854C109.311 4.96499 110.21 3.98764 108.646 4.965C108.372 5.12138 108.411 5.12138 108.177 5.35594L107.864 5.6687C107.825 5.59051 107.551 6.29421 108.06 7.11519C108.255 7.42795 108.372 7.70161 108.607 7.81889C108.099 7.7798 107.942 7.58433 107.63 7.38885C107.317 7.19338 107.043 7.037 106.77 6.80244C105.284 5.6687 104.971 5.23866 105.87 4.53496C105.909 4.53496 105.909 4.49586 105.949 4.45677L106.3 4.18311ZM105.01 2.89299C105.675 2.85389 105.909 2.73661 106.379 2.50204C106.887 2.26748 108.529 1.79834 109.115 1.91563C109.506 1.95472 109.311 1.95472 109.428 1.99381C109.467 1.99381 109.506 2.03291 109.545 2.03291L110.249 2.22838C106.848 2.38476 105.518 3.94854 104.619 3.36212C104.58 3.36212 104.58 3.32303 104.541 3.28393C104.502 3.28393 104.502 3.24484 104.463 3.20575L104.072 2.97118C104.424 2.58023 104.385 2.61933 105.01 2.46295C105.206 2.85389 104.815 2.46295 105.01 2.89299Z" fill="#31305C"/>
<path fill-rule="evenodd" clip-rule="evenodd" d="M34.249 75.296C35.07 75.6087 35.6564 76.156 36.0473 76.8988C36.4383 77.6416 36.6338 79.3618 36.6338 82.0984C36.6338 84.1313 36.4383 85.6951 36.0473 86.7897C35.6564 87.8844 34.9918 88.7445 34.0535 89.3309C33.1153 89.9173 31.9033 90.1909 30.4177 90.1909C28.7367 90.1909 27.4075 89.8391 26.4692 89.1745C25.4918 88.5099 24.8663 87.6889 24.5927 86.6724C24.2799 85.6951 24.1235 84.014 24.1235 81.5902V79.5964H29.4013V83.7404C29.4013 84.835 29.4404 85.5387 29.5577 85.8515C29.675 86.1642 29.9095 86.2815 30.3005 86.2815C30.7305 86.2815 31.0042 86.086 31.1214 85.6951C31.2387 85.3041 31.3169 84.3268 31.3169 82.763V81.0037C31.3169 80.0264 31.2387 79.3227 31.0433 78.8536C30.8478 78.4235 30.5741 78.1108 30.2223 77.9544C29.8704 77.798 29.1667 77.7198 28.1503 77.7198V74.0449C29.4013 74.0449 30.1832 73.9668 30.4959 73.8886C30.8087 73.7713 31.0042 73.5367 31.1214 73.1458C31.2387 72.7548 31.3169 72.1684 31.3169 71.3474V69.94C31.3169 69.0408 31.2387 68.4544 31.0824 68.1808C30.926 67.9071 30.6914 67.7507 30.3787 67.7507C29.9877 67.7507 29.7531 67.9071 29.6359 68.1808C29.4795 68.4935 29.4404 69.119 29.4404 70.0964V72.1684H24.1235V70.0182C24.1235 67.5944 24.5927 65.9524 25.5309 65.0923C26.4692 64.2322 27.9157 63.8022 29.9486 63.8022C32.4898 63.8022 34.2099 64.3886 35.1091 65.5614C36.0083 66.7343 36.4774 68.3762 36.4774 70.4873C36.4774 71.8947 36.321 72.9503 36.0083 73.5758C35.6173 74.2013 35.0309 74.7877 34.249 75.296ZM48.2448 64.2713L51.4115 89.6827H45.7428L45.43 85.1087H43.4753L43.1625 89.6827H37.4547L40.2696 64.2713H48.2448ZM45.3127 80.6128C45.0391 77.7198 44.7654 74.1622 44.4918 69.9009C43.9444 74.7877 43.5926 78.3453 43.4362 80.6128H45.3127ZM52.3497 64.2713H57.8621C59.5822 64.2713 60.9114 64.4277 61.8106 64.7405C62.7098 65.0532 63.4135 65.7178 63.9999 66.6952C64.5472 67.6725 64.8209 69.2754 64.8209 71.4647C64.8209 72.9503 64.6254 73.9667 64.2345 74.5532C63.8435 75.1396 63.0616 75.5696 61.9279 75.8824C63.218 76.2342 64.0781 76.8206 64.5472 77.6025C65.0163 78.4235 65.2509 79.6354 65.2509 81.2774V83.6231C65.2509 85.3432 65.0945 86.5943 64.7427 87.4543C64.4299 88.2753 63.8826 88.8617 63.1789 89.1354C62.4752 89.4482 60.9896 89.6045 58.7612 89.6045H52.3888V64.2713H52.3497ZM57.9012 68.6108V74.2795C58.1357 74.2795 58.3312 74.2795 58.4485 74.2795C58.9958 74.2795 59.3086 74.1231 59.4649 73.8104C59.6213 73.4976 59.6995 72.5593 59.6995 71.0738C59.6995 70.2919 59.6604 69.7055 59.504 69.3927C59.3867 69.0799 59.2304 68.8845 59.0349 68.8063C58.8394 68.689 58.4485 68.6108 57.9012 68.6108ZM57.9012 78.228V85.3432C58.6439 85.3041 59.1522 85.1478 59.3477 84.9132C59.5431 84.6395 59.6604 84.014 59.6604 82.9585V80.5737C59.6604 79.4791 59.5822 78.8145 59.3867 78.5799C59.1913 78.3844 58.7221 78.2671 57.9012 78.228ZM80.1459 75.3741H74.5945V70.9565C74.5945 69.6664 74.5554 68.8845 74.4381 68.5717C74.3208 68.259 74.0472 68.1026 73.6562 68.1026C73.2262 68.1026 72.9134 68.298 72.7962 68.689C72.6789 69.0799 72.6007 69.9009 72.6007 71.191V82.9585C72.6007 84.2095 72.6789 84.9914 72.7962 85.3823C72.9134 85.7733 73.1871 85.9297 73.6171 85.9297C74.0081 85.9297 74.2817 85.7342 74.4381 85.3432C74.5554 84.9523 74.6336 84.0922 74.6336 82.6848V79.4791H80.185V80.4564C80.185 83.0758 80.0286 84.9523 79.7159 86.0469C79.4031 87.1416 78.6994 88.1189 77.6439 88.9399C76.5883 89.7609 75.2591 90.1909 73.6953 90.1909C72.0924 90.1909 70.7241 89.8391 69.6686 89.1354C68.613 88.4317 67.9093 87.4543 67.5966 86.2424C67.2447 84.9914 67.0884 83.1539 67.0884 80.6519V73.224C67.0884 71.3865 67.1275 70.0182 67.2447 69.119C67.362 68.2199 67.6748 67.3207 68.183 66.4606C68.6912 65.6005 69.434 64.9359 70.3332 64.4668C71.2715 63.9977 72.327 63.724 73.5389 63.724C75.1809 63.724 76.5101 64.1149 77.5657 64.8577C78.6212 65.6005 79.3249 66.5388 79.6377 67.6725C79.9504 68.8063 80.1459 70.5264 80.1459 72.9112V75.3741Z" fill="#E80D0D"/>
</svg>
