<svg width="93" height="24" viewBox="0 0 93 24" fill="none" xmlns="http://www.w3.org/2000/svg">
<path fill-rule="evenodd" clip-rule="evenodd" d="M45.3618 0.428173H49.7053L49.7359 8.80921C50.5311 8.77863 50.9594 8.25864 50.99 7.18807L51.0817 3.30342C51.1123 1.8658 51.3264 0.917575 51.7852 0.397583H55.7922C55.3946 0.886987 55.2111 1.8658 55.2111 3.39519L55.2417 6.79042C55.2417 8.8398 54.2934 10.0327 52.3358 10.308C54.2934 10.5833 55.2722 11.7762 55.2417 13.8868L55.2111 17.0373C55.2111 18.5361 55.3946 19.6067 55.7922 20.249H51.7852C51.3264 19.7596 51.0817 18.7808 51.0817 17.3432V13.4586C51.0817 12.9692 50.9594 12.5715 50.7147 12.2656C50.47 11.9598 50.1335 11.8068 49.7665 11.8068L49.7359 20.2185H45.3924V0.428173H45.3618ZM67.2321 20.3102H62.8886V4.40458H61.6345V15.6609C61.6345 17.1291 61.4816 18.1997 61.1451 18.842C60.8086 19.4843 60.3498 19.882 59.6769 20.0655C59.0345 20.2185 57.9946 20.3102 56.5569 20.3102H55.884V16.8844C56.404 16.8844 56.771 16.7926 56.9852 16.6397C57.1993 16.4867 57.291 15.9667 57.291 15.0491V0.428173H67.2321V20.3102ZM76.4084 0.428173L78.886 20.3102H74.4814L74.2367 16.7314H72.6767L72.432 20.3102H67.9662L70.1685 0.428173H76.4084ZM74.1143 13.2139C73.9002 10.9504 73.6861 8.16687 73.472 4.83281C73.0437 8.65628 72.7684 11.4398 72.6461 13.2139H74.1143ZM92.0081 23.736C90.9987 23.736 90.0199 23.736 89.0105 23.736C89.0105 22.6043 89.0105 21.4725 89.0105 20.3102C86.6859 20.3102 84.3612 20.3102 82.0365 20.3102C82.0365 21.442 82.0365 22.5737 82.0365 23.736C81.0271 23.736 80.0483 23.736 79.0389 23.736C79.0389 21.2278 79.0389 18.6891 79.0389 16.1809C79.3448 16.1809 79.6201 16.1809 79.926 16.1809C80.3848 14.5597 80.7824 12.4186 81.0883 9.75744C81.3942 7.0963 81.5471 4.19047 81.5471 1.07052C81.5471 0.856403 81.5471 0.672877 81.5471 0.458762C83.1989 0.458762 84.82 0.458762 86.4718 0.458762C86.9092 0.458762 86.345 0.458762 86.6222 0.458769L86.736 0.458762C86.736 0.458762 86.3995 0.458762 86.9092 0.458762C87.3546 0.458762 87.2823 0.458769 87.5881 0.458769C86.856 0.462885 88.6016 0.458738 87.5881 0.458769C88.8095 0.458692 88.1761 0.458752 89.4429 0.458762C90.0811 0.458762 90.67 0.428173 90.8841 0.428173C90.7098 3.98369 90.8841 10.9514 91.1211 16.1809C91.427 16.1809 91.7023 16.1809 92.0081 16.1809C92.0081 18.6585 92.0081 21.1973 92.0081 23.736ZM86.7776 16.1503V4.37399H85.493V4.52693C85.493 8.31981 85.1565 12.2045 84.453 16.1503H86.7776Z" fill="#E80D0D"/>
<path fill-rule="evenodd" clip-rule="evenodd" d="M7.92223 9.05398C8.56457 9.29868 9.02339 9.7269 9.32926 10.3081C9.63514 10.8892 9.78808 12.2351 9.78808 14.3762C9.78808 15.9668 9.63514 17.1903 9.32926 18.0468C9.02339 18.9032 8.5034 19.5762 7.76929 20.035C7.03518 20.4938 6.08696 20.7079 4.92463 20.7079C3.60935 20.7079 2.56937 20.4326 1.83527 19.9126C1.07057 19.3926 0.581166 18.7503 0.367052 17.955C0.12235 17.1903 0 15.875 0 13.9786V12.4186H4.12935V15.6609C4.12935 16.5174 4.15993 17.068 4.2517 17.3127C4.34346 17.5574 4.52699 17.6491 4.83287 17.6491C5.16933 17.6491 5.38345 17.4962 5.47521 17.1903C5.56697 16.8844 5.62815 16.1197 5.62815 14.8962V13.5198C5.62815 12.7551 5.56697 12.2045 5.41403 11.8375C5.26109 11.501 5.04698 11.2563 4.77169 11.1339C4.4964 11.0116 3.94582 10.9504 3.15054 10.9504V8.07516C4.12935 8.07516 4.7411 8.01399 4.9858 7.95282C5.23051 7.86105 5.38345 7.67753 5.47521 7.37165C5.56697 7.06577 5.62815 6.60695 5.62815 5.96461V4.86345C5.62815 4.15993 5.56697 3.70112 5.44462 3.487C5.32227 3.27289 5.13874 3.15053 4.89404 3.15053C4.58816 3.15053 4.40464 3.27289 4.31287 3.487C4.19052 3.7317 4.15993 4.22111 4.15993 4.9858V6.60696H0V4.92463C0 3.02819 0.367053 1.7435 1.10116 1.07057C1.83526 0.397641 2.96701 0.0611699 4.55758 0.0611699C6.54578 0.0611699 7.89164 0.519986 8.59516 1.43762C9.29868 2.35525 9.66573 3.63994 9.66573 5.29168C9.66573 6.39284 9.54338 7.2187 9.29868 7.70811C8.9928 8.19751 8.53398 8.65633 7.92223 9.05398ZM18.8726 0.428227L21.3503 20.3103H16.915L16.6703 16.7315H15.1409L14.8962 20.3103H10.4304L12.6327 0.428227H18.8726ZM16.5786 13.2139C16.3644 10.9504 16.1503 8.16693 15.9362 4.83286C15.508 8.65633 15.2327 11.4398 15.1103 13.2139H16.5786ZM22.0844 0.428227H26.3972C27.7431 0.428227 28.7831 0.550581 29.4866 0.795283C30.1901 1.03999 30.7407 1.55998 31.1995 2.32467C31.6277 3.08936 31.8419 4.34346 31.8419 6.05637C31.8419 7.21871 31.6889 8.01398 31.383 8.4728C31.0772 8.93162 30.4654 9.26809 29.5784 9.51279C30.5878 9.78808 31.2607 10.2469 31.6277 10.8587C31.9948 11.501 32.1783 12.4492 32.1783 13.7339V15.5692C32.1783 16.915 32.056 17.8938 31.7807 18.5668C31.536 19.2091 31.1077 19.6679 30.5572 19.882C30.0066 20.1267 28.8443 20.2491 27.1008 20.2491H22.1149V0.428227H22.0844ZM26.4278 3.82347V8.25869C26.6113 8.25869 26.7643 8.25869 26.856 8.25869C27.2843 8.25869 27.529 8.13634 27.6513 7.89164C27.7737 7.64693 27.8349 6.91283 27.8349 5.75049C27.8349 5.13874 27.8043 4.67993 27.6819 4.43522C27.5902 4.19052 27.4678 4.03758 27.3149 3.97641C27.1619 3.88464 26.856 3.82347 26.4278 3.82347ZM26.4278 11.3481V16.915C27.009 16.8844 27.4066 16.7621 27.5596 16.5786C27.7125 16.3644 27.8043 15.875 27.8043 15.0492V13.1833C27.8043 12.3269 27.7431 11.8069 27.5902 11.6233C27.4372 11.4704 27.0702 11.3786 26.4278 11.3481ZM43.8323 9.11515H39.4888V5.65873C39.4888 4.64934 39.4582 4.03758 39.3664 3.79288C39.2747 3.54818 39.0606 3.42582 38.7547 3.42582C38.4182 3.42582 38.1735 3.57876 38.0818 3.88464C37.99 4.19052 37.9288 4.83287 37.9288 5.84226V15.0492C37.9288 16.028 37.99 16.6397 38.0818 16.9456C38.1735 17.2515 38.3876 17.3738 38.7241 17.3738C39.03 17.3738 39.2441 17.2209 39.3664 16.915C39.4582 16.6091 39.5194 15.9362 39.5194 14.8351V12.3269H43.8628V13.0916C43.8628 15.1409 43.7405 16.6091 43.4958 17.4656C43.2511 18.3221 42.7005 19.0868 41.8746 19.7291C41.0488 20.3714 40.0088 20.7079 38.7853 20.7079C37.5312 20.7079 36.4606 20.4326 35.6347 19.882C34.8089 19.3315 34.2583 18.5668 34.0136 17.6185C33.7383 16.6397 33.6159 15.2021 33.6159 13.2445V7.43282C33.6159 5.9952 33.6465 4.92462 33.7383 4.22111C33.8301 3.51759 34.0748 2.81407 34.4724 2.14114C34.87 1.46821 35.4512 0.948218 36.1547 0.581165C36.8888 0.214112 37.7147 0 38.6629 0C39.9476 0 40.9876 0.305876 41.8135 0.887043C42.6393 1.46821 43.1899 2.20232 43.4346 3.08936C43.6793 3.97641 43.8323 5.32227 43.8323 7.18812V9.11515Z" fill="#E80D0D"/>
</svg>
