<svg width="11" height="11" viewBox="0 0 11 11" fill="none" xmlns="http://www.w3.org/2000/svg">
<path d="M10.617 10.4844C10.617 10.4844 10.617 5.6332 10.617 4.01758C10.617 3.95098 10.5332 3.86719 10.4516 3.80488L8.76074 2.57812V1.22246C8.76074 1.08926 8.64902 0.999023 8.5373 0.999023H6.61016L5.62832 0.283594C5.56172 0.238477 5.45 0.238477 5.38125 0.283594L4.39941 0.999023H2.47227C2.33906 0.999023 2.24883 1.11074 2.24883 1.22246V2.56309L0.536523 3.80703C0.435547 3.86934 0.371094 3.95098 0.371094 4.01973C0.371094 5.64609 0.371094 10.5295 0.371094 10.5295C0.371094 10.6562 0.47207 10.7443 0.577344 10.7529C0.583789 10.7529 0.588086 10.7529 0.594531 10.7529H10.3914C10.5354 10.7508 10.617 10.6391 10.617 10.4844ZM10.1916 4.41934V10.0826L6.49414 7.12207L10.1916 4.41934ZM10.0262 4.02617L8.76074 4.94785V3.0959L10.0262 4.02617ZM5.49512 0.706836L5.88828 0.996875H5.0998L5.49512 0.706836ZM8.31387 1.4459V5.27441L5.49512 7.32832L2.67637 5.27441V1.4459H8.31387ZM0.798633 4.41934L4.49609 7.12207L0.798633 10.0998V4.41934ZM2.25098 4.96504L0.95332 4.01973L2.25098 3.07656V4.96504ZM1.20039 10.3254L4.85488 7.38418L5.35977 7.75371C5.45645 7.82676 5.52949 7.82676 5.62832 7.75371L6.1332 7.38418L9.80918 10.3254H1.20039Z" fill="#E80D0D"/>
<path d="M7.01465 2.54161H3.99609V2.967H7.01465V2.54161Z" fill="#E80D0D"/>
<path d="M7.01465 3.90587H3.99609V4.33126H7.01465V3.90587Z" fill="#E80D0D"/>
<path d="M7.01465 5.27013H3.99609V5.69552H7.01465V5.27013Z" fill="#E80D0D"/>
</svg>
