<svg width="11" height="11" viewBox="0 0 11 11" fill="none" xmlns="http://www.w3.org/2000/svg">
<g clip-path="url(#clip0)">
<path d="M8.69328 6.81405C8.46808 6.57956 8.19645 6.45419 7.90857 6.45419C7.62301 6.45419 7.34906 6.57724 7.11457 6.81172L6.38094 7.54304C6.32058 7.51053 6.26022 7.48035 6.20218 7.45017C6.1186 7.40838 6.03966 7.36891 5.97234 7.32712C5.28513 6.89066 4.66062 6.32186 4.06164 5.58591C3.77143 5.21909 3.57642 4.91031 3.4348 4.59689C3.62517 4.42277 3.80162 4.24168 3.97342 4.06756C4.03842 4.00256 4.10343 3.93523 4.16843 3.87022C4.65597 3.38268 4.65597 2.7512 4.16843 2.26366L3.53463 1.62986C3.46266 1.55789 3.38837 1.48359 3.31872 1.4093C3.17942 1.26536 3.03316 1.11678 2.88225 0.977479C2.65705 0.754603 2.38775 0.6362 2.10451 0.6362C1.82127 0.6362 1.54732 0.754603 1.31515 0.977479C1.31283 0.9798 1.31283 0.979801 1.31051 0.982122L0.521158 1.77844C0.22399 2.07561 0.0545117 2.43778 0.0173656 2.858C-0.0383534 3.53591 0.161306 4.16739 0.314534 4.58064C0.690637 5.59519 1.25247 6.53545 2.09058 7.54304C3.10745 8.75725 4.33095 9.71608 5.72856 10.3917C6.26254 10.6447 6.97528 10.9442 7.7716 10.9953C7.82035 10.9976 7.87142 10.9999 7.91786 10.9999C8.45415 10.9999 8.90455 10.8072 9.25744 10.4242C9.25976 10.4195 9.2644 10.4172 9.26672 10.4126C9.38745 10.2663 9.52674 10.134 9.67301 9.99235C9.77284 9.89716 9.87499 9.79733 9.97482 9.69286C10.2047 9.45373 10.3254 9.17514 10.3254 8.88958C10.3254 8.6017 10.2023 8.32542 9.96785 8.09326L8.69328 6.81405ZM9.52442 9.25872C9.5221 9.25872 9.5221 9.26104 9.52442 9.25872C9.43388 9.35623 9.34101 9.44445 9.24118 9.54196C9.09028 9.6859 8.93705 9.8368 8.79311 10.0063C8.55863 10.257 8.28235 10.3754 7.92018 10.3754C7.88535 10.3754 7.84821 10.3754 7.81338 10.3731C7.12386 10.329 6.48309 10.0597 6.00252 9.82984C4.68848 9.19371 3.53463 8.2906 2.5758 7.14604C1.78412 6.19185 1.25479 5.30963 0.904227 4.36241C0.688316 3.78432 0.60938 3.33393 0.644205 2.90907C0.667421 2.63744 0.771894 2.41224 0.964589 2.21955L1.75626 1.42787C1.87002 1.32108 1.99075 1.26304 2.10915 1.26304C2.25541 1.26304 2.37382 1.35126 2.44811 1.42555C2.45043 1.42787 2.45275 1.4302 2.45507 1.43252C2.59669 1.56485 2.73135 1.70183 2.87296 1.84809C2.94494 1.92238 3.01923 1.99667 3.09352 2.07329L3.72732 2.70709C3.97342 2.95318 3.97342 3.1807 3.72732 3.42679C3.66 3.49412 3.59499 3.56145 3.52766 3.62645C3.33265 3.82611 3.14692 4.01184 2.94494 4.19293C2.94029 4.19757 2.93565 4.19989 2.93333 4.20454C2.73367 4.4042 2.77081 4.59921 2.8126 4.73155C2.81492 4.73851 2.81725 4.74548 2.81957 4.75244C2.9844 5.15176 3.21657 5.52786 3.56945 5.97594L3.57177 5.97826C4.21254 6.76761 4.88814 7.38284 5.63338 7.85413C5.72856 7.9145 5.82607 7.96325 5.91894 8.00968C6.00252 8.05147 6.08145 8.09094 6.14878 8.13273C6.15806 8.13737 6.16735 8.14434 6.17664 8.14898C6.25557 8.18845 6.32987 8.20702 6.40648 8.20702C6.59917 8.20702 6.7199 8.0863 6.75937 8.04683L7.55336 7.25283C7.6323 7.1739 7.75767 7.07871 7.90393 7.07871C8.04787 7.07871 8.16627 7.16925 8.23824 7.24819C8.24056 7.25051 8.24056 7.25051 8.24288 7.25283L9.5221 8.53205C9.76123 8.76885 9.76123 9.01262 9.52442 9.25872Z" fill="#E80D0D"/>
<path d="M5.94548 2.61659C6.55375 2.71874 7.1063 3.00662 7.54741 3.44773C7.98852 3.88884 8.27408 4.44139 8.37855 5.04965C8.40409 5.20288 8.53642 5.30967 8.68733 5.30967C8.7059 5.30967 8.72215 5.30735 8.74073 5.30503C8.91253 5.27717 9.02629 5.11466 8.99843 4.94286C8.87306 4.2069 8.52482 3.53595 7.99316 3.0043C7.46151 2.47265 6.79056 2.12441 6.0546 1.99904C5.8828 1.97118 5.72261 2.08494 5.69243 2.25442C5.66225 2.4239 5.77368 2.58873 5.94548 2.61659Z" fill="#E80D0D"/>
<path d="M10.985 4.85227C10.7784 3.64038 10.2073 2.53761 9.32972 1.66004C8.45214 0.782462 7.34937 0.211342 6.13748 0.00471721C5.968 -0.0254639 5.80781 0.0906174 5.77763 0.260096C5.74977 0.431896 5.86353 0.592088 6.03533 0.62227C7.11721 0.805678 8.1039 1.31876 8.88861 2.10114C9.67332 2.88585 10.1841 3.87255 10.3675 4.95442C10.393 5.10765 10.5254 5.21444 10.6763 5.21444C10.6948 5.21444 10.7111 5.21212 10.7297 5.2098C10.8991 5.18426 11.0152 5.02175 10.985 4.85227Z" fill="#E80D0D"/>
</g>
<defs>
<clipPath id="clip0">
<rect width="11" height="11" fill="white"/>
</clipPath>
</defs>
</svg>
