<svg width="12" height="12" viewBox="0 0 12 12" fill="none" xmlns="http://www.w3.org/2000/svg">
<g clip-path="url(#clip0)">
<path d="M6.00001 6C4.34584 6 3 4.65418 3 2.99999C3 1.34579 4.34584 0 6.00001 0C7.65418 0 9.00002 1.34582 9.00002 3.00001C9.00002 4.6542 7.65418 6 6.00001 6ZM6.00001 0.750008C4.75929 0.750008 3.75001 1.75927 3.75001 3.00001C3.75001 4.24075 4.75927 5.25001 6.00001 5.25001C7.24075 5.25001 8.25001 4.24073 8.25001 3.00001C8.25001 1.75929 7.24073 0.750008 6.00001 0.750008Z" fill="#E80D0D"/>
<path d="M10.875 12H1.125C0.917721 12 0.75 11.8322 0.75 11.625V9.04354C0.75 8.65608 0.948117 8.29207 1.26673 8.09284C4.08288 6.33612 7.91969 6.33649 10.7329 8.09247C11.0519 8.29205 11.25 8.65608 11.25 9.04352V11.6249C11.25 11.8322 11.0823 12 10.875 12ZM1.50001 11.25H10.5V9.04354C10.5 8.91281 10.437 8.79195 10.3356 8.72861C7.76075 7.12131 4.24109 7.1202 1.66409 8.72898C1.56302 8.79197 1.50003 8.91281 1.50003 9.04356L1.50001 11.25Z" fill="#E80D0D"/>
</g>
<defs>
<clipPath id="clip0">
<rect width="12" height="12" fill="white"/>
</clipPath>
</defs>
</svg>
