<svg width="29" height="29" viewBox="0 0 29 29" fill="none" xmlns="http://www.w3.org/2000/svg">
<rect width="29" height="29" fill="#E80D0D"/>
<g clip-path="url(#clip0)">
<path d="M16.2381 15.0009L21.7435 9.49554C22.0855 9.15379 22.0855 8.59929 21.7435 8.25754C21.4014 7.9155 20.8475 7.9155 20.5055 8.25754L15.0001 13.7629L9.49453 8.25754C9.15249 7.9155 8.59857 7.9155 8.25653 8.25754C7.91449 8.59929 7.91449 9.15379 8.25653 9.49554L13.7621 15.0009L8.25653 20.5062C7.91449 20.8479 7.91449 21.4024 8.25653 21.7442C8.42755 21.9149 8.65169 22.0004 8.87553 22.0004C9.09937 22.0004 9.32351 21.9149 9.49453 21.7439L15.0001 16.2386L20.5055 21.7439C20.6765 21.9149 20.9006 22.0004 21.1245 22.0004C21.3483 22.0004 21.5724 21.9149 21.7435 21.7439C22.0855 21.4021 22.0855 20.8476 21.7435 20.5059L16.2381 15.0009Z" fill="white"/>
</g>
<defs>
<clipPath id="clip0">
<rect width="14" height="14" fill="white" transform="translate(8 8)"/>
</clipPath>
</defs>
</svg>
