<svg width="20" height="20" viewBox="0 0 20 20" fill="none" xmlns="http://www.w3.org/2000/svg">
<g clip-path="url(#clip0)">
<path d="M9.66106 17.3281C9.66106 18.2454 8.91743 18.989 8.00011 18.989C7.08278 18.989 6.33916 18.2454 6.33916 17.3281C6.33916 16.4108 7.08279 15.6671 8.00012 15.6671C8.91744 15.6671 9.66106 16.4108 9.66106 17.3281ZM14.7254 15.6671C13.8081 15.6671 13.0645 16.4108 13.0645 17.3281C13.0645 18.2454 13.8081 18.989 14.7254 18.989C15.6427 18.989 16.3864 18.2454 16.3864 17.3281C16.3864 16.4108 15.6427 15.6671 14.7254 15.6671ZM19.8811 7.86993L17.8374 13.9444C17.8374 13.9444 17.6682 14.8459 16.8062 14.8459C15.9443 14.8459 7.51478 14.8459 6.48611 14.8459C5.45744 14.8459 5.41421 13.716 5.41421 13.716C5.41421 13.716 4.31762 5.58042 4.26328 5.08892C4.20894 4.59742 3.58038 4.23313 3.58038 4.23313L0.875931 2.96982C-0.604722 2.19554 0.0682993 0.722292 0.875931 1.06066C4.30527 2.67838 5.8983 3.4749 6.0008 4.11211C6.10453 4.75055 6.28482 6.28802 6.28482 6.28802V6.29789C6.30582 6.29172 6.32064 6.28802 6.32064 6.28802C6.32064 6.28802 16.8371 6.28802 18.9611 6.28802C20.4875 6.28802 19.8811 7.87241 19.8811 7.86993ZM16.9248 11.2523L16.9038 11.2536H6.89857L7.1048 12.8886H16.4382L16.9248 11.2523ZM17.8991 7.95514H6.48488L6.70469 9.70254C8.89418 9.70254 15.3058 9.70254 17.3829 9.70254L17.8991 7.95514Z" fill="#E80D0D"/>
</g>
<defs>
<clipPath id="clip0">
<rect width="20" height="20" fill="white"/>
</clipPath>
</defs>
</svg>
