<svg width="23" height="23" viewBox="0 0 23 23" fill="none" xmlns="http://www.w3.org/2000/svg">
<path d="M22.341 11.2339C21.975 11.2339 21.6821 11.5268 21.6821 11.8929V17.887C21.6821 19.5173 20.3544 20.8401 18.729 20.8401H4.27101C2.6407 20.8401 1.31791 19.5124 1.31791 17.887V11.7953C1.31791 11.4292 1.02504 11.1363 0.658956 11.1363C0.292869 11.1363 0 11.4292 0 11.7953V17.887C0 20.2446 1.91829 22.158 4.27101 22.158H18.729C21.0866 22.158 23 20.2397 23 17.887V11.8929C23 11.5317 22.7071 11.2339 22.341 11.2339Z" fill="#E80D0D"/>
<path d="M11.0364 16.9254C11.1633 17.0523 11.3341 17.1206 11.5001 17.1206C11.666 17.1206 11.8369 17.0572 11.9638 16.9254L16.1518 12.7374C16.4105 12.4787 16.4105 12.0638 16.1518 11.8051C15.8931 11.5464 15.4782 11.5464 15.2195 11.8051L12.159 14.8704V1.50094C12.159 1.13485 11.8661 0.84198 11.5001 0.84198C11.134 0.84198 10.8411 1.13485 10.8411 1.50094V14.8704L7.77574 11.8051C7.51704 11.5464 7.10214 11.5464 6.84344 11.8051C6.58474 12.0638 6.58474 12.4787 6.84344 12.7374L11.0364 16.9254Z" fill="#E80D0D"/>
</svg>
