<svg width="30" height="30" viewBox="0 0 30 30" fill="none" xmlns="http://www.w3.org/2000/svg">
<g clip-path="url(#clip0)">
<path d="M30 10.217C29.9993 9.76153 29.8654 9.29964 29.5692 8.91889L27.1921 5.87741C26.794 5.37186 26.1882 5.11446 25.5828 5.11346C25.2225 5.11346 24.8556 5.20581 24.5315 5.40796L22.2138 6.84995C21.97 7.0054 21.5521 7.1121 21.1485 7.10934C20.8349 7.11069 20.5318 7.04794 20.3317 6.94909L18.0621 5.84969C17.696 5.67344 17.2879 5.6012 16.8775 5.6005C16.2881 5.60325 15.6912 5.74809 15.2115 6.0805L14.9467 6.2663C14.735 6.16065 14.4115 5.99969 14.045 5.81735C13.6056 5.6019 13.0889 5.51501 12.5669 5.51331C12.0954 5.51466 11.624 5.58731 11.2101 5.76216L9.66416 6.4218C9.41256 6.53091 9.01236 6.60216 8.61486 6.6004C8.21736 6.6021 7.81787 6.53085 7.56627 6.4218L6.01893 5.7618C5.73668 5.64145 5.43498 5.59001 5.13598 5.58966C4.79168 5.59001 4.44944 5.65786 4.13133 5.78671C3.81363 5.91626 3.51873 6.10751 3.28389 6.36995L0.466701 9.52499C0.154455 9.87368 -0.000642531 10.3128 2.00051e-06 10.745C-0.000642531 11.2605 0.219904 11.7776 0.645295 12.14L3.27322 14.382L2.02658 15.6825C1.68293 16.0411 1.51184 16.5061 1.51184 16.9659C1.51119 17.4551 1.70549 17.9491 2.09033 18.3128L2.34322 18.5531C2.58153 18.7791 2.86787 18.9229 3.16752 18.9996C3.01723 19.276 2.93508 19.5791 2.93572 19.8828C2.93508 20.3724 3.12938 20.866 3.51352 21.2301L3.51287 21.2297L3.76653 21.4711C4.12758 21.8133 4.59563 21.9838 5.05676 21.9835C5.30461 21.9838 5.55276 21.934 5.78596 21.8365C5.86781 22.1686 6.03686 22.4842 6.30276 22.7365L6.55641 22.9778C6.91746 23.3201 7.38475 23.4905 7.84664 23.4902C8.2077 23.4906 8.57039 23.3842 8.88264 23.1776C8.97399 23.4715 9.13049 23.75 9.36873 23.9763L9.62239 24.2177C9.98268 24.5599 10.4507 24.7304 10.912 24.7301C11.4032 24.7304 11.8992 24.5375 12.2656 24.155L13.3674 23.0044L14.8643 24.3898C15.2226 24.7222 15.6825 24.8875 16.1365 24.8865C16.6352 24.8876 17.1384 24.6878 17.5055 24.2947L17.7445 24.0387C17.9507 23.8172 18.0854 23.555 18.1635 23.2813L18.7433 23.8165C19.1023 24.1475 19.5615 24.3121 20.0149 24.3118C20.5143 24.3121 21.0188 24.1123 21.3863 23.719L21.6239 23.4633C21.8983 23.1701 22.0528 22.807 22.1005 22.4362C22.2535 22.4754 22.4086 22.502 22.565 22.502C23.0644 22.502 23.5676 22.3025 23.9354 21.9095L24.1737 21.6538C24.5068 21.2969 24.6725 20.8391 24.6718 20.3877C24.6718 20.2476 24.6517 20.1082 24.6206 19.9705C25.0348 19.9156 25.4364 19.7308 25.7418 19.4029L25.9808 19.1469C26.3138 18.7899 26.4788 18.3322 26.4788 17.8805C26.4795 17.3835 26.2791 16.882 25.8836 16.5166L25.4367 16.1038L29.4702 11.6442C29.8323 11.2427 29.9994 10.7259 30 10.217ZM3.63363 18.0507C3.41994 18.05 3.21094 17.9736 3.04764 17.8189L2.79434 17.5786C2.61908 17.4129 2.53254 17.1924 2.53184 16.966C2.53254 16.7536 2.60854 16.5463 2.76504 16.383L5.31832 13.7186C5.48467 13.545 5.70662 13.4582 5.93432 13.4579C6.14737 13.4582 6.35567 13.5349 6.52031 13.69L6.77256 13.9307C6.77256 13.9307 7.03371 14.3168 7.03436 14.5435C7.03371 14.7133 6.98256 14.8786 6.88336 15.0218C6.87487 15.0303 4.12758 17.8935 4.12758 17.8935C3.98168 17.9968 3.80918 18.0499 3.63363 18.0507ZM5.67281 20.7083C5.50682 20.8812 5.28522 20.9677 5.05752 20.9684C4.84383 20.9681 4.63547 20.8914 4.47153 20.7366L4.21787 20.4956L4.21723 20.4952C4.04338 20.3302 3.95608 20.109 3.95608 19.8826C3.95608 19.6703 4.03278 19.463 4.18852 19.2997C4.18852 19.2997 7.59199 15.7568 7.62065 15.7226C7.7833 15.5662 7.99289 15.4854 8.20934 15.485C8.42303 15.4854 8.63139 15.5617 8.79533 15.7168L9.04899 15.9582C9.22348 16.1232 9.31014 16.3441 9.31078 16.5708C9.31008 16.7831 9.23344 16.9907 9.07758 17.154L5.67281 20.7083ZM8.46229 22.2146C8.29664 22.3879 8.0751 22.4746 7.84735 22.4752C7.63365 22.4748 7.42529 22.3982 7.26135 22.2431L7.00699 22.002C6.8325 21.8366 6.7452 21.6158 6.7452 21.3894C6.7452 21.1999 6.80965 21.0161 6.93299 20.8631L9.30322 18.3892C9.46313 18.245 9.66352 18.169 9.87117 18.169C10.0849 18.1693 10.2932 18.2457 10.4572 18.4008L10.7115 18.6421C10.8854 18.8071 10.9727 19.028 10.9733 19.2544C10.9726 19.4671 10.8953 19.6747 10.7401 19.8376L8.46229 22.2146ZM12.9659 21.9535L11.5277 23.4546C11.362 23.6277 11.1401 23.7144 10.9124 23.715C10.6987 23.7147 10.4903 23.638 10.3264 23.4829L10.0727 23.2418C9.89889 23.0768 9.81158 22.8557 9.81094 22.6292C9.81158 22.4165 9.88828 22.2089 10.0441 22.0463L11.4817 20.5453C11.6481 20.3722 11.87 20.2852 12.0977 20.2849C12.3108 20.2852 12.5198 20.3616 12.6837 20.517L12.9381 20.7581C13.1119 20.9231 13.1985 21.144 13.1992 21.3703C13.1984 21.583 13.1217 21.7906 12.9659 21.9535ZM25.4603 17.8818C25.46 18.0903 25.3853 18.2945 25.234 18.4567L24.9957 18.7124C24.8293 18.8904 24.6036 18.9804 24.3725 18.9807C24.1629 18.9804 23.9576 18.9067 23.7947 18.7561L19.779 15.0424L19.0846 15.7859L23.383 19.7679C23.562 19.9336 23.6519 20.1586 23.6532 20.3883C23.6519 20.5976 23.5779 20.8015 23.4269 20.9638L23.1893 21.2195C23.023 21.3974 22.7972 21.4871 22.5662 21.4878C22.3565 21.4871 22.1506 21.4131 21.989 21.2635L17.9722 17.5498L17.2785 18.2933L20.8433 21.5898C21.0151 21.7544 21.1031 21.9736 21.1031 22.1986C21.1031 22.4072 21.0291 22.6114 20.8781 22.7733L20.6398 23.029C20.4741 23.207 20.2477 23.297 20.016 23.2976C19.8056 23.297 19.6004 23.223 19.4382 23.0733L15.8806 19.7888H15.88L15.8793 19.7882L15.187 20.533L15.1877 20.5336L15.201 20.5462L16.9828 22.1907C17.1407 22.353 17.2225 22.5609 17.2231 22.776C17.2225 22.9836 17.1491 23.1868 16.9981 23.3488L16.7598 23.6048C16.5935 23.7827 16.3685 23.872 16.138 23.8727C15.9284 23.8721 15.7231 23.7984 15.5609 23.6481L14.0095 22.2116C14.1445 21.9467 14.2198 21.6593 14.2198 21.3709C14.2205 20.8817 14.0262 20.3885 13.642 20.0241L13.3877 19.7828C13.0274 19.4408 12.56 19.2701 12.0988 19.2707C12.063 19.2707 12.0269 19.2789 11.9918 19.281C11.9918 19.2725 11.9938 19.2636 11.9938 19.2551C11.9944 18.7659 11.416 17.9075 11.416 17.9075L11.1623 17.6669C10.8927 17.4112 10.5637 17.2517 10.2215 17.1876C10.2921 16.9878 10.332 16.7799 10.332 16.5716C10.332 16.0824 10.1383 15.5887 9.75416 15.2248L9.50051 14.9834C9.13945 14.6412 8.67217 14.4704 8.21092 14.4707C8.15707 14.4707 8.10393 14.4816 8.05037 14.4864C8.03572 14.0167 7.84653 13.5473 7.47838 13.1975V13.1972L7.22543 12.9569C6.86438 12.6143 6.39709 12.4435 5.93584 12.4438C5.44389 12.4435 4.9486 12.6364 4.58221 13.0189L3.97951 13.6479L1.30963 11.3707C1.11774 11.2064 1.02194 10.9793 1.02123 10.7462C1.02188 10.5508 1.08838 10.3596 1.23018 10.2008L4.04731 7.04583C4.1591 6.92038 4.32445 6.80688 4.51811 6.72807C4.71176 6.64932 4.9316 6.60608 5.13715 6.60637C5.31615 6.60637 5.48414 6.63878 5.6185 6.69673L7.16514 7.35667C7.60113 7.54042 8.10733 7.61577 8.61604 7.61741C9.12533 7.61571 9.63088 7.54036 10.0669 7.35667L11.6129 6.69702C11.8512 6.59307 12.2108 6.52862 12.5684 6.52997C12.9638 6.52757 13.3599 6.60942 13.5897 6.72667C13.7355 6.79927 13.8739 6.86817 14.0024 6.93257L12.4258 8.04087C11.9192 8.39712 11.6462 8.96366 11.6469 9.53536C11.6462 9.91376 11.7662 10.299 12.0103 10.6258L12.0096 10.6251L12.2179 10.905C12.6133 11.4307 13.2299 11.701 13.8463 11.7023C14.1943 11.7023 14.5489 11.6144 14.8649 11.4248L15.8078 10.8586C16.0001 10.741 16.2905 10.6667 16.5908 10.668C16.9436 10.666 17.2992 10.7703 17.5129 10.9274L20.1214 12.7976C20.702 13.2135 21.6476 13.9849 22.1716 14.4704L25.1909 17.2619C25.3696 17.4277 25.4596 17.6517 25.4603 17.8818ZM28.7132 10.9656L24.6909 15.4132L22.8647 13.7251C22.2928 13.1971 21.3495 12.427 20.7168 11.9726L18.109 10.1024C17.6668 9.78919 17.1255 9.65378 16.5903 9.65178C16.1348 9.65313 15.676 9.75239 15.2799 9.98823L14.3377 10.5545C14.1932 10.6414 14.0228 10.6857 13.8458 10.6861C13.5294 10.6871 13.2127 10.5395 13.0362 10.2991L12.8286 10.0196L12.8279 10.0189C12.7174 9.86999 12.666 9.70294 12.6652 9.53384C12.6666 9.27813 12.7845 9.02999 13.013 8.86874L15.8008 6.90995C16.0419 6.73546 16.4707 6.61305 16.878 6.6161C17.161 6.61475 17.4313 6.67165 17.6164 6.76305L19.886 7.86245C20.273 8.04825 20.7097 8.12425 21.149 8.1253C21.7135 8.12255 22.2841 7.99985 22.7543 7.7111L25.0727 6.26882C25.2207 6.17647 25.3983 6.12872 25.5834 6.12872C25.8964 6.12807 26.21 6.26987 26.3876 6.50132L28.7646 9.5428C28.9017 9.717 28.9811 9.96274 28.9811 10.2174C28.9815 10.5023 28.8809 10.7825 28.7132 10.9656Z" fill="#E80D0D"/>
</g>
<defs>
<clipPath id="clip0">
<rect width="30" height="30" fill="white"/>
</clipPath>
</defs>
</svg>
