<svg width="42" height="39" viewBox="0 0 42 39" fill="none" xmlns="http://www.w3.org/2000/svg">
<g clip-path="url(#clip0)">
<path d="M36.6221 6.825L30.1765 0.869354C29.997 0.703504 29.7538 0.610382 29.4999 0.610382H5.64626C5.11785 0.610382 4.68945 1.00621 4.68945 1.49445V37.2328C4.68945 37.7211 5.11785 38.1169 5.64626 38.1169H35.9456C36.4741 38.1169 36.9024 37.7211 36.9024 37.2328V7.45009C36.9024 7.21564 36.8016 6.99085 36.6221 6.825ZM30.4567 3.62881L33.6356 6.56615H30.4567V3.62881ZM6.60306 2.37851H28.5432V3.58826H6.60306V2.37851ZM34.9888 36.3487H6.60306V5.35639H28.5432V7.45021C28.5432 7.93845 28.9715 8.33428 29.5 8.33428H34.9888V36.3487Z" fill="#E80D0D"/>
<path d="M26.2309 17.9437C25.7697 17.9409 25.3153 17.9619 24.8667 17.9854C24.7014 17.9957 24.5377 18.0089 24.3742 18.022C24.2066 17.8617 24.0445 17.6961 23.8877 17.5267C22.8901 16.4355 22.0846 15.1981 21.4283 13.9122C21.6025 13.2908 21.742 12.6424 21.8262 11.969C21.9799 10.7399 22.0327 9.33918 21.5343 8.16738C21.3622 7.76295 20.9033 7.27059 20.3739 7.51577C19.7652 7.79773 19.594 8.59657 19.5444 9.16284C19.5044 9.62055 19.5324 10.0794 19.6156 10.5295C19.7003 10.9826 19.8366 11.4128 19.9851 11.8425C20.1237 12.2364 20.2764 12.6273 20.4429 13.0145C20.3372 13.3194 20.2251 13.6189 20.1074 13.9107C19.8328 14.5759 19.536 15.2078 19.2504 15.8157C19.0999 16.1171 18.9526 16.4122 18.8084 16.7006C18.3522 17.6265 17.857 18.5355 17.3012 19.4141C16.0047 19.8367 14.8412 20.3266 13.875 20.9023C13.3567 21.2117 12.8988 21.5478 12.5175 21.9164C12.1575 22.2643 11.7916 22.7159 11.7596 23.2158C11.7416 23.498 11.8625 23.7718 12.1127 23.9392C12.4568 24.1767 12.9127 24.1609 13.3119 24.0836C14.6195 23.8302 15.6236 22.7916 16.4788 21.9162C17.0678 21.3133 17.7382 20.5477 18.4395 19.6218C18.441 19.6197 18.4425 19.6175 18.4442 19.6154C19.6469 19.2709 20.956 18.98 22.3453 18.7661C22.9799 18.6689 23.6315 18.5893 24.296 18.5335C24.7633 18.9379 25.2682 19.3061 25.8191 19.6137C26.2481 19.8575 26.7044 20.0635 27.1821 20.2171C27.6651 20.3629 28.151 20.4819 28.6528 20.5573C28.9061 20.5907 29.1652 20.6059 29.4299 20.5967C30.0207 20.5761 30.8687 20.3668 30.9243 19.7044C30.9414 19.5016 30.8941 19.3238 30.7993 19.168C30.3346 18.4026 28.7287 18.1621 27.9919 18.0539C27.4111 17.9687 26.8182 17.9432 26.2309 17.9437ZM16.6552 20.3834C16.3785 20.7794 16.1116 21.1357 15.8602 21.4491C15.2444 22.2233 14.5411 23.1428 13.5228 23.4867C13.3294 23.552 13.0747 23.6194 12.8063 23.6048C12.5672 23.5918 12.3315 23.4945 12.3423 23.2435C12.3477 23.1122 12.4172 22.9447 12.5239 22.7801C12.6406 22.5997 12.7851 22.4342 12.9417 22.282C13.2771 21.9564 13.7011 21.6409 14.1889 21.3487C14.9372 20.9002 15.8304 20.4964 16.8262 20.1362C16.7689 20.2199 16.7117 20.3031 16.6552 20.3834ZM20.128 10.4512C20.0512 10.037 20.0396 9.61701 20.0868 9.21317C20.1103 9.01125 20.1548 8.81417 20.2192 8.62946C20.2738 8.47268 20.3917 8.09006 20.5798 8.0409C20.8898 7.95981 20.9851 8.57476 21.0201 8.74874C21.2199 9.73843 21.0439 10.839 20.8042 11.8098C20.766 11.9643 20.7235 12.1162 20.68 12.2676C20.6058 12.0788 20.535 11.8895 20.4698 11.6993C20.3295 11.2838 20.2011 10.8634 20.128 10.4512ZM22.2563 18.264C21.0916 18.4384 19.9836 18.667 18.9421 18.9368C19.0675 18.9044 19.6406 17.9009 19.7684 17.6926C20.3707 16.7125 20.8634 15.6838 21.2174 14.6047C21.8425 15.747 22.6012 16.8398 23.5332 17.8125C23.6191 17.9008 23.7063 17.988 23.7951 18.0742C23.2728 18.1262 22.7588 18.1895 22.2563 18.264ZM30.1332 19.6424C30.0906 19.8552 29.5988 19.9768 29.3693 20.0103C28.6912 20.1089 27.9737 20.03 27.3246 19.8285C26.8792 19.6904 26.4497 19.5023 26.0416 19.2759C25.6359 19.0495 25.2564 18.7831 24.9016 18.4894C25.339 18.4651 25.7818 18.4492 26.2268 18.4569C26.6718 18.4611 27.1202 18.4818 27.5631 18.5352C28.3938 18.6208 29.3246 18.8842 29.9784 19.3823C30.1071 19.4805 30.1482 19.5672 30.1332 19.6424Z" fill="#E80D0D"/>
<path d="M20.7318 28.1216H18.6133V33.7771H20.5936C21.6123 33.7771 22.403 33.5218 22.9653 33.0111C23.5277 32.5005 23.809 31.7733 23.809 30.8294C23.809 29.9526 23.5416 29.282 23.0072 28.8178C22.4726 28.3536 21.7142 28.1216 20.7318 28.1216ZM21.7408 32.1195C21.5063 32.3891 21.1378 32.5238 20.6355 32.5238H20.267V29.3557H20.7484C21.2006 29.3557 21.5377 29.4808 21.7595 29.7309C21.9814 29.9811 22.0923 30.3653 22.0923 30.8837C22.0925 31.4381 21.9752 31.85 21.7408 32.1195Z" fill="#E80D0D"/>
<path d="M17.0574 28.5896C16.6694 28.2776 16.0889 28.1216 15.3158 28.1216H13.1973V33.7771H14.851V31.9009H15.3158C16.0581 31.9009 16.6309 31.7288 17.0344 31.3844C17.4377 31.0403 17.6394 30.5521 17.6394 29.9203C17.6393 29.3452 17.4453 28.9016 17.0574 28.5896ZM15.7449 30.462C15.5983 30.5909 15.4008 30.6554 15.1525 30.6554H14.851V29.3557H15.2781C15.7359 29.3557 15.9647 29.5465 15.9647 29.9282C15.9646 30.155 15.8914 30.333 15.7449 30.462Z" fill="#E80D0D"/>
<path d="M24.9062 33.7771H26.5349V31.6533H28.3686V30.4271H26.5349V29.3478H28.5236V28.1216H24.9062V33.7771Z" fill="#E80D0D"/>
</g>
<defs>
<clipPath id="clip0">
<rect width="40.5924" height="37.5065" fill="white" transform="translate(0.5 0.610382)"/>
</clipPath>
</defs>
</svg>
