<svg width="37" height="37" viewBox="0 0 37 37" fill="none" xmlns="http://www.w3.org/2000/svg">
<g clip-path="url(#clip0)">
<path d="M32.2606 0H31.4649C31.1353 0 30.8682 0.267196 30.8682 0.596774C30.8682 0.926353 31.1353 1.19355 31.4649 1.19355H31.6639V35.8064H31.4649C31.1353 35.8064 30.8682 36.0736 30.8682 36.4032C30.8682 36.7328 31.1353 37 31.4649 37H32.2606C32.5903 37 32.8574 36.7328 32.8574 36.4032V0.596774C32.8574 0.267196 32.5902 0 32.2606 0Z" fill="#E80D0D"/>
<path d="M25.0993 11.1398H8.71787C8.38821 11.1398 8.12109 11.407 8.12109 11.7365C8.12109 12.0661 8.38821 12.3333 8.71787 12.3333H25.0992C25.4288 12.3333 25.696 12.0661 25.696 11.7365C25.696 11.407 25.4288 11.1398 25.0993 11.1398Z" fill="#E80D0D"/>
<path d="M25.0993 20.6882H8.71787C8.38821 20.6882 8.12109 20.9554 8.12109 21.2849C8.12109 21.6145 8.38821 21.8817 8.71787 21.8817H25.0992C25.4288 21.8817 25.696 21.6145 25.696 21.2849C25.696 20.9554 25.4288 20.6882 25.0993 20.6882Z" fill="#E80D0D"/>
<path d="M25.0994 23.871H18.5001C18.1704 23.871 17.9033 24.1382 17.9033 24.4677C17.9033 24.7973 18.1704 25.0645 18.5001 25.0645H25.0994C25.429 25.0645 25.6962 24.7973 25.6962 24.4677C25.6962 24.1382 25.429 23.871 25.0994 23.871Z" fill="#E80D0D"/>
<path d="M29.0777 0H10.3092C10.2893 0 10.2694 0.00103441 10.2496 0.00302366C10.235 0.00453548 10.2206 0.00700215 10.2063 0.00954839C10.2015 0.0104237 10.1966 0.0108215 10.1918 0.0117763C10.1747 0.0151978 10.158 0.0195742 10.1415 0.024428C10.1395 0.0250645 10.1374 0.0253828 10.1354 0.0260194C10.1185 0.0311118 10.102 0.0372387 10.0858 0.0437634C10.0841 0.0444796 10.0823 0.044957 10.0806 0.0456731C10.065 0.0521183 10.0501 0.0593591 10.0353 0.0670774C10.0328 0.0683505 10.0302 0.0693849 10.0278 0.0706581C10.014 0.0780581 10.0008 0.0862538 9.9877 0.0946086C9.98436 0.096757 9.98086 0.0985075 9.9776 0.100735C9.96534 0.108931 9.95373 0.117923 9.94211 0.126994C9.93829 0.130017 9.93431 0.132563 9.93057 0.135667C9.91681 0.146966 9.90368 0.158981 9.89095 0.171553C9.88975 0.172746 9.88848 0.173701 9.88729 0.174895L4.31739 5.74479C4.31596 5.74622 4.31477 5.74789 4.31334 5.74932C4.30116 5.76173 4.28938 5.77455 4.27832 5.78799C4.27482 5.79229 4.2718 5.79691 4.26838 5.80128C4.25978 5.81226 4.25127 5.82332 4.24347 5.83494C4.24085 5.83884 4.2387 5.84298 4.23615 5.84695C4.2282 5.85945 4.22032 5.87202 4.21332 5.88515C4.21172 5.88809 4.21053 5.89112 4.20902 5.89406C4.20162 5.90846 4.19454 5.92294 4.18825 5.93798C4.18738 5.94005 4.18674 5.94228 4.18586 5.94443C4.1795 5.96034 4.17353 5.97642 4.16852 5.99297C4.16788 5.99503 4.16748 5.99718 4.16685 5.99933C4.16199 6.0158 4.15762 6.03243 4.15427 6.04946C4.15332 6.05415 4.15292 6.05893 4.15213 6.06362C4.14958 6.07811 4.14703 6.09251 4.1456 6.10731C4.14361 6.12704 4.14258 6.14693 4.14258 6.1669V36.4035C4.14258 36.733 4.40969 37.0002 4.73935 37.0002H29.0776C29.4073 37.0002 29.6744 36.733 29.6744 36.4035V0.596774C29.6745 0.267196 29.4073 0 29.0777 0ZM9.71247 2.03747V5.56989H6.18012L9.71247 2.03747ZM28.4809 35.8064H5.33613V6.76344H10.3092C10.6389 6.76344 10.906 6.49624 10.906 6.16667V1.19355H28.4809V35.8064H28.4809Z" fill="#E80D0D"/>
<path d="M12.6964 6.76343H25.0992C25.4289 6.76343 25.696 6.49624 25.696 6.16666C25.696 5.83708 25.4289 5.56989 25.0992 5.56989H12.6964C12.3667 5.56989 12.0996 5.83708 12.0996 6.16666C12.0996 6.49624 12.3668 6.76343 12.6964 6.76343Z" fill="#E80D0D"/>
<path d="M25.0994 14.3226H18.5001C18.1704 14.3226 17.9033 14.5898 17.9033 14.9193C17.9033 15.2489 18.1704 15.5161 18.5001 15.5161H25.0994C25.429 15.5161 25.6962 15.2489 25.6962 14.9193C25.6962 14.5898 25.429 14.3226 25.0994 14.3226Z" fill="#E80D0D"/>
<path d="M25.0994 17.5054H18.5001C18.1704 17.5054 17.9033 17.7726 17.9033 18.1021C17.9033 18.4317 18.1704 18.6989 18.5001 18.6989H25.0994C25.429 18.6989 25.6962 18.4317 25.6962 18.1021C25.6962 17.7726 25.429 17.5054 25.0994 17.5054Z" fill="#E80D0D"/>
<path d="M15.3172 25.0645C15.6468 25.0645 15.9139 24.7973 15.9139 24.4677C15.9139 24.1382 15.6468 23.871 15.3172 23.871H8.71787C8.38821 23.871 8.12109 24.1382 8.12109 24.4677V30.8333C8.12109 31.1629 8.38821 31.4301 8.71787 31.4301H15.3172C15.6468 31.4301 15.9139 31.1629 15.9139 30.8333V26.8548C15.9139 26.5253 15.6468 26.2581 15.3172 26.2581C14.9875 26.2581 14.7204 26.5253 14.7204 26.8548V30.2366H9.31464V25.0645H15.3172Z" fill="#E80D0D"/>
<path d="M8.71787 18.6989H15.3172C15.6468 18.6989 15.9139 18.4317 15.9139 18.1021C15.9139 17.7726 15.6468 17.5054 15.3172 17.5054H8.71787C8.38821 17.5054 8.12109 17.7726 8.12109 18.1021C8.12109 18.4317 8.38829 18.6989 8.71787 18.6989Z" fill="#E80D0D"/>
<path d="M21.1209 30.2366H18.5001C18.1704 30.2366 17.9033 30.5038 17.9033 30.8333C17.9033 31.1629 18.1704 31.4301 18.5001 31.4301H21.1209C21.4505 31.4301 21.7177 31.1629 21.7177 30.8333C21.7177 30.5038 21.4505 30.2366 21.1209 30.2366Z" fill="#E80D0D"/>
<path d="M25.0994 27.0538H18.5001C18.1704 27.0538 17.9033 27.321 17.9033 27.6505C17.9033 27.9801 18.1704 28.2473 18.5001 28.2473H25.0994C25.429 28.2473 25.6962 27.9801 25.6962 27.6505C25.6962 27.321 25.429 27.0538 25.0994 27.0538Z" fill="#E80D0D"/>
<path d="M8.71787 15.5161H15.3172C15.6468 15.5161 15.9139 15.2489 15.9139 14.9193C15.9139 14.5898 15.6468 14.3226 15.3172 14.3226H8.71787C8.38821 14.3226 8.12109 14.5898 8.12109 14.9193C8.12109 15.2489 8.38829 15.5161 8.71787 15.5161Z" fill="#E80D0D"/>
</g>
<defs>
<clipPath id="clip0">
<rect width="37" height="37" fill="white"/>
</clipPath>
</defs>
</svg>
