<svg width="83" height="28" viewBox="0 0 83 28" fill="none" xmlns="http://www.w3.org/2000/svg">
<path d="M33.8516 12.1371V5.77295H36.5086C38.4756 5.77295 39.9256 6.95535 39.9256 8.93765C39.9256 10.9199 38.5106 12.1024 36.5436 12.1024H33.8516V12.1371ZM38.2686 8.97245C38.2686 7.99865 37.6826 7.23355 36.5436 7.23355H35.5086V10.7112H36.5436C37.6136 10.7112 38.2686 9.91135 38.2686 8.97245Z" fill="#A8AAAC"/>
<path d="M40.5464 8.97271C40.5464 7.02511 41.9964 5.70361 43.9284 5.70361C45.8614 5.70361 47.2764 7.05981 47.2764 8.97271C47.2764 10.8854 45.8264 12.2417 43.9284 12.2417C41.9614 12.2417 40.5464 10.8854 40.5464 8.97271ZM45.6194 8.97271C45.6194 7.92931 44.9644 7.12941 43.9284 7.12941C42.8934 7.12941 42.2034 7.92931 42.2034 8.97271C42.2034 10.0159 42.8594 10.8158 43.9284 10.8158C44.9294 10.8158 45.6194 9.98111 45.6194 8.97271Z" fill="#A8AAAC"/>
<path d="M51.7622 12.1371L50.6922 10.0157H49.8642V12.1371H48.2422V5.77295H51.3822C52.7622 5.77295 53.5562 6.71185 53.5562 7.89435C53.5562 9.00725 52.9002 9.59835 52.3142 9.80705L53.5912 12.1371H51.7622ZM51.9342 7.89435C51.9342 7.47695 51.5892 7.23355 51.1402 7.23355H49.8642V8.58985H51.1402C51.5552 8.58985 51.9342 8.34645 51.9342 7.89435Z" fill="#A8AAAC"/>
<path d="M54.2124 8.97271C54.2124 7.02511 55.6624 5.70361 57.5944 5.70361C59.5274 5.70361 60.9424 7.05981 60.9424 8.97271C60.9424 10.8854 59.4924 12.2417 57.5944 12.2417C55.6624 12.2417 54.2124 10.8854 54.2124 8.97271ZM59.3204 8.97271C59.3204 7.92931 58.6644 7.12941 57.6294 7.12941C56.5934 7.12941 55.9034 7.92931 55.9034 8.97271C55.9034 10.0159 56.5594 10.8158 57.6294 10.8158C58.6294 10.8158 59.3204 9.98111 59.3204 8.97271Z" fill="#A8AAAC"/>
<path d="M66.1503 12.1371V9.59835H63.5283V12.1371H61.9062V5.77295H63.5283V8.17255H66.1503V5.80775H67.7722V12.1371H66.1503Z" fill="#A8AAAC"/>
<path d="M68.7402 8.97271C68.7402 7.02511 70.1892 5.70361 72.1212 5.70361C74.0552 5.70361 75.4692 7.05981 75.4692 8.97271C75.4692 10.8854 74.0202 12.2417 72.1212 12.2417C70.1892 12.2417 68.7402 10.8854 68.7402 8.97271ZM73.8122 8.97271C73.8122 7.92931 73.1572 7.12941 72.0872 7.12941C71.0522 7.12941 70.3612 7.92931 70.3612 8.97271C70.3612 10.0159 71.0172 10.8158 72.0872 10.8158C73.1572 10.8158 73.8122 9.98111 73.8122 8.97271Z" fill="#A8AAAC"/>
<path d="M77.8854 12.1371L75.5044 5.77295H77.3324L78.8854 10.3634L80.4374 5.77295H82.2674L79.8864 12.1024H77.8854V12.1371Z" fill="#A8AAAC"/>
<path d="M33.8516 21.6319V15.3024H36.5086C38.4756 15.3024 39.9256 16.4848 39.9256 18.4671C39.9256 20.4494 38.5106 21.6319 36.5436 21.6319H33.8516ZM38.2686 18.4671C38.2686 17.4933 37.6826 16.7283 36.5436 16.7283H35.5086V20.2059H36.5436C37.6136 20.2059 38.2686 19.4061 38.2686 18.4671Z" fill="#A8AAAC"/>
<path d="M40.8926 21.6319V15.3024H45.4826V16.7283H42.4806V17.702H45.4136V19.1279H42.4806V20.2059H45.4826V21.6319H40.8926Z" fill="#A8AAAC"/>
<path d="M46.207 20.7621L47.069 19.5449C47.518 19.997 48.208 20.3796 49.071 20.3796C49.623 20.3796 49.968 20.1709 49.968 19.8579C49.968 18.9884 46.414 19.684 46.414 17.2496C46.414 16.1715 47.311 15.2325 48.933 15.2325C49.933 15.2325 50.831 15.5455 51.486 16.1019L50.589 17.2844C50.071 16.8323 49.381 16.6236 48.76 16.6236C48.277 16.6236 48.07 16.7975 48.07 17.0757C48.07 17.8756 51.624 17.2844 51.624 19.6492C51.624 20.9359 50.693 21.7706 49.002 21.7706C47.725 21.7706 46.828 21.3533 46.207 20.7621Z" fill="#A8AAAC"/>
<path d="M52.5566 21.6319V15.3024H54.1786V21.6319H52.5566Z" fill="#A8AAAC"/>
<path d="M55.1445 18.4669C55.1445 16.4498 56.6625 15.198 58.5605 15.198C59.9755 15.198 60.8035 15.9629 61.2525 16.7281L59.9065 17.4235C59.6655 17.0062 59.1825 16.6236 58.5605 16.6236C57.5255 16.6236 56.8005 17.4237 56.8005 18.4669C56.8005 19.5102 57.5255 20.3102 58.5605 20.3102C59.0095 20.3102 59.4925 20.1362 59.7345 19.9276V19.4406H58.3195V18.0149H61.3565V20.5537C60.6655 21.3188 59.7685 21.8055 58.5605 21.8055C56.6975 21.7708 55.1445 20.484 55.1445 18.4669Z" fill="#A8AAAC"/>
<path d="M66.7731 21.6319L64.1161 17.9802V21.6666H62.4941V15.3024H64.1501L66.7041 18.7801V15.3024H68.3261V21.6319H66.7731Z" fill="#A8AAAC"/>
<path d="M10.7665 0H0V27.3698H10.8355C19.9456 27.3698 25.812 21.9793 25.812 13.6675C25.7773 5.3557 19.9111 0 10.7665 0ZM10.4903 21.875H5.6938V5.8774H10.5594C16.1843 5.8774 20.118 8.1031 20.118 13.7022C20.118 18.1886 16.5292 21.875 10.4903 21.875Z" fill="#A8AAAC"/>
<path d="M11.5958 10.4333H10.3535V16.9367H11.5958C14.0458 16.9367 15.4951 15.4412 15.4951 13.5981C15.4607 11.3375 13.8732 10.4333 11.5958 10.4333Z" fill="#A8AAAC"/>
</svg>
