<svg width="10" height="10" viewBox="0 0 10 10" fill="none" xmlns="http://www.w3.org/2000/svg">
<g clip-path="url(#clip0)">
<path d="M9.12117 1.19141H0.878984C0.743691 1.19141 0.617031 1.22467 0.502441 1.27949L4.98055 5.7576L5.98424 4.79301C5.98424 4.79301 5.98432 4.79291 5.98434 4.79287C5.98436 4.79283 5.98443 4.79279 5.98443 4.79279L9.49785 1.27957C9.38324 1.22471 9.2565 1.19141 9.12117 1.19141Z" fill="white"/>
<path d="M9.91203 1.69391L6.60571 5.00004L9.91191 8.30623C9.96673 8.19164 10 8.06498 10 7.92969V2.07032C10 1.9351 9.96681 1.80846 9.91203 1.69391Z" fill="white"/>
<path d="M0.0880859 1.69379C0.0332617 1.80838 0 1.93504 0 2.07033V7.9297C0 8.06492 0.0332227 8.1916 0.0880078 8.30615L3.39432 5.00002L0.0880859 1.69379Z" fill="white"/>
<path d="M6.19142 5.41435L5.18759 6.37905C5.13036 6.43628 5.0554 6.46489 4.98046 6.46489C4.90552 6.46489 4.83054 6.43628 4.77333 6.37905L3.80856 5.41431L0.502197 8.72045C0.616807 8.77532 0.743545 8.80862 0.878877 8.80862H9.12106C9.25636 8.80862 9.38302 8.77535 9.49761 8.72053L6.19142 5.41435Z" fill="white"/>
</g>
<defs>
<clipPath id="clip0">
<rect width="10" height="10" fill="white"/>
</clipPath>
</defs>
</svg>
