<svg width="8" height="10" viewBox="0 0 8 10" fill="none" xmlns="http://www.w3.org/2000/svg">
<path d="M3.62154 0C5.61852 0 7.24316 1.62465 7.24316 3.6216C7.24316 6.09988 4.00217 9.73815 3.86418 9.89182C3.73457 10.0362 3.50828 10.0359 3.37891 9.89182C3.24092 9.73815 -7.88921e-05 6.09988 -7.88921e-05 3.6216C-3.98296e-05 1.62465 1.62459 0 3.62154 0ZM3.62154 5.44373C4.62627 5.44373 5.44365 4.62633 5.44365 3.6216C5.44365 2.61688 4.62625 1.79949 3.62154 1.79949C2.61684 1.79949 1.79945 2.61689 1.79945 3.62162C1.79945 4.62635 2.61684 5.44373 3.62154 5.44373Z" fill="white"/>
</svg>
