<svg width="10" height="10" viewBox="0 0 10 10" fill="none" xmlns="http://www.w3.org/2000/svg">
<g clip-path="url(#clip0)">
<path d="M1.41216 5.19608L8.31709 9.9581C8.39018 10.0083 8.48495 10.0136 8.56305 9.97286C8.64138 9.93167 8.69043 9.85072 8.69043 9.76214L8.69043 0.238105C8.69043 0.149531 8.64138 0.0683393 8.56305 0.0271482C8.52828 0.00905226 8.49019 3.79719e-06 8.45233 3.79388e-06C8.40495 3.78974e-06 8.3578 0.0142908 8.31709 0.0421486L1.41216 4.80417C1.34764 4.84869 1.3093 4.92179 1.3093 5.00012C1.3093 5.07846 1.34787 5.15155 1.41216 5.19608Z" fill="#E80D0D"/>
</g>
<defs>
<clipPath id="clip0">
<rect width="10" height="10" fill="white" transform="translate(10 10) rotate(-180)"/>
</clipPath>
</defs>
</svg>
