<svg width="10" height="10" viewBox="0 0 10 10" fill="none" xmlns="http://www.w3.org/2000/svg">
<path d="M7.10384 0H2.89642C2.49375 0 2.1687 0.326507 2.1687 0.728445V9.27228C2.1687 9.67386 2.49375 10 2.89642 10H7.10384C7.50578 10 7.83155 9.67386 7.83155 9.27228V0.728445C7.83155 0.326507 7.50578 0 7.10384 0ZM3.96194 0.442388H6.03905C6.09152 0.442388 6.13416 0.520735 6.13416 0.617666C6.13416 0.714598 6.09152 0.79331 6.03905 0.79331H3.96194C3.9091 0.79331 3.86719 0.714598 3.86719 0.617666C3.86719 0.520735 3.9091 0.442388 3.96194 0.442388ZM5.00049 9.28103C4.74432 9.28103 4.53588 9.07259 4.53588 8.81605C4.53588 8.55951 4.74432 8.3518 5.00049 8.3518C5.25594 8.3518 5.46438 8.55951 5.46438 8.81605C5.46438 9.07259 5.25594 9.28103 5.00049 9.28103ZM7.2864 7.68894H2.71422V1.22914H7.2864V7.68894Z" fill="white"/>
</svg>
