<svg width="10" height="16" viewBox="0 0 10 16" fill="none" xmlns="http://www.w3.org/2000/svg">
<g clip-path="url(#clip0)">
<path d="M9.15228 8.9933C9.04844 8.88938 8.92535 8.83746 8.78313 8.83746H1.43324C1.29096 8.83746 1.16796 8.88938 1.06404 8.9933C0.960121 9.09734 0.908203 9.22034 0.908203 9.36253C0.908203 9.50469 0.960121 9.62769 1.06404 9.73164L4.739 13.4066C4.84304 13.5105 4.96604 13.5626 5.1082 13.5626C5.25037 13.5626 5.37348 13.5105 5.47732 13.4066L9.15228 9.73162C9.25608 9.62769 9.3082 9.50469 9.3082 9.3625C9.3082 9.22034 9.25608 9.09734 9.15228 8.9933Z" fill="white"/>
</g>
<g clip-path="url(#clip1)">
<path d="M1.06452 6.40669C1.16836 6.51061 1.29144 6.56253 1.43366 6.56253L8.78355 6.56253C8.92583 6.56253 9.04883 6.51061 9.15275 6.40669C9.25668 6.30265 9.30859 6.17965 9.30859 6.03746C9.30859 5.8953 9.25668 5.7723 9.15275 5.66835L5.47779 1.99339C5.37376 1.88947 5.25076 1.83744 5.10859 1.83744C4.96643 1.83744 4.84332 1.88947 4.73948 1.99339L1.06452 5.66838C0.960714 5.7723 0.908595 5.8953 0.908595 6.03749C0.908595 6.17966 0.960714 6.30265 1.06452 6.40669Z" fill="white"/>
</g>
<defs>
<clipPath id="clip0">
<rect x="0.908203" y="7" width="8.4" height="8.4" fill="white"/>
</clipPath>
<clipPath id="clip1">
<rect x="9.30859" y="8.39999" width="8.4" height="8.4" transform="rotate(180 9.30859 8.39999)" fill="white"/>
</clipPath>
</defs>
</svg>
