<svg width="30" height="30" viewBox="0 0 30 30" fill="none" xmlns="http://www.w3.org/2000/svg">
<g clip-path="url(#clip0)">
<path d="M21.4847 6.60071H8.51576C7.43479 6.60071 6.55664 7.48526 6.55664 8.57745L7.44121 28.0398C7.44121 29.1213 8.32097 29.9994 9.40086 29.9994H20.599C21.6805 29.9994 22.5587 29.1261 22.5587 28.057L23.4432 8.55925C23.4443 7.48045 22.564 6.60071 21.4847 6.60071ZM20.598 28.0655L9.37571 28.0238L8.49061 8.56032C8.49061 8.54748 8.50184 8.53571 8.51576 8.53571L21.5087 8.5432L20.598 28.0655Z" fill="#E80D0D"/>
<path d="M15.0097 26.9664C15.5818 26.9664 16.0479 26.5008 16.0479 25.9288V11.8958C16.0479 11.3242 15.5829 10.8587 15.0097 10.8587C14.4382 10.8587 13.9727 11.3242 13.9727 11.8958V25.9283C13.9732 26.5003 14.4377 26.9664 15.0097 26.9664Z" fill="#E80D0D"/>
<path d="M18.7658 26.9659H18.7765C19.3432 26.9659 19.8093 26.5062 19.8152 25.9395L19.9752 11.9086C19.9784 11.6309 19.874 11.3697 19.6793 11.1712C19.4845 10.9727 19.2265 10.8619 18.937 10.8587C18.3698 10.8587 17.9048 11.3184 17.8994 11.8845L17.7383 25.9154C17.733 26.488 18.1927 26.9594 18.7658 26.9659Z" fill="#E80D0D"/>
<path d="M11.2222 26.9659H11.2329C11.8055 26.9589 12.2662 26.4875 12.2593 25.9154L12.0993 11.8845C12.0929 11.3184 11.6268 10.8587 11.0499 10.8587C10.7716 10.8619 10.5126 10.9727 10.3184 11.1712C10.1246 11.3697 10.0203 11.6309 10.0235 11.9086L10.1835 25.9395C10.1894 26.5057 10.656 26.9659 11.2222 26.9659Z" fill="#E80D0D"/>
<path d="M7.87016 5.83819L22.3647 5.00233C22.6152 4.98841 22.8442 4.87764 23.0117 4.68928C23.1787 4.50199 23.2632 4.26118 23.2461 4.01181C23.2177 3.51469 22.8078 3.12726 22.3096 3.12726L7.81504 3.96312C7.56514 3.97703 7.33557 4.0878 7.16914 4.27617C7.00218 4.46346 6.91709 4.70426 6.93368 4.95416C6.9599 5.44969 7.37195 5.83819 7.87016 5.83819ZM7.87016 5.56313C7.87016 5.56313 7.87016 5.56367 7.87016 5.56313V5.57062V5.56313Z" fill="#E80D0D"/>
<path d="M12.7643 3.36805L12.82 3.36645C13.0774 3.352 13.3155 3.23748 13.4862 3.04377C13.6585 2.85112 13.7452 2.60283 13.7297 2.34436L13.7409 2.08215L16.3272 1.958L16.3406 2.19346C16.3711 2.70504 16.7944 3.10531 17.3055 3.10531L17.3622 3.1037C17.6201 3.08872 17.8577 2.9742 18.029 2.78102C18.2013 2.58838 18.2864 2.33955 18.2724 2.08108L18.2591 1.84616C18.1975 0.772175 17.2701 -0.0551234 16.1908 0.00266977L13.6291 0.150363C12.5497 0.211902 11.723 1.14141 11.7866 2.21914L11.8 2.45513C11.8289 2.96778 12.2522 3.36805 12.7643 3.36805ZM12.7643 3.0946V3.10156V3.0946Z" fill="#E80D0D"/>
</g>
<defs>
<clipPath id="clip0">
<rect width="30" height="30" fill="white"/>
</clipPath>
</defs>
</svg>
