<svg width="154" height="95" fill="none" xmlns="http://www.w3.org/2000/svg"><path fill-rule="evenodd" clip-rule="evenodd" d="M82.1 64.271h5.552l.04 10.712c1.016-.039 1.563-.704 1.602-2.072l.117-4.965c.04-1.837.313-3.05.9-3.714h5.12c-.507.626-.742 1.877-.742 3.831l.04 4.34c0 2.62-1.213 4.144-3.715 4.496 2.502.352 3.753 1.876 3.714 4.574l-.039 4.026c0 1.916.235 3.284.743 4.105H90.31c-.586-.625-.899-1.876-.899-3.713v-4.966c0-.625-.156-1.133-.469-1.524a1.517 1.517 0 00-1.212-.587l-.039 10.751H82.14V64.271h-.04zm27.953 25.412h-5.551v-20.33h-1.603V83.74c0 1.877-.196 3.245-.626 4.066-.43.821-1.016 1.33-1.876 1.564-.821.195-2.15.313-3.988.313h-.86v-4.379c.665 0 1.134-.117 1.407-.313.274-.195.391-.86.391-2.033V64.271h12.706v25.412zm11.728-25.412l3.167 25.412h-5.629l-.313-4.574h-1.994l-.313 4.574h-5.708l2.815-25.412h7.975zm-2.932 16.342c-.273-2.893-.547-6.45-.821-10.712-.547 4.887-.899 8.444-1.055 10.712h1.876zM141.72 94.06h-3.832v-4.378h-8.913v4.378h-3.831v-9.656h1.133c.587-2.072 1.095-4.809 1.486-8.21.391-3.401.586-7.115.586-11.103v-.782h6.295c.117.391.039.743.273 1.408.235.43.118.86.587 1.524.469.313 1.016 1.095 1.642 1.251.508.04 1.446-1.329 1.837-1.329-.156 1.056.43.587.274 1.408-.039.508-.821 2.032-.235 2.658.469.43 1.29 1.447 1.564 1.447v11.728h1.134v9.656zm-6.685-9.695V69.314h-1.642v.196c0 4.848-.43 9.813-1.33 14.856h2.972z" fill="#E80D0D"/><path fill-rule="evenodd" clip-rule="evenodd" d="M13.333 81.434c.509-.196.821-.313 1.095-.391.43-.157.821-.352 1.212-.547.43-.235.586-.274.938-.626l.117-.117c.665-.47 3.089-.313 3.988-.547-.117.039-.195.117-.274.195l.391-.274c.509-.156.939.157.743.665-.352 1.016-3.596 1.094-4.496 1.525.04 0 0 0 .04-.04-.352.274-.704.391-1.134.509-.704.195-1.017.195-1.564.352a1.908 1.908 0 00-.43.156c-.078.039-.117.039-.196.078a.725.725 0 01-.273.078 17.297 17.297 0 01-2.815.587h-.352c-.586.039-1.72.43-2.111.195-.352-.195-.274-.273-.782-.469-.665-.235-2.346-.665-2.776-1.016-.39-.352-.742-1.447-1.25-2.033-.235-.274-.509-.47-.783-.743-.273-.274-.508-.47-.664-.665-.313-.273-.43-.547-.43-.938-.04-.234-.04-.508-.04-.86.079-1.134-.117-1.368-.508-1.76-.508-.468-1.016-.781-.977-1.798l.04-.234c.038-.157.077-.274.116-.43.118-.47.313-.939.391-1.447.04-.586 0-.547-.234-1.055-.235-.743-.235-.782.117-1.564.196-.43.547-1.173.978-1.72.117-.157.273-.313.39-.47 1.056-.664 3.793-1.016 5.044-1.133.664-.04 1.329 0 1.993-.04.04-.117 0-.077.079-.39.234-1.33.117-2.307-.391-3.48l-.078-.117c-.587-.938-.9-1.173-1.134-2.306-.117-1.173.313-2.463.938-3.597.977-1.838 2.268-2.932 4.613-2.776 1.017.078 1.173.313 1.251 1.212 0 1.525-.273 4.73.157 6.06.39.86.703.899 1.211 1.603.157.312.079.156.196.508.235.665.352.899.743 1.485.743 1.095 2.19 2.268 2.658 3.363.313.938.665 1.837.978 2.775.508 1.212.938 2.463 1.29 3.401 0 .04.313.704.234.86l-.117.157c-.391.117-.47.156-.586-.156-.43-1.056-.821-2.19-1.212-3.284-.587-1.408-1.212-2.776-1.603-3.323-.978-1.33-2.737-2.659-3.402-4.105-.195-.391-.195-.86-.43-1.134-1.368-1.564-1.25-1.837-1.211-3.91 0-.781.117-3.714-.04-4.3-.312-.117-1.485.04-1.798.196-1.485.782-2.697 3.4-2.736 4.69.078.9.547 1.877 1.172 2.542.313.313 1.134.743.978 1.134-.118.273-.313.313-.587.273.079.313.118.626.157 1.017v.274c.039.586-.04.899-.118 1.368h.04c1.25.117 1.563 0 2.462.704h-.039c1.017.703 1.212 1.603 1.408 2.736.039.04 0 0 .078.04.547.508.626 1.055.782 1.758.039.43.078.587-.04.9.43.273.43.703.665 1.094 1.056.352 1.877.704 2.815 1.251.43.274.978.626 1.173 1.095.156.391-.117.782-.586.704-.196 0-.235-.079-.313-.196v.04c-.587-.626-1.877-1.173-2.815-1.525 0 .312-.078.586-.313 1.016.078.157.157.391.157.508.351 1.916-.079 2.971-1.916 4.496-.625.47-.782.587-1.407.939-.04 0-.04.039-.079.039h-.039c-.039 0-.078.039-.117.039-.156.078-.352.195-.508.273-.118.118-.274.235-.43.274-.117.078-.235.117-.352.156-.04.079-.117.118-.196.196-.195.156-.351.195-.469.195-.078 0-.156.04-.195 0-.04 0-.078.04-.117.04l-.118.038c-.39.118-1.016.157-.977-.312.039-.313.352-.391.625-.508a21.47 21.47 0 002.776-1.525c1.564-1.056 2.502-1.955 2.385-3.597-.04-.156-.04-.313-.078-.469-.391.313-.821.586-1.251.9-1.212.86-4.066 1.954-5.552 2.462-.352.313-1.368 1.212-1.759.626l-.04-.157h-.038c-.313 0-.508-.117-.548-.313-.117-.351.313-.547.665-.664a12.409 12.409 0 001.564-.547c.704-.313 1.407-.587 2.111-.9.743-.312 2.072-.86 2.698-1.25.43-.235 1.954-1.173 2.15-1.603.117-.548.039-.86-.079-1.33-.117-.39-.039-.234-.234-.547l-.078-.078c-.626.352-1.134.43-1.877.704l-2.11.82c-.783.274-1.526.509-2.307.743a66.16 66.16 0 01-2.229.626c-.234.273-.508.469-.86.664-.352.196-.782.118-.86-.195-.078-.117-.04-.235 0-.313a.305.305 0 01-.156-.156c-.196-.391.312-.704.703-.821.665-.157 1.212-.274 1.916-.508l1.056-.352c.508-.157.664-.04.977-.157.234-.234.469-.312.782-.43.938-.312 2.15-.782 3.127-1.055a7.1 7.1 0 001.525-.548c.078-.234.078-.43.04-.664-.04-.313-.157-1.017-.51-1.134-1.055-.352-2.306-.156-3.479.078-1.016.235-1.993.391-3.01.587-.508.117-1.016.234-1.564.351-.351.079-1.642.43-1.876.391-.313-.078-.352-.234-.352-.39 0 .039 0 .078.04.117l-.04-.196c0-.039.04-.117.04-.156-.04.04-.04.078-.04.117v-.039c.04-.156.156-.273.313-.39l-.04-.235.196-.274c.43-.352 1.056-.195 1.486 0 1.603-.391 3.088-.821 4.691-1.095 1.212-.195 2.111-.312 3.088-.156a3.674 3.674 0 00-.469-.86l-.234-.196c-.47-.43-.196-.43-1.056-.508-1.173-.078-2.228-.117-3.44 0-1.33.117-3.362.235-4.613.704-.274.235-.626.9-.782 1.173-.47.938-.508.82-.156 1.642.351.86.156 1.485-.157 2.424-.234.938-.234 1.094.43 1.798.235.274.47.469.626.782.586 1.016.117 1.603.273 2.424.118.625 1.212 1.407 1.72 1.954.313.391.47.626.704 1.056.508 1.016.235.82 1.369 1.212.39.117.742.234 1.133.352.665.234.821.273 1.251.586.509-.078.978-.234 1.564-.273.86-.04 1.838-.235 2.737-.509-.235-.156-.196-.156-.157-.156zm-8.366-2.62c.04.079.078.118.157.157l-.157-.157zm-1.525-3.557a.31.31 0 00.157.156l-.157-.156zm-.82-5.16v-.118.117zm.312.312h.117c0 .04-.078.04-.117 0zm6.138 11.924s.04.04.078.04c-.039 0-.039-.04-.078-.04z" fill="#31305C"/><path fill-rule="evenodd" clip-rule="evenodd" d="M126.278 19.82c-.313-.39-.118-.155-.587-.43l.157-.82c.117-.626.312-.665.469-1.134.195-.508-.039-.273.313-.977l.508-1.486c.195-.704-.078-.625-.274-1.25-.117-.47 0-.978 0-1.291-.039-.626-.274-.665-.195-1.447.117-.977.586-.899-.274-2.619l-.43-1.134c-.039-.078-.274-.351-.391-.469 0-.039-.039-.039-.078-.078 0-.039-.039-.039-.078-.078 0-.04-.04-.04-.079-.078-.86-.978-.508-1.056-1.837-1.877-1.407-.86-.821-.82-1.916-1.368-2.267-1.095-.742-.743-2.228-1.877-1.525-1.172-3.44-1.055-4.691-1.133-1.017-.079-.548-.235-1.916-.274H111.5c-1.525.078-5.278 1.056-6.685 1.564-.391.156-.821.352-1.173.547l-1.173.821c-.352.274 0-.039-.234.196l-.821.899c-.04.117-.157.586-.157.703-.078.587-.039 1.173.117 1.564l.509.86c-1.056 1.408-3.245 1.72-3.949 3.636 1.33-.82 2.111-1.916 3.597-2.62.938-.43.977-.82 2.072-.351.391.156.821.313 1.212.156.039 0 .078-.039.117-.039.547-.352.078-.43-.234-.782.43.078 1.133.196 1.485.43 1.564.978 1.056.352 2.619.782 1.525.391 2.385-.195 3.011-.156 1.446.078 3.362.352 4.613-.352l.664 1.056c.587 1.133 1.682 1.954 2.503 2.697 1.016.86.547 1.486.664 2.346.039.352.313.742.352 1.329.039.43.039 1.056 0 1.486-.43-.157-1.173-.704-1.642-.939-.665-.352-3.206.274-4.691.47-.196.038-.86.195-1.134.273-.547.195-.391.235-.743.547-1.329-.352-.664-1.25-1.446-1.563-.548 1.368.977 1.954.86 2.853-.078.548 0 .079-.157.43l-.508 1.955c-.078.313-.156.313-.274.587-.508 1.29 1.017 1.602-.234 2.893-.977.977-2.072.234-2.932-.196.195.821 1.055 1.603 1.564 2.268h1.563c.196-.352.352-.782.978-.548.625.274-.078.43 1.329.391.43-1.133.391-1.29.195-2.502-.664-.313-.351.313-.547-.273-.313-1.799-.234-2.033-.117-3.714 1.134.273.391.39 1.642 0 .43.703.664.742 1.759.86 1.837.156.86-.548 1.994-.587-.078.86-.352.313-.235 1.251 1.29-.195.391-.078.978-.938.195-.274.742-.508 1.212-.39.86.195 1.681 1.016 1.759 1.797.039.665-.274 2.698-.469 3.089l-.509.469a4.974 4.974 0 00-.469.391l-.625.625c-.039.04-.039.079-.078.079 0 0-.079.117-.079.078 0-.04-.039.078-.078.078.196.352.821.704.86.86a16.1 16.1 0 01-.234 3.167c-.274 1.407-.118 1.368-.899 2.345-.47.587-2.072 1.799-2.659 2.307-.391.352-.821.86-1.251 1.173-1.485.899-1.212 2.15-4.066 1.33a6.017 6.017 0 00-.664-.196c-.704-.196-1.33-.352-2.111-.352-.626 0-1.056.039-1.564-.117-.665-.196-.508-.392-1.095-.196-.078-.625-.586-.9-.899-1.368-.43-.665-.704-1.564-1.251-2.19-1.798-2.032-1.212-1.524-1.837-3.674-.391-1.252-.274-2.58-.079-3.91.157-1.173-.078-.782-.195-1.76-.274-2.54.039-3.713.313-6.059.195-1.564-.391-5.278.039-6.216.352-.82 1.603-2.072 1.759-2.736l-3.597 1.29c-.352.156-.39.351-.743.586l-.39.157c-.352.156-.587.547-.9.43l-.039-.04-.156.04c-.156.156-.117.195-.156.39v.274c.234.156.234.117.39.313l.313.43c.313-.352.938-1.368 1.251-1.486 0 0 .352-.039.548.04-.86 1.172-.743 1.524-1.564 1.954.352.978-.352.587.547 1.994.352.586.704 1.173.977 1.76.04.781.196.351.43 1.29l-.82.625c-.391.39-.313.704-.196 1.29l.156.938c.04.508 0 1.056 0 1.564v4.3c.079 1.134.235.978.43 1.056l.235.274c.626.82.508.39.508 2.384 0 .821-.117.939-.43 1.408h-1.29c-.665.078-.195-.04-.43.195l-.586-.039c-.157.47-.782.977-1.173 1.251l-1.525.9c-.313.195-1.25.664-1.72.703l-1.486-.195c-1.798-.274-4.105-.313-5.16-.548-3.01-.743-2.033-.273-4.613-.39-1.642-.079-5.434-.392-6.96.038-2.306.626-4.808.978-7.153 1.408l-2.737 1.094c-.704.196-.782.352-1.212.665-.313.235-.195.117-.43.274l-.664.625-.352.352-2.58 2.854c-.509.625-.47.274-.86.977-.352.626-.157.508-.744 1.134l-.078.078-1.642 1.095c-.039 0-.078.039-.078.039l-2.541 1.877c-.43.117-.665.586-1.173.664-.547.117-1.095-.039-1.76.078-1.328.274-3.01.196-4.143 1.017l-.626.664c-.43.626-1.094 1.134-1.485 1.799l-.547 1.016c-1.799 0-3.48-.039-5.083.782-.703.352-1.564.508-2.267.743-1.681.586-2.385 1.25-3.753 2.111l-1.642 1.33c-.118.077-.274.234-.391.312l-.821.586c-1.173 1.134-2.15 2.424-3.519 3.323-.039 0-.078.04-.078.04l-5.942 2.775c-.235.078-.43.157-.626.157-3.792 2.893-3.596.547-3.206 2.345.939 1.408.587 2.58 3.167 6.06.626 3.166-.39 2.463-.235 7.232.079 1.173.157.665 2.072.196a481.83 481.83 0 014.81-1.056l12.9-3.518c1.603-.508 13.488-4.77 14.622-4.809.782-.039.469.156.977.43s.782.235 1.173-.117c.977-.782.86-.196 2.228-.196.117-1.407 1.525-1.212 2.385-1.876.43-.313 0-.078.547-.313l1.095-.743c.508-.312.782-.117 1.486-.234.938-.157 1.759-.704 2.775-.782a9.197 9.197 0 004.027-1.251c1.29-.743 3.128-4.066 6.45-3.089 1.252.352 1.33.509 3.128-.586.704-.43 1.838-.586 2.737-.821l4.535-.782c.586-.078 1.212 0 1.837-.039l2.268-.313c1.329-.156.664-.234 2.189 0 1.055.157 2.346-.039 3.323-.195.665-.117 1.056.117 1.525.195.899.157 2.541 0 3.518.04 1.759.078 2.698.195 4.261.742.548.196.9.196 1.486.274-.156-1.134-.86-.587-2.072-.977-1.837-.548-7.936-.939-8.093-1.095l-.625-5.552c-.078-.469-.313-1.29-.313-1.72.352-.195.704-.273 1.056-.469.469-.274.547-.352 1.094-.625l3.714-1.994c.978-.391 2.033.782 2.151 1.759 1.954.04 1.993.47 2.893.665.977.234.508-.04 1.29.39 1.016.587 1.954.743 3.557 1.877.313.196 1.447 1.251 1.838 1.29.821.117-.743.078.234 0 .039 0 .078-.039.118-.039l.234-2.385c-.078-.899-.313-1.368-.43-2.15.508.157.508.157.821.47.899.86.626.156 2.854 1.328.352.196.43.274.821.43l1.837.86c.939.392 1.33-.117 1.681 2.15l1.056 4.067c.235.742.586 1.055.86 1.642-3.245.39-2.58-.118-4.418-.118.04.509.04.548.352.86.665.704 1.251.313 2.502 1.173.626-.117 3.128-.703 3.558-1.016.43-.274.313-.313.469-.547.391-.587 1.486-.782 2.658-1.486l.157-.117c.586-.352.039-.274.86-.313.665-.04 1.173.078 1.798-.078.743-.157.665-.43 1.486-.509 0 1.251.117 2.58-.078 3.793-.352 2.423-.196 3.675 1.016 5.512.157.235.039.235.469.508 1.329.9 2.19.235 2.815.156l-.313 1.994c-.117.509.079.978.509 1.447.938 1.055 1.055.586 1.798.704.86.117 1.095.938 2.033.977.704.078.743-.156 1.29-.313.274.196.586.782 1.759.196.469-.235.313-.274.86-.43.626-.157.43.039.939-.352 2.267-1.76.508-.274 2.111-2.893.742-1.173.938-2.111 1.485-3.48.43-1.094.899-1.016 1.955-3.205.586-1.251.821-4.809 0-6.607l-2.619-6.216c-.352-.704-.548-.782-1.173-1.408l-3.401-2.893c-.04 0-.04-.039-.079-.039s-.039-.039-.078-.039l-1.29-.313c-.586-.313 0-.234-.86-.43-.547-.117-.469-.078-.977-.313l-2.19-.781a11.486 11.486 0 00-.508-.196l-5.356-1.095c-.743-.156-1.603-.078-2.385-.039-1.876 0-1.29-.156-2.15-.43-.743-.234-1.251-.156-2.072-.508l-1.837-.743c-1.095-.547-2.385-.782-2.932-2.072-.118-.273-.43-1.876-.43-2.11-.079-.665.195-1.096.351-1.565.391-1.25-.899-.43-1.251-1.524-.195-.626-.625-3.206.118-3.753.86-.587 1.564.82 2.267-1.838.548-1.954-.391-.899.587-2.58 0 0 .117-.274.156-.274.743-1.485.782-.664 1.173-2.54.195-.9.352-.51.391-1.096 0 0 .039-1.055.039-1.094l-.508-.821zm11.689 36.554v-.078.078zm0-.078c.195-.782.508-.704 1.407-1.095.704-.312 1.33-.43 2.15-.547.9-.117 1.369-.274 2.424-.313 2.854-.078 3.05-1.094 6.607.704.899.43 2.346 1.798 2.698 2.697.274.743.234 1.564.234 2.464 0 .664-.078 1.329-.391 1.876l-1.094 1.29-.235.47c-.273.586-.547 1.211-.899 1.837-1.016 1.915-.195 2.228-1.368 4.026-.274.391-.782 1.408-1.056 1.642-.313.274-1.251.939-1.642 1.056-.156-.391-.117-.743-1.016-.821-.039.704.117.547.508 1.016-.352.235-.43.391-.782.548-.156-.118-.274-.235-.664-.43.273-.313.273-.274.547-.665 1.055-1.564 1.173-.039 1.837-2.15.274-.9.313-1.056.704-1.837.586-1.134.195-1.017.195-2.268 0-.04.391-1.447.47-1.642.273-.704.625-.977.664-1.72-2.072.82-1.29 3.088-2.072 5.043-.156.43-.782 2.463-.899 2.658-.078.118-1.681 1.682-1.798 1.76-.626-.704-.704-.352-1.369-.704.118-.43 1.056-1.955 1.642-3.87l.665-3.089c0-.547-.078-1.329 0-1.837.156-1.134 1.173-1.603 1.251-2.62-.665.118-.782.313-1.173.782-.821.939-.664.313-.86 1.134-.235 1.134.078 2.463-.313 3.675-.352 1.016-.703 1.72-.977 2.893-.313 1.486-.743 1.681-1.173 2.815-.391-.743-.704-1.134-2.033-1.173-.352.508-.547.352-.664 1.056.938-.079.391-.352 1.172-.587.939.274 1.017.43 1.251 1.29l-1.251.587c-1.798-.782-1.446-2.424-.703-3.714 1.055-1.877.508-2.659.821-4.887.078-.704 1.29-3.831.352-5.669-1.994.43-.626.117-1.486 2.268-.391.977-.782 1.368-.938 2.775l-.391 3.44c-.352-.508-.352-.86-.548-1.407-.664-.078-1.211-.273-1.837 0-.195.508-.195.86 0 1.368.704-.39.156-.195.469-.899l1.017.078.156 1.213-.938.117c-.352.234.039-.157-.274.313l1.173.234s.156.782-1.329.078c-.939-.43-.978-3.714-.9-4.574.118-1.134.391-2.033.587-3.088.234-1.251.274-1.681 1.016-2.424l.704-.665.352-.508zm3.167 1.642a3.578 3.578 0 00-.235-.39c.078.116.195.273.235.39zm-4.223-.508l.118-.117-.118.117zm10.908 2.502c.156-.078.078-.196.586-.196.626.04.313.118.43.196-.234.625-.782.625-1.016 0zm-40.463-35.185c.547-.313.899.273 1.095.664-.274.235-.47.196-.704.548-.352-.352-1.056-.821-.391-1.212zm36.162 32.292c.196-.157 1.486-.235 1.877-.078.391.156.547.86.586 1.29l-.508.625c-.274-.313-.117.04-.156-.43-.039-.234.195.196 0-.352-.274-.782-.939-.469-1.29-.547-.743-.195-.391-.156-.509-.508zm-30.767-25.177l-.274 1.447c-1.251-.118.196-.352-1.915-.313h-2.19c-.43-.821-.312-.391-.43-.352l-.43-1.447 4.105.391c.313 0 1.29-.664 1.134.274zm-54.42 28.695c-.469-.39-.43-.508-.742-1.055-.939-1.799-.47-.04-1.525-3.519-.274-.86-.508-1.68-.782-2.463-.313-.86-.977-1.29-1.173-2.228.548.156.43.195 1.134.665 1.955 1.29.665.351 1.798 3.244.548 1.369 1.29 3.91 1.29 5.356zm48.673-30.298c-.977-.704-.938-.039-1.485-.039-.743.04-.352-1.134-.118-1.29.43-.313.86.117 1.603-.078.508-.118 1.095-.43 1.564-.43.508 0 .938.39 1.564.39 1.094 0 .273-.742 3.205.235.274.078.626.157.821.157l.587.039c.586.078.547 1.212.508 1.759-1.329 0-1.368-1.212-3.87-1.29-.9-.04-3.05-.235-3.675-.117-.587.117-.508.195-.704.664zm2.737-12.666l-.821.586v1.368c-.391.04-.704.117-.939.117-.664-.039.04-.039-.703-.273-.469.665-.587.82-1.799.704-1.407-.196-.938-.235-1.485-1.095-.704.235.039-.04-.391.313-.391.312.156.234-.626.273-.43-.703-.273-.586.157-1.29.86-.039 2.619-.234 3.088-.508-.352-.743-2.15-1.095-2.619-.782-.391.235-.117.313-.743.626-.313-.391-.313-.391-.313-.86l.039-.626c.118-.821 1.017-.626 1.603-.547.782.117.978-.157 1.681.039l1.642.352c.469.117.782.469 1.447.547 0-.782-.039-1.642.782-1.916-.118.626-.352.86-.313 1.486.078.743.313.586.313 1.486zM143.01 71.66l.821.547c0 2.073-1.016.9-1.407.587l.586-1.134zM53.171 61.027c.665-.313.156.039.43-.587.743.86.782 2.737.821 3.91 0 2.228.274 2.228-.586 2.932-.235.195 0 .078-.235.156l-.313.04c-.352.273.04.39-.782 1.016-.234.195-.156.117-.39.351-1.564 1.525-4.223 2.033-5.474 2.62-2.11 1.016-5.434 2.033-7.78 2.932l-3.909 1.329c-2.698.508-1.642-.117-4.613.782-.665.195-1.525.273-2.229.508a22.202 22.202 0 01-6.607 1.017c.313-3.519 1.134-3.245.235-5.826-.9-2.736-1.095-1.407-2.424-3.753-.39-2.306 2.971-1.172 1.955-3.049l3.323-1.368c.625-.274 1.016-.548 1.681-.743 1.837-.626 4.183-1.955 6.802-2.893l1.252-.47c.469-.312.195-.116.39-.43-.742.04-1.603.353-2.189.626-1.994.821-3.518 1.486-1.603-.43 1.838-1.837 1.838-1.524 3.01-2.54 1.72-1.526 2.894-2.425 5.513-3.05 1.368-.313 2.893-1.134 4.613-.9.743.118 1.603.313 2.463.392 1.016.117 3.44.508 3.988 1.524.351.704.586 1.251.899 1.955.82 1.76.742-.352 1.25 3.05.118 1.094.47.86.509.898zm4.222-8.719c.078.665.04.509.274 1.017.234.586.117.352.234 1.055.079.548.47 1.369.665 1.916.547 1.798.625 1.681 1.212 3.949l.47 1.68c.586 1.916 1.29 4.223.312 5.982a2.636 2.636 0 00-.235.47c-2.385-.235-1.642.156-1.915.312-.118.04.117.274-.157 0-.234-.235-.078.078-.117-.391-.117-.977.743-5.59-.313-7.272-.43-.703-1.016-1.993-1.876-2.189.078.821.547 1.603.664 2.229l.079 8.248c-.509-.156-.548-1.407-.626-1.915-.391-3.245.665-4.848-1.251-7.74-.743-1.135-1.798-2.19-2.307-3.52-.39-1.016-1.563-2.892-2.814-3.244-4.105-1.095-5.356.156-2.033-2.893.977-.9.625-.547 1.994-1.017 1.29-.43 1.055-.352 2.306-.039l2.072.9c1.72.977 2.111 2.306 3.362 2.462zm70.878-8.6c5.083 0 5.747.39 10.478 1.485 1.055.235 2.15.626 3.206.939.938.273 4.691 1.993 5.473 2.658l2.658 3.323c.43.743.235.86.157 1.642-1.642-.352-.274.43-1.838-.391-2.15-1.095-4.535.156-8.014.626-2.737.39-2.346.86-3.831 2.345-1.486 1.486.117 1.134-3.988 2.111l-.743-2.776c-.156-.508-.274-.43-.391-.86-.156-.508-.313-1.407-.469-1.993-.665-2.932-.626-2.62-1.877-5.434-.273-.626-.39-1.173-.625-1.799-.352-.82-.43-.938-.196-1.876zm-67.086-.743c.079-.626 1.095-1.838 1.564-2.268 4.027-3.557 8.718-4.495 13.8-5.59 3.323-.704 5.982.508 8.328.899 1.212.196 1.68.196 2.893.9.703.39.586 1.016 1.172 2.619.196.508.118.234.196.781.039.157.039.235.039.391l.43 2.15c.156.509.117-.078.156.822.04 3.714.509 3.792.04 8.327l-.196 5.707c0 .821-.156 1.212-.156 1.799l-1.408.117c-.547.157-1.212.117-1.915.235-1.251.156-2.424.547-3.832.547-.234-.508-.195-.821-.312-1.525-.079-.703-.313-.782-.47-1.563-.625-3.284-.625-3.167-1.446-6.256l-.586-2.267c-.04-.117-.04-.235-.118-.352-.195-.352-.039-.156-.352-.39 0 1.172.118 1.72.235 2.736.117.899 0 1.876.078 2.775.078 1.799.508 3.402.587 5.278-.313.313-1.095 1.017-1.447 1.095.04-1.799-.469-5.434-.469-6.49 0-1.134.078-2.463 0-3.596-.117-1.486-.391.156-.43-2.15l-.156-.783c0-.039-.04-.078-.04-.117-.82.547-.625 1.877-.899 2.893-.508 2.111-.782 2.737-.899 4.691-.078 1.173-.352 2.463-1.055 3.167-.587.587-.352 2.854-1.369 3.597-.313.234-.078-.078-.508.39-.352.392-.743 1.017-1.368 1.447-.626.43-.821.196-1.408.43-.312.157-1.563 1.368-3.753 1.799-.938.195-2.15.547-3.206.273-.742-.156-.938-1.055-1.29-2.385-.469-1.915-.312-3.322-1.407-6.02l-2.072-5.356c-.47-1.173-.078-.626-1.798-1.916-.235-.195-1.799-1.563-1.955-1.759.313-.977 1.485-1.055 2.385-1.564 3.05-1.72 1.72-1.212 5.316-2.658.978-.391 1.838-.821 2.933-1.134-.157-.117-.118-.313-.939-.117-.899.352-1.876.86-2.893.39zm61.77 6.802c-.821.04-1.486-.078-2.229-.156-.586-.078-1.564-.196-2.228-.352l-3.597-.782c-.391.078.157.196-.156.04-.391-.392.664-.353 2.111-2.581l2.072-2.893 1.681-5.747c.235-.625.782-.82 1.603-.82.469.703.352 1.602.156 2.462-.078-.82.196-.235-.313-.586-.469 1.212-.351 4.73-.234 6.216.156 2.033.586 3.48 1.134 5.2zM94.338 37.531c.938-.9.977-.196 2.932-2.737.39-.508.43-.782 1.133-.82.313.546.391 2.462 1.603 4.651.469.9 1.251 3.128 1.368 3.362.47.743 4.418 4.575 4.653 4.926.312.47.195.509.625.978.587.625 1.408 1.524-.391 1.368-.312-.586-.469-1.76-2.15-1.837l-.625.078c-1.369.313-1.173.078-2.62.664-.977.43-1.72.86-2.736 1.251-.548.235-.978.43-1.369.626l-1.446.586c.039-1.172.273-2.033.313-3.245.039-3.713.273-4.965-.9-8.405-.195-.508-.351-.86-.39-1.446zm7.388-5.669c.743.86 1.525 2.737 1.838 3.128l1.564 2.267c.43.743.742.508 1.642.821l1.876.665c.977.312 1.994.703 3.049.782 1.056.117 1.095.469 1.76.899-.704.273-.587 1.446-.235 1.642 0 0 1.72-.47 2.072-.86.704-.782.547-1.095.938-1.486 0 0 .313-.235.43-.352 0 .43-.039.9-.039 1.134.509-.117.079-.157.899-.508l.9-.196c.508 1.056-.039 2.111-.665 2.971l-3.909 5.239c-.391.9.508 2.932.625 3.87-1.407-.625-6.372-4.535-7.584-5.668-.782-.782-1.525-1.33-2.307-2.111-1.955-1.916-2.385-2.815-3.44-5.395-.86-2.033-.586-1.173-.313-3.48 0-.586.665-2.815.899-3.362zm-1.407-11.924c.625.43.352 1.76.391 3.48 0 1.055.508 2.893 0 3.83-.86-.586-.039-3.4-.235-5.668-.078-.704-.469-1.29-.156-1.642zm18.922-1.407c-.704.313-3.597.117-4.223-.157.235-.742 1.721-.899 2.346-1.172.704-.274.665-.196 1.134.234.43.43.743.43.743 1.095zm-3.323-13.644c-.118-.04-.039-.078-.391-.117-1.134-.118-3.089 3.127-2.033.703.391-.899.352-1.134 1.642-1.134 1.133-.039 1.603-.039 2.267.43.469.313 1.447 3.284 1.759 3.95.509 1.094 1.799 2.188 2.542 2.97a2.497 2.497 0 01-1.017-.508c-2.111-1.525-3.166-3.01-4.027-5.356-.234-.508-.273-.743-.742-.938zm-9.618-.704c.782-.469 2.972-.664 3.363-.782.547-.156.82-.352 1.524-.508-.078-.47-.156-.313.039-.508 5.395-.548 4.653.313 6.412.547-.508.117-.899.117-1.447.235-.547.078-.86.156-1.368.234-1.016.078-1.759.274-2.619.548-2.893 1.016-1.994.039-3.558 1.016-.274.156-.235.156-.469.39l-.313.314c-.039-.078-.313.625.196 1.446.195.313.312.587.547.704-.508-.04-.665-.235-.977-.43-.313-.196-.587-.352-.86-.587-1.486-1.133-1.799-1.563-.9-2.267.039 0 .039-.04.079-.078l.351-.274zm-1.29-1.29c.665-.04.899-.156 1.369-.391.508-.235 2.15-.704 2.736-.586.391.039.196.039.313.078.039 0 .078.039.117.039l.704.195c-3.401.157-4.731 1.72-5.63 1.134-.039 0-.039-.039-.078-.078-.039 0-.039-.04-.078-.078l-.391-.235c.352-.39.313-.352.938-.508.196.39-.195 0 0 .43z" fill="#31305C"/><path fill-rule="evenodd" clip-rule="evenodd" d="M34.249 75.296c.821.313 1.407.86 1.798 1.603s.587 2.463.587 5.2c0 2.032-.196 3.596-.587 4.69-.39 1.095-1.055 1.956-1.993 2.542-.939.586-2.15.86-3.636.86-1.681 0-3.01-.352-3.949-1.017-.977-.664-1.603-1.485-1.876-2.502-.313-.977-.47-2.658-.47-5.082v-1.994h5.278v4.144c0 1.095.04 1.799.157 2.112.117.312.352.43.742.43.43 0 .704-.196.821-.587.118-.39.196-1.368.196-2.932v-1.76c0-.977-.078-1.68-.274-2.15-.195-.43-.469-.742-.82-.899-.353-.156-1.056-.234-2.073-.234v-3.675c1.251 0 2.033-.078 2.346-.156.313-.118.508-.352.625-.743.118-.391.196-.978.196-1.799V69.94c0-.9-.078-1.486-.235-1.76-.156-.273-.39-.43-.703-.43-.391 0-.626.157-.743.43-.156.313-.196.939-.196 1.916v2.072h-5.317v-2.15c0-2.424.47-4.066 1.408-4.926.938-.86 2.385-1.29 4.418-1.29 2.54 0 4.26.587 5.16 1.76.9 1.172 1.368 2.814 1.368 4.925 0 1.408-.156 2.463-.469 3.089-.39.625-.977 1.212-1.759 1.72zm13.996-11.025l3.166 25.412h-5.668l-.313-4.574h-1.955l-.313 4.574h-5.707L40.27 64.27h7.975zm-2.932 16.342c-.274-2.893-.548-6.45-.821-10.712-.548 4.887-.9 8.444-1.056 10.712h1.877zM52.35 64.27h5.512c1.72 0 3.05.157 3.949.47.899.312 1.602.977 2.189 1.954.547.978.82 2.58.82 4.77 0 1.485-.195 2.502-.585 3.088-.392.587-1.173 1.017-2.307 1.33 1.29.351 2.15.938 2.62 1.72.468.82.703 2.032.703 3.674v2.346c0 1.72-.157 2.971-.508 3.831-.313.821-.86 1.408-1.564 1.681-.704.313-2.19.47-4.418.47H52.39V64.27h-.04zm5.551 4.34v5.668h.547c.548 0 .86-.156 1.017-.469.156-.312.234-1.25.234-2.736 0-.782-.039-1.368-.195-1.681-.117-.313-.274-.508-.47-.587-.195-.117-.585-.195-1.133-.195zm0 9.617v7.115c.743-.039 1.251-.195 1.447-.43.195-.273.312-.899.312-1.954v-2.385c0-1.095-.078-1.76-.273-1.994-.196-.196-.665-.313-1.486-.352zm22.245-2.854h-5.552v-4.417c0-1.29-.039-2.072-.156-2.385-.117-.313-.39-.47-.782-.47-.43 0-.743.196-.86.587-.117.39-.195 1.212-.195 2.502v11.767c0 1.252.078 2.033.195 2.424s.391.548.821.548c.391 0 .665-.196.821-.587.117-.39.196-1.25.196-2.658v-3.206h5.551v.977c0 2.62-.156 4.496-.47 5.59-.312 1.096-1.016 2.073-2.071 2.894-1.056.82-2.385 1.25-3.949 1.25-1.603 0-2.97-.35-4.026-1.055-1.056-.703-1.76-1.68-2.072-2.893-.352-1.25-.509-3.088-.509-5.59v-7.428c0-1.838.04-3.206.157-4.105a7 7 0 01.938-2.658c.508-.86 1.251-1.525 2.15-1.994a7.046 7.046 0 013.206-.743c1.642 0 2.971.39 4.027 1.134 1.055.742 1.759 1.68 2.072 2.814.312 1.134.508 2.854.508 5.24v2.462z" fill="#E80D0D"/></svg>