<svg width="93" height="24" fill="none" xmlns="http://www.w3.org/2000/svg"><path fill-rule="evenodd" clip-rule="evenodd" d="M45.362.428h4.343l.03 8.381c.796-.03 1.224-.55 1.255-1.62l.092-3.886c.03-1.437.244-2.385.703-2.905h4.007c-.397.489-.58 1.468-.58 2.997l.03 3.395c0 2.05-.949 3.243-2.906 3.518 1.957.275 2.936 1.468 2.906 3.579l-.03 3.15c0 1.5.183 2.57.58 3.212h-4.007c-.459-.49-.703-1.468-.703-2.906V13.46c0-.49-.123-.887-.367-1.193a1.187 1.187 0 00-.949-.46l-.03 8.412h-4.344V.428h-.03zm21.87 19.882H62.89V4.405h-1.255V15.66c0 1.468-.152 2.539-.489 3.181-.336.642-.795 1.04-1.468 1.224-.642.152-1.682.244-3.12.244h-.673v-3.426c.52 0 .887-.091 1.101-.244.214-.153.306-.673.306-1.59V.427h9.941V20.31zM76.408.428l2.478 19.882h-4.405l-.244-3.579h-1.56l-.245 3.58h-4.466L70.17.427h6.24zm-2.294 12.786a285.307 285.307 0 01-.642-8.381c-.428 3.823-.704 6.607-.826 8.38h1.468zm17.894 10.522H89.01V20.31h-6.974v3.426H79.04v-7.555h.887c.459-1.621.856-3.762 1.162-6.424.306-2.66.46-5.567.46-8.686V.459h6.041c-.733.004 1.013 0 0 0h1.854c.638 0 1.227-.03 1.441-.03-.174 3.555 0 10.522.237 15.752h.887v7.555zm-5.23-7.586V4.374h-1.285v.153a66.23 66.23 0 01-1.04 11.623h2.325zM7.922 9.054a2.581 2.581 0 011.407 1.254c.306.581.46 1.927.46 4.068 0 1.59-.154 2.814-.46 3.67-.306.857-.826 1.53-1.56 1.989-.734.459-1.682.673-2.844.673-1.316 0-2.356-.275-3.09-.795-.764-.52-1.254-1.163-1.468-1.958C.122 17.19 0 15.875 0 13.979v-1.56h4.13v3.242c0 .856.03 1.407.122 1.652.091.244.275.336.58.336.337 0 .551-.153.643-.459.092-.306.153-1.07.153-2.294V13.52c0-.765-.061-1.316-.214-1.682-.153-.337-.367-.582-.642-.704-.276-.122-.826-.184-1.621-.184V8.075c.978 0 1.59-.061 1.835-.122.245-.092.397-.275.49-.581.091-.306.152-.765.152-1.407V4.863c0-.703-.061-1.162-.183-1.376-.123-.214-.306-.336-.551-.336-.306 0-.49.122-.581.336-.122.245-.153.734-.153 1.499v1.621H0V4.925C0 3.028.367 1.744 1.101 1.07S2.967.06 4.558.06c1.988 0 3.334.459 4.037 1.377.704.917 1.07 2.202 1.07 3.854 0 1.1-.122 1.927-.366 2.416-.306.49-.765.948-1.377 1.346zM18.872.428L21.35 20.31h-4.435l-.245-3.578h-1.53l-.244 3.578H10.43L12.633.428h6.24zM16.58 13.214a284.908 284.908 0 01-.643-8.381c-.428 3.823-.703 6.607-.826 8.38h1.469zM22.084.428h4.313c1.346 0 2.386.123 3.09.367.703.245 1.254.765 1.713 1.53.428.764.642 2.018.642 3.731 0 1.163-.153 1.958-.459 2.417-.306.459-.918.795-1.805 1.04 1.01.275 1.683.734 2.05 1.346.367.642.55 1.59.55 2.875v1.835c0 1.346-.122 2.325-.397 2.998-.245.642-.673 1.1-1.224 1.315-.55.245-1.713.367-3.456.367h-4.986V.43h-.03zm4.344 3.395V8.26h.428c.428 0 .673-.123.795-.367.123-.245.184-.98.184-2.142 0-.611-.03-1.07-.153-1.315-.092-.244-.214-.397-.367-.459-.153-.091-.459-.153-.887-.153zm0 7.525v5.567c.581-.03.979-.153 1.132-.336.152-.215.244-.704.244-1.53v-1.866c0-.856-.06-1.376-.214-1.56-.153-.153-.52-.244-1.162-.275zm17.404-2.233H39.49V5.66c0-1.01-.03-1.621-.123-1.866-.091-.245-.305-.367-.611-.367-.337 0-.582.153-.673.459-.092.306-.153.948-.153 1.957v9.207c0 .979.061 1.59.153 1.897.091.305.306.428.642.428.306 0 .52-.153.642-.459.092-.306.153-.979.153-2.08v-2.508h4.344v.765c0 2.049-.123 3.517-.367 4.374-.245.856-.796 1.62-1.621 2.263-.826.642-1.866.979-3.09.979-1.254 0-2.324-.275-3.15-.826a3.802 3.802 0 01-1.621-2.264c-.276-.978-.398-2.416-.398-4.373V7.433c0-1.438.03-2.508.122-3.212a5.485 5.485 0 01.734-2.08c.398-.673.98-1.193 1.683-1.56A5.513 5.513 0 0138.663 0c1.285 0 2.325.306 3.15.887.826.581 1.377 1.315 1.622 2.202.244.887.397 2.233.397 4.1v1.926z" fill="#E80D0D"/></svg>