<svg width="11" height="11" fill="none" xmlns="http://www.w3.org/2000/svg"><path d="M10.617 10.484V4.018c0-.067-.084-.15-.165-.213L8.76 2.578V1.222A.224.224 0 008.537 1H6.61L5.628.284a.242.242 0 00-.247 0L4.4.999H2.472a.224.224 0 00-.223.223v1.341L.537 3.807c-.101.062-.166.144-.166.213v6.51c0 .126.101.214.206.223h9.814c.144-.002.226-.114.226-.269zm-.425-6.065v5.664l-3.698-2.96 3.698-2.704zm-.166-.393l-1.265.922V3.096l1.265.93zM5.496.706l.392.29H5.1l.395-.29zm2.818.74v3.828L5.495 7.328 2.676 5.274V1.446h5.638zM.799 4.419l3.697 2.703L.8 10.1V4.42zm1.452.546L.953 4.02l1.298-.943v1.888zm-1.05 5.36l3.654-2.94.505.369c.096.073.17.073.268 0l.505-.37 3.676 2.941H1.2z" fill="#E80D0D"/><path d="M7.015 2.542H3.996v.425h3.019v-.425zm0 1.364H3.996v.425h3.019v-.425zm0 1.364H3.996v.426h3.019V5.27z" fill="#E80D0D"/></svg>