<svg width="11" height="11" fill="none" xmlns="http://www.w3.org/2000/svg"><g clip-path="url(#clip0)" fill="#E80D0D"><path d="M8.693 6.814c-.225-.234-.497-.36-.784-.36-.286 0-.56.123-.794.358l-.734.731-.179-.093a2.949 2.949 0 01-.23-.123c-.687-.436-1.311-1.005-1.91-1.741a4.704 4.704 0 01-.627-.99c.19-.173.367-.354.538-.528l.195-.198c.488-.487.488-1.119 0-1.606l-.633-.634a9.68 9.68 0 01-.216-.22c-.14-.145-.286-.293-.437-.433a1.099 1.099 0 00-.777-.34 1.14 1.14 0 00-.79.34l-.004.005-.79.796c-.297.298-.466.66-.504 1.08-.055.678.144 1.31.298 1.723.376 1.014.937 1.954 1.776 2.962a10.926 10.926 0 003.638 2.849c.534.253 1.246.552 2.043.603.048.003.1.005.146.005a1.75 1.75 0 001.34-.576c.002-.005.006-.007.009-.011.12-.147.26-.279.406-.42.1-.096.202-.196.302-.3.23-.24.35-.518.35-.803 0-.288-.123-.565-.357-.797L8.693 6.814zm.831 2.445c-.002 0-.002.002 0 0-.09.097-.183.185-.283.283-.15.144-.304.295-.448.464-.234.251-.51.37-.873.37-.035 0-.072 0-.107-.003-.69-.044-1.33-.313-1.81-.543a10.313 10.313 0 01-3.427-2.684C1.784 6.192 1.255 5.31.904 4.362.688 3.784.61 3.334.644 2.91c.023-.272.128-.497.32-.69l.792-.791c.114-.107.235-.165.353-.165.146 0 .265.088.34.163l.006.007c.142.132.276.269.418.415l.22.225.634.634c.246.246.246.474 0 .72-.067.067-.132.134-.2.2-.194.2-.38.385-.582.566-.005.005-.01.007-.012.012-.2.2-.162.394-.12.527l.007.02c.164.4.397.776.75 1.224l.002.002c.64.79 1.316 1.405 2.061 1.876.096.06.193.11.286.156.084.041.162.08.23.123.01.004.018.011.028.016.079.04.153.058.23.058.192 0 .313-.12.352-.16l.794-.794c.08-.08.205-.174.35-.174s.263.09.335.17l.005.004 1.28 1.279c.238.237.238.48.001.727zM5.945 2.617c.609.102 1.161.39 1.602.83.442.442.727.994.832 1.603a.31.31 0 00.308.26c.019 0 .035-.003.054-.005a.314.314 0 00.257-.362 3.58 3.58 0 00-1.005-1.939A3.58 3.58 0 006.055 2a.315.315 0 00-.363.255.31.31 0 00.253.363zm5.04 2.235A5.89 5.89 0 009.33 1.66 5.891 5.891 0 006.137.005a.312.312 0 10-.102.617 5.275 5.275 0 012.854 1.48 5.26 5.26 0 011.479 2.852.31.31 0 00.308.26c.019 0 .035-.002.054-.004a.308.308 0 00.255-.358z"/></g><defs><clipPath id="clip0"><path fill="#fff" d="M0 0h11v11H0z"/></clipPath></defs></svg>