<svg width="12" height="12" fill="none" xmlns="http://www.w3.org/2000/svg"><g clip-path="url(#clip0)" fill="#E80D0D"><path d="M6 6C4.346 6 3 4.654 3 3s1.346-3 3-3 3 1.346 3 3-1.346 3-3 3zM6 .75C4.76.75 3.75 1.76 3.75 3S4.76 5.25 6 5.25 8.25 4.24 8.25 3 7.24.75 6 .75zM10.875 12h-9.75a.375.375 0 01-.375-.375V9.044c0-.388.198-.752.517-.951 2.816-1.757 6.653-1.757 9.466 0 .319.199.517.563.517.95v2.582a.375.375 0 01-.375.375zM1.5 11.25h9V9.044a.37.37 0 00-.164-.315C7.76 7.12 4.24 7.12 1.664 8.729a.37.37 0 00-.164.315v2.206z"/></g><defs><clipPath id="clip0"><path fill="#fff" d="M0 0h12v12H0z"/></clipPath></defs></svg>